<ttFont>
          <CharString index="0">
            -107 callgsubr
            endchar
          </CharString>
          <CharString index="1">
            rmoveto
            37 -81 62 -56 39 vhcurveto
            -51 -36 -65 -62 -40 -47 rrcurveto
            -20 15 10 -6 16 hhcurveto
            27 44 38 37 43 hvcurveto
            0 63 -40 38 -47 vhcurveto
            29 19 8 12 14 vvcurveto
            return
          </CharString>
          <CharString index="2">
            96 4 92 -60 callsubr
            -87 -77 callgsubr
            102 -60 callgsubr
            -61 -52 -54 -3 -101 -22 vvcurveto
            -114 71 -28 76 54 56 21 36 42 vhcurveto
            return
          </CharString>
          <CharString index="3">
            rmoveto
            -34 -17 -18 -19 -25 vvcurveto
            -47 104 -28 83 -63 vhcurveto
            18 12 14 15 17 vvcurveto
            38 -70 12 -97 105 vhcurveto
            return
          </CharString>
          <CharString index="4">
            -104 callgsubr
            1 callsubr
            return
          </CharString>
          <CharString index="5">
            -28 callgsubr
            210 -124 132 -194 -72 callgsubr
            hvcurveto
            204 324 -27 callgsubr
            return
          </CharString>
          <CharString index="6">
            626 -106 callgsubr
            return
          </CharString>
          <CharString index="7">
            rmoveto
            -102 callsubr
            -27 callsubr
            return
          </CharString>
          <CharString index="8">
            564 -106 callsubr
            return
          </CharString>
          <CharString index="9">
            -20 7 -18 24 79 61 92 84 72 -40 26 -38 -40 -32 -25 -32 -13 3 -12 7 -13 vhcurveto
            34 -6 15 -23 -25 vvcurveto
            return
          </CharString>
          <CharString index="10">
            -102 callgsubr
            28 callgsubr
            return
          </CharString>
          <CharString index="11">
            -96 callgsubr
            14 callgsubr
            return
          </CharString>
          <CharString index="12">
            -96 callsubr
            55 52 47 39 hvcurveto
            endchar
          </CharString>
          <CharString index="13">
            18 callsubr
            -105 callsubr
            endchar
          </CharString>
          <CharString index="14">
            -63 callgsubr
            -63 callsubr
            hvcurveto
            -81 callsubr
            return
          </CharString>
          <CharString index="15">
            rmoveto
            -37 81 -62 56 -39 vhcurveto
            51 36 65 62 40 47 rrcurveto
            20 -15 -10 6 -16 hhcurveto
            -27 -44 -38 -37 -43 hvcurveto
            0 -63 40 -38 47 vhcurveto
            -29 -19 -8 -12 -14 vvcurveto
            return
          </CharString>
          <CharString index="16">
            -46 callgsubr
            201 vlineto
            105 8 100 19 -83 callsubr
            return
          </CharString>
          <CharString index="17">
            -61 callgsubr
            84 hlineto
            -11 callgsubr
            -82 callsubr
            hlineto
            105 -1 53 -3 29 vhcurveto
            return
          </CharString>
          <CharString index="18">
            rmoveto
            -88 callgsubr
            151 -93 96 -140 return
          </CharString>
          <CharString index="19">
            -54 callgsubr
            -92 callgsubr
            return
          </CharString>
          <CharString index="20">
            -11 callsubr
            -19 callgsubr
            -90 callsubr
            return
          </CharString>
          <CharString index="21">
            vhcurveto
            46 -60 -80 23 -70 hhcurveto
            -127 -104 -90 -158 -144 95 -103 109 hvcurveto
            return
          </CharString>
          <CharString index="22">
            rmoveto
            22 15 10 17 14 hvcurveto
            53 66 56 101 56 121 rrcurveto
            66 143 55 174 61 vvcurveto
            23 -9 19 -45 -16 -16 -1 -5 -19 vhcurveto
            2 -12 0 -6 -12 vvcurveto
            -76 -33 -139 -45 -112 vhcurveto
            -39 125 -63 150 -24 49 rrcurveto
            23 -11 -22 11 -21 hhcurveto
            return
          </CharString>
          <CharString index="23">
            -86 callgsubr
            198 vlineto
            return
          </CharString>
          <CharString index="24">
            vvcurveto
            30 -34 8 -33 -20 -21 -3 -2 -12 -16 callsubr
            -79 -86 vvcurveto
            return
          </CharString>
          <CharString index="25">
            27 1 15 9 40 vvcurveto
            10 -1 15 -3 7 vhcurveto
            -4 -34 -20 0 -60 hhcurveto
            -75 return
          </CharString>
          <CharString index="26">
            -36 callsubr
            -78 callsubr
            return
          </CharString>
          <CharString index="27">
            2 36 33 1 33 hhcurveto
            77 58 -6 -15 39 hvcurveto
            -52 callsubr
            return
          </CharString>
          <CharString index="28">
            rmoveto
            13 -96 -130 6 -95 hhcurveto
            -56 -48 -4 -6 -26 hvcurveto
            -21 -7 -8 -14 -22 vvcurveto
            -18 5 -18 5 -14 vhcurveto
            19 79 95 8 83 hhcurveto
            44 26 -1 -2 26 hvcurveto
            -367 -469 rlineto
            -16 -20 -9 -22 -21 vvcurveto
            -17 6 -17 12 -16 vhcurveto
            -8 64 94 -4 87 hhcurveto
            64 61 2 4 42 hvcurveto
            43 5 31 5 40 vvcurveto
            13 -5 22 -7 21 vhcurveto
            -31 -101 -128 -8 -93 hhcurveto
            -23 -19 0 1 -15 hvcurveto
            395 494 rlineto
            11 14 6 17 15 vvcurveto
            15 -6 14 -10 11 vhcurveto
            endchar
          </CharString>
          <CharString index="29">
            -64 callsubr
            -63 callgsubr
            return
          </CharString>
          <CharString index="30">
            rmoveto
            32 -30 21 -65 3 vhcurveto
            -6 -44 -61 -142 -64 -100 -46 99 -54 92 -38 56 rrcurveto
            26 -18 -21 8 -20 hhcurveto
            -32 -37 -27 -26 -20 hvcurveto
            54 -36 82 -130 78 -145 rrcurveto
            -72 vlineto
            -54 callgsubr
            return
          </CharString>
          <CharString index="31">
            231 rmoveto
            -88 callsubr
            return
          </CharString>
          <CharString index="32">
            105 vstem
            -95 callgsubr
            4 callsubr
            return
          </CharString>
          <CharString index="33">
            rmoveto
            -80 callsubr
            -81 -84 71 callsubr
            return
          </CharString>
          <CharString index="34">
            136 -60 38 -117 -50 callsubr
            vhcurveto
            return
          </CharString>
          <CharString index="35">
            -36 -33 -15 -43 -49 -57 14 56 -24 vhcurveto
            -36 -15 -26 -19 -35 vvcurveto
            -46 86 -34 89 93 100 45 105 vhcurveto
            180 -258 -80 112 vvcurveto
            36 32 18 32 45 51 -16 -49 15 vhcurveto
            return
          </CharString>
          <CharString index="36">
            -89 callsubr
            -12 callgsubr
            return
          </CharString>
          <CharString index="37">
            -91 -1 -42 -4 -48 -15 rrcurveto
            -44 -14 -44 -26 -83 vvcurveto
            return
          </CharString>
          <CharString index="38">
            915 -104 callsubr
            return
          </CharString>
          <CharString index="39">
            -84 callsubr
            46 8 85 callsubr
            32 1 18 8 36 vvcurveto
            return
          </CharString>
          <CharString index="40">
            rmoveto
            -91 callgsubr
            -443 -186 rmoveto
            32 57 41 69 46 73 293 466 rcurveline
            5 8 2 7 7 vvcurveto
            24 -28 15 -42 3 vhcurveto
            -31 -56 -42 -71 -46 -72 return
          </CharString>
          <CharString index="41">
            11 -9 12 -29 18 vhcurveto
            -65 -54 -76 -97 -37 -50 37 -49 76 -97 65 -54 rrcurveto
            30 19 8 11 11 vvcurveto
            21 -63 89 -41 49 vhcurveto
            41 50 63 90 20 vvcurveto
            return
          </CharString>
          <CharString index="42">
            68 84 21 49 28 -28 17 -21 11 return
          </CharString>
          <CharString index="43">
            40 -33 31 -38 return
          </CharString>
          <CharString index="44">
            -42 33 -29 39 return
          </CharString>
          <CharString index="45">
            4 callgsubr
            67 callgsubr
            -14 -16 -1 -1 -9 hvcurveto
            -73 callgsubr
            return
          </CharString>
          <CharString index="46">
            -21 callgsubr
            148 54 -147 -133 return
          </CharString>
          <CharString index="47">
            48 vvcurveto
            31 -29 8 -35 -10 -12 0 -4 -28 vhcurveto
            6 -71 1 return
          </CharString>
          <CharString index="48">
            -63 -2 -73 -43 -4 callsubr
            -56 callgsubr
            return
          </CharString>
          <CharString index="49">
            -64 callgsubr
            -78 callsubr
            -63 callsubr
            hvcurveto
            return
          </CharString>
          <CharString index="50">
            -34 8 30 -12 29 hhcurveto
            21 23 6 5 13 hvcurveto
            return
          </CharString>
          <CharString index="51">
            -73 -62 47 135 101 50 65 62 35 46 -24 -52 12 hvcurveto
            47 5 31 18 28 vvcurveto
            return
          </CharString>
          <CharString index="52">
            -37 14 -32 -107 vvcurveto
            -16 -1 -14 -2 -12 vhcurveto
            -4 14 12 -2 11 hhcurveto
            29 17 10 35 8 hvcurveto
            7 47 12 84 41 vvcurveto
            return
          </CharString>
          <CharString index="53">
            485 rmoveto
            8 10 3 9 8 vvcurveto
            24 -31 15 -35 5 vhcurveto
            -34 -49 -57 -76 -49 -63 -258 -330 rcurveline
            -8 -10 -3 -8 -8 vvcurveto
            -25 35 -13 29 -9 vhcurveto
            35 50 56 78 50 63 rrcurveto
            -147 203 rmoveto
            -48 -23 -37 -36 vhcurveto
            return
          </CharString>
          <CharString index="54">
            393 225 -71 callsubr
            -151 93 -97 138 hvcurveto
            return
          </CharString>
          <CharString index="55">
            -79 callgsubr
            10 -62 4 return
          </CharString>
          <CharString index="56">
            hhcurveto
            -38 callsubr
            hvcurveto
            -35 callgsubr
            -56 callsubr
            return
          </CharString>
          <CharString index="57">
            -98 -100 -41 -60 -19 11 -33 78 -1 return
          </CharString>
          <CharString index="58">
            280 rmoveto
            8 0 7 -7 16 vhcurveto
            -8 -34 -31 -2 -28 hhcurveto
            -18 hlineto
            -37 -38 4 -20 hhcurveto
            -39 -13 -18 -17 -6 0 -7 5 -18 hvcurveto
            9 45 31 2 25 hhcurveto
            9 hlineto
            34 37 -5 27 hhcurveto
            32 20 14 21 hvcurveto
            return
          </CharString>
          <CharString index="59">
            hlineto
            hintmask 01100000
            -45 -47 4 -24 -9 callgsubr
            9 55 38 2 30 hhcurveto
            hintmask 10000000
            return
          </CharString>
          <CharString index="60">
            -37 callsubr
            -34 callsubr
            vhcurveto
            return
          </CharString>
          <CharString index="61">
            59 76 callgsubr
            250 398 rmoveto
            -66 callsubr
            return
          </CharString>
          <CharString index="62">
            -163 91 -39 107 60 81 34 51 53 vhcurveto
            -19 vlineto
            -45 16 -14 48 return
          </CharString>
          <CharString index="63">
            11 callsubr
            70 callgsubr
            -78 -85 return
          </CharString>
          <CharString index="64">
            hmoveto
            12 callsubr
            hintmask 11100100
            -31 callsubr
          </CharString>
          <CharString index="65">
            613 rmoveto
            35 30 37 44 vhcurveto
            -62 callgsubr
            return
          </CharString>
          <CharString index="66">
            35 callgsubr
            -45 callsubr
            return
          </CharString>
          <CharString index="67">
            -192 -123 -132 -210 return
          </CharString>
          <CharString index="68">
            2 -42 1 -54 -48 -76 -2 -69 -32 vvcurveto
            -41 hlineto
            -29 callgsubr
            32 callsubr
            return
          </CharString>
          <CharString index="69">
            -107 -129 -72 -180 -172 130 -71 -10 callsubr
            return
          </CharString>
          <CharString index="70">
            -19 callsubr
            36 callsubr
            return
          </CharString>
          <CharString index="71">
            -190 hmoveto
            -64 callgsubr
            return
          </CharString>
          <CharString index="72">
            -77 -64 -30 -71 -66 -75 38 52 -27 vhcurveto
            -32 -15 -26 -18 -35 vvcurveto
            -56 104 -45 108 121 120 51 165 vhcurveto
            231 -344 -89 149 vvcurveto
            70 57 29 63 return
          </CharString>
          <CharString index="73">
            20 28 5 5 14 return
          </CharString>
          <CharString index="74">
            -106 callsubr
            endchar
          </CharString>
          <CharString index="75">
            -1 callsubr
            -98 callgsubr
            return
          </CharString>
          <CharString index="76">
            -100 callgsubr
            endchar
          </CharString>
          <CharString index="77">
            520 rmoveto
            -58 callsubr
            return
          </CharString>
          <CharString index="78">
            -78 -44 83 104 96 44 65 78 return
          </CharString>
          <CharString index="79">
            -10 -16 callgsubr
            return
          </CharString>
          <CharString index="80">
            -148 -54 151 140 return
          </CharString>
          <CharString index="81">
            -23 46 rrcurveto
            24 -12 -17 11 -22 hhcurveto
            -23 -26 -11 -23 -30 hvcurveto
            50 -50 84 -249 29 -147 rrcurveto
            -3 13 49 callsubr
            27 hvcurveto
            return
          </CharString>
          <CharString index="82">
            vlineto
            56 7 95 20 vvcurveto
            30 -22 8 -24 -8 -22 0 -3 -16 vhcurveto
            7 -46 1 return
          </CharString>
          <CharString index="83">
            0 callsubr
            -18 callgsubr
            return
          </CharString>
          <CharString index="84">
            26 callsubr
            14 callsubr
            12 callgsubr
            endchar
          </CharString>
          <CharString index="85">
            -51 callgsubr
            18 callsubr
            return
          </CharString>
          <CharString index="86">
            38 109 return
          </CharString>
          <CharString index="87">
            hhcurveto
            -65 callsubr
            hvcurveto
            -35 callgsubr
            return
          </CharString>
          <CharString index="88">
            231 rmoveto
            -54 callgsubr
            return
          </CharString>
          <CharString index="89">
            72 callgsubr
            -33 -12 -20 return
          </CharString>
          <CharString index="90">
            100 callsubr
            -84 -158 -2 return
          </CharString>
          <CharString index="91">
            vhcurveto
            5 -65 2 return
          </CharString>
          <CharString index="92">
            55 52 47 39 hvcurveto
            endchar
          </CharString>
          <CharString index="93">
            -10 callgsubr
            53 callgsubr
            return
          </CharString>
          <CharString index="94">
            -61 -10 71 270 70 callsubr
            return
          </CharString>
          <CharString index="95">
            53 18 45 28 42 hhcurveto
            return
          </CharString>
          <CharString index="96">
            7 7 2 11 14 vvcurveto
            return
          </CharString>
          <CharString index="97">
            111 -65 callsubr
            return
          </CharString>
          <CharString index="98">
            -48 42 callgsubr
            319 79 190 80 return
          </CharString>
          <CharString index="99">
            -1 callgsubr
            16 callgsubr
            8 3 return
          </CharString>
          <CharString index="100">
            rmoveto
            10 0 9 -7 21 vhcurveto
            -8 -41 -39 -2 -34 hhcurveto
            hintmask 10000000
            return
          </CharString>
          <CharString index="101">
            -44 69 -5 -42 vvcurveto
            -22 -18 -9 -19 -14 -15 5 9 -10 vhcurveto
            return
          </CharString>
          <CharString index="102">
            -104 callsubr
            endchar
          </CharString>
          <CharString index="103">
            vvcurveto
            -39 9 -16 43 -2 vhcurveto
            return
          </CharString>
          <CharString index="104">
            -24 -21 35 60 154 60 -31 58 156 58 41 -20 hstemhm
            42 90 119 91 168 90 118 92 return
          </CharString>
          <CharString index="105">
            vstem
            63 -47 callsubr
            -46 callgsubr
            return
          </CharString>
          <CharString index="106">
            -21 -20 -36 -17 -31 hhcurveto
            return
          </CharString>
          <CharString index="107">
            -3 -30 -30 0 -34 hhcurveto
            return
          </CharString>
          <CharString index="108">
            -2 -52 -2 -70 -75 vvcurveto
            return
          </CharString>
          <CharString index="109">
            118 106 16 130 return
          </CharString>
          <CharString index="110">
            -23 0 -24 1 -24 vhcurveto
            return
          </CharString>
          <CharString index="111">
            -20 -21 -36 -15 -42 hhcurveto
            return
          </CharString>
          <CharString index="112">
            -151 93 -97 138 return
          </CharString>
          <CharString index="113">
            13 -11 22 -10 12 vhcurveto
            -22 -44 -68 -2 -62 hhcurveto
            -51 hlineto
            152 84 63 105 74 vvcurveto
            72 -58 50 -87 return
          </CharString>
          <CharString index="114">
            -44 callgsubr
            -24 callsubr
            return
          </CharString>
          <CharString index="115">
            -78 callsubr
            -63 callsubr
            vhcurveto
            return
          </CharString>
          <CharString index="116">
            -147 -1 -134 -67 -83 callgsubr
            return
          </CharString>
          <CharString index="117">
            hlineto
            42 45 -5 33 33 callsubr
          </CharString>
          <CharString index="118">
            -12 89 callsubr
            -24 return
          </CharString>
          <CharString index="119">
            -35 -30 -37 -44 vhcurveto
            return
          </CharString>
          <CharString index="120">
            -10 79 525 79 return
          </CharString>
          <CharString index="121">
            -73 callsubr
            -12 callsubr
            return
          </CharString>
          <CharString index="122">
            -48 -22 -37 -37 -40 -19 54 48 45 25 36 35 return
          </CharString>
          <CharString index="123">
            10 -1 13 -4 9 vhcurveto
            -5 -44 -21 0 -63 hhcurveto
            return
          </CharString>
          <CharString index="124">
            -290 17 -21 503 -21 return
          </CharString>
          <CharString index="125">
            -14 52 -5 36 108 return
          </CharString>
          <CharString index="126">
            -19 63 0 return
          </CharString>
          <CharString index="127">
            -46 hhcurveto
            -13 -17 12 37 -5 hvcurveto
            -59 -9 -19 -30 -21 vvcurveto
            -30 22 -28 70 138 38 return
          </CharString>
          <CharString index="128">
            28 callsubr
            vvcurveto
            return
          </CharString>
          <CharString index="129">
            19 -83 callsubr
            endchar
          </CharString>
          <CharString index="130">
            210 11 95 27 13 callgsubr
            vhcurveto
            return
          </CharString>
          <CharString index="131">
            vvcurveto
            -40 13 -19 55 15 24 4 6 18 vhcurveto
            return
          </CharString>
          <CharString index="132">
            38 callsubr
            18 callgsubr
            return
          </CharString>
          <CharString index="133">
            70 2 45 18 vvcurveto
            return
          </CharString>
          <CharString index="134">
            48 48 18 34 39 return
          </CharString>
          <CharString index="135">
            rmoveto
            -22 callsubr
            return
          </CharString>
          <CharString index="136">
            rlineto
            21 37 1 5 8 vvcurveto
            23 -29 6 -17 2 vhcurveto
            -6 -13 -7 -17 -15 -27 return
          </CharString>
          <CharString index="137">
            150 8 94 15 vvcurveto
            1 -8 -4 1 -15 hhcurveto
            -22 -25 -1 -10 -12 hvcurveto
            return
          </CharString>
          <CharString index="138">
            rmoveto
            -74 callgsubr
            return
          </CharString>
          <CharString index="139">
            27 8 21 21 10 -2 8 -2 7 hvcurveto
            return
          </CharString>
          <CharString index="140">
            hhcurveto
            32 20 18 28 hvcurveto
            endchar
          </CharString>
          <CharString index="141">
            -59 -57 -93 -92 59 -59 return
          </CharString>
          <CharString index="142">
            73 -29 71 callgsubr
            return
          </CharString>
          <CharString index="143">
            -39 12 -18 52 return
          </CharString>
          <CharString index="144">
            hhcurveto
            69 77 12 43 18 -13 23 -26 16 hvcurveto
            -24 -32 -31 -16 -50 hhcurveto
            return
          </CharString>
          <CharString index="145">
            -16 -1 -1 -9 hvcurveto
            return
          </CharString>
          <CharString index="146">
            rmoveto
            -5 33 -1 38 47 vvcurveto
            46 vlineto
            return
          </CharString>
          <CharString index="147">
            -231 -21 242 -16 callgsubr
            return
          </CharString>
          <CharString index="148">
            36 -29 12 -28 -34 -30 -15 -26 vhcurveto
            return
          </CharString>
          <CharString index="149">
            hstem
            -21 callsubr
            return
          </CharString>
          <CharString index="150">
            -64 70 rrcurveto
            19 -17 -18 10 -37 hhcurveto
            -20 -19 -1 -7 -22 hvcurveto
            return
          </CharString>
          <CharString index="151">
            hvcurveto
            6 18 2 20 16 vvcurveto
            14 -2 11 -7 7 vhcurveto
            15 -19 return
          </CharString>
          <CharString index="152">
            47 callgsubr
            -65 -226 -80 -129 vhcurveto
            return
          </CharString>
          <CharString index="153">
            56 callsubr
            hintmask 11100000
            hintmask 11010000
            return
          </CharString>
          <CharString index="154">
            -200 -128 -126 -215 return
          </CharString>
          <CharString index="155">
            91 59 59 92 93 -59 57 -91 return
          </CharString>
          <CharString index="156">
            22 -1 12 hhcurveto
            27 20 6 34 return
          </CharString>
          <CharString index="157">
            104 -10 87 589 -20 return
          </CharString>
          <CharString index="158">
            vvcurveto
            115 -64 37 -73 return
          </CharString>
          <CharString index="159">
            44 35 -32 -77 hvcurveto
            return
          </CharString>
          <CharString index="160">
            57 callgsubr
            -20 return
          </CharString>
          <CharString index="161">
            18 -21 670 -20 return
          </CharString>
          <CharString index="162">
            73 -65 69 -107 return
          </CharString>
          <CharString index="163">
            150 -91 91 return
          </CharString>
          <CharString index="164">
            -7 -78 hhcurveto
            -23 -21 1 1 -20 hvcurveto
            -7 42 0 42 return
          </CharString>
          <CharString index="165">
            rrcurveto
            -3 12 14 0 10 hhcurveto
            34 23 9 46 34 hvcurveto
            return
          </CharString>
          <CharString index="166">
            -228 -21 986 -20 hstem
            229 77 vstem
            229 return
          </CharString>
          <CharString index="167">
            58 9 25 30 21 vvcurveto
            30 -30 29 -74 -147 -40 return
          </CharString>
          <CharString index="168">
            rmoveto
            63 callsubr
            return
          </CharString>
          <CharString index="169">
            87 82 233 88 vvcurveto
            28 -20 12 -36 vhcurveto
            endchar
          </CharString>
          <CharString index="170">
            2 36 33 1 33 hhcurveto
            77 58 -6 -15 39 hvcurveto
            return
          </CharString>
          <CharString index="171">
            hlineto
            -40 -18 -14 -28 -9 2 -10 3 -11 hvcurveto
            1 return
          </CharString>
          <CharString index="172">
            34 callgsubr
            35 callgsubr
            return
          </CharString>
          <CharString index="173">
            -12 callgsubr
            5 callsubr
            return
          </CharString>
          <CharString index="174">
            -109 -45 -136 -156 -44 -38 8 27 -37 return
          </CharString>
          <CharString index="175">
            14 callgsubr
            -15 callsubr
          </CharString>
          <CharString index="176">
            -20 hstemhm
            59 179 -82 82 return
          </CharString>
          <CharString index="177">
            154 -73 73 return
          </CharString>
          <CharString index="178">
            vvcurveto
            -194 vlineto
            return
          </CharString>
          <CharString index="179">
            -10 71 340 84 11 -21 127 56 hstemhm
            return
          </CharString>
          <CharString index="180">
            hhcurveto
            95 53 -30 -119 -82 -44 -53 -77 hvcurveto
            return
          </CharString>
          <CharString index="181">
            hhcurveto
            30 9 23 24 11 -2 9 -2 7 hvcurveto
            return
          </CharString>
          <CharString index="182">
            77 callsubr
            hstem
            70 104 187 101 return
          </CharString>
          <CharString index="183">
            20 28 3 5 14 return
          </CharString>
          <CharString index="184">
            17 -21 417 72 return
          </CharString>
          <CharString index="185">
            -2 -64 -39 vvcurveto
            -39 10 -16 39 -2 vhcurveto
            return
          </CharString>
          <CharString index="186">
            -142 73 323 65 322 74 hstemhm
            return
          </CharString>
          <CharString index="187">
            2 callsubr
            55 callsubr
            return
          </CharString>
          <CharString index="188">
            5 5 15 vhcurveto
            -13 44 0 28 35 vvcurveto
            return
          </CharString>
          <CharString index="189">
            0 10 0 10 2 vhcurveto
            return
          </CharString>
          <CharString index="190">
            97 callsubr
            60 103 return
          </CharString>
          <CharString index="191">
            -31 -3 -18 -6 -38 vvcurveto
            return
          </CharString>
          <CharString index="192">
            0 1 29 hvcurveto
            return
          </CharString>
          <CharString index="193">
            108 101 55 -55 225 hintmask 11101000
            return
          </CharString>
          <CharString index="194">
            -83 -73 -58 -38 -17 16 -13 28 -2 return
          </CharString>
          <CharString index="195">
            76 -109 8 -73 -106 -112 -47 return
          </CharString>
          <CharString index="196">
            -16 0 -4 return
          </CharString>
          <CharString index="197">
            65 hhcurveto
            17 14 -12 -37 12 hvcurveto
            return
          </CharString>
          <CharString index="198">
            -29 -3 1 -13 5 -9 hvcurveto
            5 return
          </CharString>
          <CharString index="199">
            32 hvcurveto
            26 16 13 23 18 vvcurveto
            return
          </CharString>
          <CharString index="200">
            14 22 0 0 7 -5 16 hvcurveto
            return
          </CharString>
          <CharString index="201">
            27 -27 25 -27 13 vhcurveto
            endchar
          </CharString>
          <CharString index="202">
            -61 -52 -19 -37 -47 return
          </CharString>
          <CharString index="203">
            393 400 rmoveto
            return
          </CharString>
          <CharString index="204">
            258 -20 hstem
            return
          </CharString>
          <CharString index="205">
            243 -20 hstemhm
            return
          </CharString>
          <CharString index="206">
            -20 hstem
            61 107 return
          </CharString>
          <CharString index="207">
            -144 -42 return
          </CharString>
          <CharString index="208">
            114 vstem
            return
          </CharString>
        <CharString name=".notdef">
          -344 endchar
        </CharString>
        <CharString name="A">
          -13 callgsubr
          hstem
          374 274 -107 callsubr
        </CharString>
        <CharString name="AE">
          254 0 76 -63 -21 207 74 44 79 190 80 hstemhm
          370 107 hintmask 01111100
          230 274 rmoveto
          56 106 45 102 37 81 rrcurveto
          2 -33 2 -86 -103 vvcurveto
          -68 -40 vlineto
          -33 -35 0 1 -34 hvcurveto
          243 309 -15 callgsubr
          -89 -118 -2 -18 -66 hvcurveto
          -50 -116 -60 -115 -52 -93 rrcurveto
          -63 -110 -89 -147 -20 vvcurveto
          -28 21 -15 65 -10 vhcurveto
          28 74 39 64 37 71 rrcurveto
          -1 25 60 -1 29 hhcurveto
          68 hlineto
          -1 -53 -1 -55 -34 -4 callsubr
          hintmask 10111100
          -56 callgsubr
          -11 callsubr
          hintmask 01111100
          -19 callgsubr
          hintmask 10111100
          -90 callsubr
          endchar
        </CharString>
        <CharString name="Aacute">
          -13 callgsubr
          278 -20 hstem
          232 217 vstem
          422 -90 callgsubr
          -48 -545 -107 callsubr
        </CharString>
        <CharString name="Acircumflex">
          34 0 -21 684 -20 252 -20 hstem
          443 -80 callgsubr
          -69 -483 -107 callsubr
        </CharString>
        <CharString name="Adieresis">
          -13 callgsubr
          69 142 hstem
          125 -8 callgsubr
          vstem
          387 712 rmoveto
          -101 callgsubr
          177 -438 -107 callsubr
        </CharString>
        <CharString name="Agrave">
          -13 callgsubr
          272 -20 hstem
          147 219 vstem
          199 -69 callsubr
          175 -641 -107 callsubr
        </CharString>
        <CharString name="Aring">
          -13 callgsubr
          70 48 94 48 hstem
          202 57 74 57 vstem
          333 803 -67 callgsubr
          77 -439 -107 callsubr
        </CharString>
        <CharString name="Atilde">
          34 0 -21 219 72 393 -20 75 118 hstem
          374 274 -107 callgsubr
          165 605 -95 callsubr
        </CharString>
        <CharString name="B">
          11 -10 77 258 62 209 77 hstemhm
          75 104 195 114 -90 90 -90 114 hintmask 11110010
          230 596 rmoveto
          hintmask 11110100
          69 75 -17 -89 -83 -73 -20 -77 -15 -17 1 1 -13 hvcurveto
          154 -2 11 -2 38 vhcurveto
          2 18 19 2 18 hhcurveto
          40 -529 rmoveto
          -38 -46 17 19 -21 hvcurveto
          5 31 8 128 58 vvcurveto
          4 20 32 1 27 hhcurveto
          74 67 -42 -91 -81 -59 -44 -69 hvcurveto
          -211 -14 rmoveto
          -49 62 89 -14 80 hhcurveto
          117 105 69 132 89 -38 51 -73 31 hvcurveto
          hintmask 11111000
          56 25 31 47 67 vvcurveto
          133 -125 39 -134 -34 -62 -1 -11 -71 vhcurveto
          9 -61 4 -105 -108 vvcurveto
          -129 -6 -134 -10 -71 vhcurveto
          endchar
        </CharString>
        <CharString name="C">
          70 87 callgsubr
          vstem
          -34 callgsubr
          29 callgsubr
          47 53 94 callsubr
        </CharString>
        <CharString name="Ccedilla">
          70 -244 60 174 79 525 79 hstemhm
          90 callgsubr
          108 49 callgsubr
          hintmask 11110100
          -34 callgsubr
          vhcurveto
          hintmask 11110010
          47 callsubr
          -184 104 -131 165 -23 hvcurveto
          -12 -30 -3 -21 -5 vvcurveto
          hintmask 11111000
          -6 callsubr
          -8 callsubr
          10 3 11 vhcurveto
          118 2 81 46 52 vvcurveto
          94 callsubr
        </CharString>
        <CharString name="D">
          99 -10 80 526 77 hstem
          72 104 306 101 callsubr
          56 53 -5 callgsubr
          12 -90 1 -92 -90 vvcurveto
          -1 -121 -3 -137 -12 -78 rrcurveto
          116 539 62 callgsubr
          67 callsubr
          hvcurveto
          11 100 3 122 112 vvcurveto
          54 -1 50 -3 49 vhcurveto
          endchar
        </CharString>
        <CharString name="Delta">
          133 0 80 564 -20 hstem
          317 527 rmoveto
          184 -440 rlineto
          -5 -43 -56 -2 -92 hhcurveto
          -103 -45 2 5 -39 hvcurveto
          471 -87 rmoveto
          36 8 22 26 hvcurveto
          -22 48 -199 459 -36 85 rrcurveto
          3 -11 -17 1 -12 hhcurveto
          -22 -26 -6 -20 -8 hvcurveto
          -76 -191 -88 -188 -87 -192 rrcurveto
          -29 11 -18 33 vhcurveto
          endchar
        </CharString>
        <CharString name="E">
          -9 callsubr
          hstemhm
          70 105 hintmask 10111000
          171 583 -74 callsubr
          hintmask 01111000
          -59 callsubr
          hintmask 10111000
          -87 callsubr
          endchar
        </CharString>
        <CharString name="Eacute">
          -9 callsubr
          255 -20 hstemhm
          70 105 18 217 hintmask 10111110
          383 -90 callgsubr
          -212 -236 -74 callsubr
          -59 callsubr
          -11 callsubr
          5 callgsubr
          hintmask 01111110
          2 callgsubr
          -61 callgsubr
          84 hlineto
          hintmask 10111110
          -11 callgsubr
          -82 callsubr
          hlineto
          105 -1 53 -3 29 vhcurveto
          endchar
        </CharString>
        <CharString name="Ecircumflex">
          -48 42 callgsubr
          78 241 0 79 190 80 0 58 171 -20 hstemhm
          70 105 hintmask 10011011
          392 -80 callgsubr
          -221 -174 -74 callsubr
          hintmask 01011011
          -59 callsubr
          -11 callsubr
          -19 callgsubr
          hintmask 01101011
          -61 callgsubr
          84 hlineto
          -11 callgsubr
          hintmask 10010111
          -82 callsubr
          hlineto
          105 -1 53 -3 29 vhcurveto
          endchar
        </CharString>
        <CharString name="Edieresis">
          -9 callsubr
          46 63 callgsubr
          70 105 -84 -8 callgsubr
          hintmask 10111011
          171 583 61 callsubr
          hintmask 10111101
          -79 callgsubr
          hintmask 01111101
          10 -62 4 -81 -84 71 callsubr
          -63 -2 -73 -43 vvcurveto
          -39 9 -16 43 -2 vhcurveto
          -69 callgsubr
          182 129 rmoveto
          -64 callgsubr
          -78 callsubr
          hvcurveto
          hintmask 10111101
          -63 callsubr
          vhcurveto
          -190 hmoveto
          -58 callsubr
          endchar
        </CharString>
        <CharString name="Egrave">
          -9 callsubr
          249 -20 hstemhm
          70 105 -86 219 hintmask 10111100
          141 -69 callsubr
          30 -332 61 callsubr
          hintmask 01111100
          -52 callsubr
          -81 -84 71 callsubr
          -59 callsubr
          -11 callsubr
          hintmask 10111100
          -19 callgsubr
          -61 callgsubr
          hintmask 10111010
          84 hlineto
          -11 callgsubr
          -82 callsubr
          hlineto
          105 -1 53 -3 29 vhcurveto
          endchar
        </CharString>
        <CharString name="Eth">
          112 -10 80 246 78 202 77 hstemhm
          -14 201 -103 103 308 114 hintmask 11110100
          185 592 62 callgsubr
          hvcurveto
          hintmask 11101100
          67 callsubr
          vhcurveto
          7 64 3 73 2 74 rrcurveto
          45 47 85 callsubr
          38 1 6 24 23 vvcurveto
          13 -2 13 -2 8 vhcurveto
          -4 -31 -43 0 -40 hhcurveto
          -45 44 hlineto
          54 -1 50 -3 49 vhcurveto
          -116 -539 -5 callgsubr
          11 -88 2 -90 -88 vvcurveto
          -22 -19 0 -1 -13 hvcurveto
          -36 -2 -9 -21 -23 vvcurveto
          -13 2 -15 3 -8 vhcurveto
          3 23 36 1 34 hhcurveto
          -1 -100 -5 -101 -9 -62 rrcurveto
          endchar
        </CharString>
        <CharString name="Euro">
          -9 72 184 54 54 54 194 71 hstem
          184 355 rmoveto
          246 -6 callgsubr
          -60 hhcurveto
          -105 hlineto
          135 26 91 59 71 hhcurveto
          50 31 -16 -24 92 callsubr
          42 -77 12 -69 -131 -140 -72 -193 -28 vhcurveto
          -26 hlineto
          -23 -20 -6 -29 -2 0 -14 6 -10 hvcurveto
          21 4 19 2 18 1 rrcurveto
          -1 -7 0 -7 -6 vvcurveto
          -9 0 -9 1 -16 vhcurveto
          -21 hlineto
          -23 -20 -6 -28 -3 1 -15 5 -8 hvcurveto
          23 2 21 3 21 1 rrcurveto
          -189 30 139 -67 128 37 callsubr
          -66 -89 62 122 -31 hvcurveto
          237 hlineto
          34 9 15 22 0 0 6 -5 17 hvcurveto
          -5 -54 -58 -1 -60 hhcurveto
          -111 hlineto
          -1 12 0 7 12 vvcurveto
          endchar
        </CharString>
        <CharString name="Eurooldstyle">
          -10 72 150 54 44 54 148 71 hstem
          15 331 rmoveto
          -8 2 -9 4 -11 vhcurveto
          30 4 12 2 23 1 rrcurveto
          -44 -28 vlineto
          -27 -16 -10 -23 -8 2 -9 4 -11 hvcurveto
          25 3 21 3 25 1 rrcurveto
          -161 31 130 -61 127 37 callsubr
          -67 -82 47 103 -27 hvcurveto
          227 -6 callgsubr
          -122 hhcurveto
          -40 44 236 -6 callgsubr
          -60 hhcurveto
          -92 hlineto
          102 28 79 46 68 hhcurveto
          51 30 -16 -25 92 callsubr
          43 -77 12 -69 -127 -129 -64 -155 -31 vhcurveto
          -35 hlineto
          -26 -17 -10 -23 hvcurveto
          endchar
        </CharString>
        <CharString name="F">
          -84 11 -21 316 79 201 80 hstem
          70 105 vstem
          175 306 rmoveto
          84 hlineto
          -11 callgsubr
          -82 callsubr
          64 hlineto
          72 -1 39 -3 23 vhcurveto
          -80 callsubr
          -80 -83 vvcurveto
          -208 vlineto
          -54 callgsubr
          36 callsubr
          -34 callsubr
          vhcurveto
          -46 callgsubr
          endchar
        </CharString>
        <CharString name="G">
          82 87 callgsubr
          313 102 vstem
          571 85 rmoveto
          94 7 79 19 vvcurveto
          29 -33 8 -34 -12 -14 97 callgsubr
          4 -61 2 -71 1 -78 rrcurveto
          -22 -30 -42 -10 -41 hhcurveto
          -131 -69 129 153 138 79 105 114 51 58 -27 -69 24 hvcurveto
          44 7 35 21 38 vvcurveto
          61 -83 48 -108 29 callgsubr
          50 45 vhcurveto
          endchar
        </CharString>
        <CharString name="H">
          89 18 -21 325 74 270 99 callsubr
          280 105 -2 callsubr
          120 vlineto
          -1 51 43 0 45 hhcurveto
          45 45 0 1 51 hvcurveto
          -92 vlineto
          -88 callsubr
          -34 vlineto
          -1 -50 -44 0 -44 hhcurveto
          -44 -44 0 1 -54 hvcurveto
          104 8 108 22 callsubr
        </CharString>
        <CharString name="I">
          -296 53 callsubr
          hstem
          61 107 vstem
          63 -76 callsubr
          endchar
        </CharString>
        <CharString name="Iacute">
          -295 53 callsubr
          275 -20 hstemhm
          56 217 -199 107 hintmask 11110000
          76 -19 callsubr
          hintmask 11101000
          -92 callgsubr
          170 388 -25 callgsubr
        </CharString>
        <CharString name="Icircumflex">
          -278 57 callgsubr
          58 99 callgsubr
          76 107 vstem
          78 -76 callsubr
          195 326 -33 callsubr
        </CharString>
        <CharString name="Idieresis">
          -286 53 callsubr
          66 63 callgsubr
          -51 145 -27 107 -35 145 hintmask 11110100
          69 -76 callsubr
          -48 281 80 callgsubr
          hintmask 11101000
          -63 callgsubr
          -63 callsubr
          hvcurveto
          190 hmoveto
          -58 callsubr
          endchar
        </CharString>
        <CharString name="Igrave">
          -292 53 callsubr
          269 -20 hstemhm
          -29 219 -125 107 hintmask 11110000
          67 -37 callsubr
          vhcurveto
          hintmask 11101000
          -34 callsubr
          hvcurveto
          -91 callsubr
          -44 484 -5 callsubr
        </CharString>
        <CharString name="J">
          -296 -98 -21 785 -20 hstemhm
          -32 211 -105 105 hintmask 11100000
          12 -119 rmoveto
          hintmask 11010000
          54 113 48 182 hvcurveto
          310 vlineto
          hintmask 11100000
          99 8 90 18 vvcurveto
          30 -34 8 -31 -12 -19 -1 -4 -24 -16 callsubr
          -79 -86 vvcurveto
          -313 vlineto
          -99 -3 -37 -103 -23 vhcurveto
          -47 15 -31 29 vhcurveto
          endchar
        </CharString>
        <CharString name="J_alt">
          -225 -142 77 731 -20 hstem
          146 106 vstem
          194 666 rmoveto
          -12 -20 0 -3 -22 hvcurveto
          4 -65 2 -81 -86 -239 -1 -74 -53 vvcurveto
          -97 -53 -33 -54 -47 -36 15 30 -40 vhcurveto
          -21 -25 -5 -11 -20 vvcurveto
          -51 69 -15 75 134 85 71 131 vhcurveto
          14 -2 215 132 99 8 90 18 vvcurveto
          30 -31 8 -33 vhcurveto
          endchar
        </CharString>
        <CharString name="K">
          -14 -10 77 599 99 callsubr
          -2 callsubr
          98 vlineto
          12 9 rlineto
          -212 114 55 -108 100 hhcurveto
          45 31 17 31 9 -3 11 -6 12 hvcurveto
          -3 -12 -6 0 -9 hhcurveto
          -75 -69 145 158 -91 hvcurveto
          119 107 104 93 43 vvcurveto
          30 -25 12 -34 10 vhcurveto
          -42 -81 -125 -123 -83 -64 rrcurveto
          133 8 79 22 callsubr
        </CharString>
        <CharString name="L">
          -99 42 callgsubr
          668 -20 hstemhm
          61 107 hintmask 10110000
          63 224 rmoveto
          -64 78 callsubr
          -2 44 45 0 44 hhcurveto
          87 hlineto
          70 40 5 47 17 -5 20 -6 12 hvcurveto
          hintmask 01110000
          -16 -30 -82 57 callsubr
          156 vvcurveto
          86 vlineto
          hintmask 10110000
          105 8 100 19 -18 callsubr
          0 -3 -23 -16 callsubr
          -81 -86 vvcurveto
          endchar
        </CharString>
        <CharString name="Lslash">
          -88 42 callgsubr
          668 -20 hstemhm
          -38 218 -105 105 hintmask 10101000
          5 186 rmoveto
          hintmask 01110000
          21 18 26 25 23 17 rrcurveto
          -86 78 callsubr
          hintmask 10110000
          -1 15 96 -1 47 hhcurveto
          58 86 0 15 18 hvcurveto
          -11 callsubr
          16 -2 20 -5 18 vhcurveto
          -16 -30 -85 57 callsubr
          167 vvcurveto
          133 102 rlineto
          68 callgsubr
          hintmask 10101000
          -30 -27 -35 -30 -39 -31 rrcurveto
          100 8 92 18 -18 callsubr
          97 callgsubr
          hintmask 10110000
          5 -65 2 -81 -86 vvcurveto
          -95 vlineto
          -98 -75 rlineto
          65 callgsubr
          endchar
        </CharString>
        <CharString name="M">
          253 18 -21 22 -21 669 -20 hstemhm
          75 91 447 104 hintmask 10111000
          717 436 rmoveto
          85 0 78 18 60 vhcurveto
          hintmask 01111000
          5 -16 -41 3 -8 hhcurveto
          -39 -26 -11 -35 -20 hvcurveto
          -81 -138 -61 -186 -44 -166 -51 174 -53 182 -81 132 rrcurveto
          hintmask 10111000
          32 -20 -29 16 -38 hhcurveto
          -24 -22 -3 -5 -25 hvcurveto
          14 -47 5 -67 -62 vvcurveto
          -252 vlineto
          -54 callgsubr
          -39 11 -18 49 19 16 3 5 17 vhcurveto
          19 callsubr
          71 64 vvcurveto
          303 vlineto
          67 -166 55 -192 56 -124 rrcurveto
          -22 10 28 -4 26 hhcurveto
          15 14 2 2 8 hvcurveto
          32 106 68 227 68 169 rrcurveto
          -450 vlineto
          -39 11 -18 58 22 23 3 5 9 vhcurveto
          19 callsubr
          71 64 vvcurveto
          endchar
        </CharString>
        <CharString name="N">
          79 53 callsubr
          21 -20 hstemhm
          75 85 302 91 hintmask 11011000
          81 callgsubr
          -3 callgsubr
          -109 94 callgsubr
          255 43 callsubr
          hintmask 10111000
          19 -61 0 -81 -86 vvcurveto
          -200 vlineto
          -54 callgsubr
          36 callsubr
          19 15 3 5 14 vhcurveto
          -17 48 -2 130 -1 73 rrcurveto
          0 0 122 92 callgsubr
          -182 39 callgsubr
          endchar
        </CharString>
        <CharString name="Ntilde">
          79 53 callsubr
          21 -20 71 35 callsubr
          75 85 302 91 hintmask 11010111
          81 callgsubr
          hintmask 11001011
          -3 callgsubr
          -99 94 callgsubr
          245 43 callsubr
          19 -61 0 -81 -86 vvcurveto
          -200 vlineto
          hintmask 11010111
          -54 callgsubr
          36 callsubr
          19 15 3 5 14 vhcurveto
          -17 48 -2 130 -1 73 rrcurveto
          hintmask 10110111
          0 0 112 92 callgsubr
          -172 39 callgsubr
          -98 803 -95 callsubr
        </CharString>
        <CharString name="O">
          177 87 callgsubr
          405 101 callsubr
          357 -10 -99 callgsubr
          endchar
        </CharString>
        <CharString name="OE">
          350 -10 86 241 79 190 87 -7 -20 hstemhm
          90 callgsubr
          311 105 hintmask 11101100
          hintmask 11011100
          358 69 rmoveto
          -27 callsubr
          hvcurveto
          hintmask 11101100
          -21 callgsubr
          42 35 -12 -20 27 vhcurveto
          3 -42 1 -45 -45 71 callsubr
          -46 -2 -51 -41 vvcurveto
          -19 -30 -35 -10 -42 hhcurveto
          210 514 -15 callgsubr
          -72 -70 -2 -7 -87 hvcurveto
          10 -30 -31 6 -35 hhcurveto
          -72 callgsubr
          42 40 11 15 35 hvcurveto
          7 -10 13 -5 23 -1 rrcurveto
          -69 callgsubr
          endchar
        </CharString>
        <CharString name="Oacute">
          -4 callgsubr
          248 -20 86 callgsubr
          144 217 44 101 callsubr
          490 -90 callgsubr
          -133 -829 -99 callgsubr
          endchar
        </CharString>
        <CharString name="Ocircumflex">
          -4 callgsubr
          0 51 171 -20 hstemhm
          90 callgsubr
          405 114 hintmask 11011100
          500 -80 callgsubr
          -143 -767 -100 callsubr
          vhcurveto
          hintmask 10111100
          -61 callsubr
          vhcurveto
          endchar
        </CharString>
        <CharString name="Odieresis">
          -4 callgsubr
          39 142 86 callgsubr
          34 -8 callgsubr
          36 101 callsubr
          357 -10 -99 callgsubr
          -109 398 rmoveto
          -101 callgsubr
          endchar
        </CharString>
        <CharString name="Ograve">
          -4 callgsubr
          242 -20 86 callgsubr
          43 219 143 101 callsubr
          251 -69 callsubr
          106 -925 -99 callgsubr
          endchar
        </CharString>
        <CharString name="Omega">
          301 0 74 533 71 hstem
          104 114 403 101 callsubr
          420 678 rmoveto
          -174 -142 -123 -184 -139 77 -98 108 -60 hvcurveto
          -153 hlineto
          -19 27 -16 34 -18 36 rrcurveto
          4 -10 -3 0 -3 hhcurveto
          -16 -13 -7 -16 -20 19 -92 9 -40 hvcurveto
          231 hlineto
          61 13 32 34 11 -1 13 -2 10 hvcurveto
          -105 62 -45 91 108 vvcurveto
          140 1 70 106 131 hhcurveto
          131 69 -106 -140 1 hvcurveto
          -108 -45 -91 -105 -62 vhcurveto
          -1 -11 -1 -11 -12 vvcurveto
          -33 12 -33 61 vhcurveto
          232 hlineto
          8 40 19 92 20 vvcurveto
          16 -13 7 -15 -4 -3 0 -4 -10 vhcurveto
          -17 -36 -17 -34 -19 -27 rrcurveto
          -152 hlineto
          106 59 78 99 139 vvcurveto
          184 -141 123 -174 vhcurveto
          endchar
        </CharString>
        <CharString name="Oslash">
          177 -63 -21 74 79 525 79 71 -20 86 callgsubr
          405 101 callsubr
          221 16 rmoveto
          -17 40 45 -9 51 hhcurveto
          -28 callgsubr
          127 -46 98 -79 58 hvcurveto
          27 49 29 callsubr
          -24 -44 rcurveline
          19 -42 -48 11 -54 hhcurveto
          -40 callsubr
          -129 47 -100 82 -58 hvcurveto
          -23 -42 22 callgsubr
          -41 387 rmoveto
          -21 callgsubr
          39 33 -11 -18 27 vhcurveto
          -238 -431 rlineto
          -46 57 -18 86 83 vvcurveto
          405 -46 -27 callgsubr
          -37 -31 9 17 -26 vhcurveto
          237 430 rlineto
          42 -55 18 -80 -76 vvcurveto
          endchar
        </CharString>
        <CharString name="Otilde">
          -4 callgsubr
          45 35 callsubr
          90 callgsubr
          405 114 hintmask 11101110
          357 -10 rmoveto
          hintmask 11010110
          -102 callsubr
          vhcurveto
          hintmask 11101110
          -27 callsubr
          -61 callsubr
          hvcurveto
          -51 490 -95 callsubr
        </CharString>
        <CharString name="P">
          -29 18 -21 236 79 284 77 hstem
          67 107 205 101 callsubr
          258 312 rmoveto
          -28 -31 4 13 -25 hvcurveto
          77 vlineto
          86 -2 73 -2 27 vhcurveto
          2 20 24 2 17 73 callsubr
          -189 -81 rmoveto
          -54 callgsubr
          -39 11 -18 54 19 27 3 5 15 vhcurveto
          -19 61 0 68 62 vvcurveto
          69 vlineto
          31 callgsubr
          -42 75 callgsubr
          endchar
        </CharString>
        <CharString name="Q">
          173 -184 88 690 79 hstem
          42 112 405 112 vstem
          559 314 -27 callgsubr
          -27 callsubr
          -61 callsubr
          vhcurveto
          -248 -323 rmoveto
          -134 24 99 -41 81 hhcurveto
          78 57 23 50 13 -2 30 -35 28 hvcurveto
          -24 -21 -43 -32 -44 hhcurveto
          -50 -45 35 53 -15 hvcurveto
          169 14 107 130 195 vvcurveto
          210 -120 132 -195 -195 -119 -132 -210 -196 103 -125 166 -19 vhcurveto
          endchar
        </CharString>
        <CharString name="R">
          0 -3 70 -56 -21 606 77 hstemhm
          69 105 205 115 hintmask 10111000
          450 95 rmoveto
          hintmask 01111000
          -33 31 -48 92 -26 56 rrcurveto
          87 23 64 67 106 vvcurveto
          165 -144 38 -137 vhcurveto
          hintmask 10111000
          -43 75 callgsubr
          -200 vlineto
          -54 callgsubr
          36 callsubr
          76 callsubr
          vhcurveto
          -19 61 0 69 63 vvcurveto
          195 vlineto
          93 -2 78 -2 28 vhcurveto
          2 19 30 2 16 hhcurveto
          93 51 -27 -99 -91 -61 -38 -66 -12 -13 1 3 -12 hvcurveto
          -4 -10 -4 -17 -12 vvcurveto
          -15 6 -10 17 -7 vhcurveto
          20 -54 52 -115 46 -58 rrcurveto
          -34 27 35 -23 41 hhcurveto
          40 44 11 34 9 -3 12 -6 14 hvcurveto
          -2 -8 -7 -1 -8 hhcurveto
          -20 -15 6 22 -18 hvcurveto
          endchar
        </CharString>
        <CharString name="S">
          -10 -10 79 527 77 -42 callgsubr
          -92 92 252 92 hintmask 11011000
          408 508 -7 callgsubr
          hintmask 11101000
          -35 callsubr
          58 62 -36 -52 21 vhcurveto
          endchar
        </CharString>
        <CharString name="Scaron">
          -10 -10 79 527 77 222 -39 callgsubr
          -92 92 252 92 hintmask 11101100
          136 850 -92 callsubr
          272 -342 -7 callgsubr
          -35 callsubr
          vhcurveto
          hintmask 11110100
          58 62 -36 -52 21 hvcurveto
          endchar
        </CharString>
        <CharString name="T">
          -54 18 -21 584 80 3 -20 hstemhm
          190 107 hintmask 11010000
          192 -47 callsubr
          -46 callgsubr
          201 vlineto
          hintmask 10110000
          68 3 66 2 43 vhcurveto
          hintmask 11010000
          39 72 0 1 28 hvcurveto
          28 1 16 8 38 vvcurveto
          8 -1 19 -2 8 vhcurveto
          -3 -35 -87 0 -81 hhcurveto
          -118 hlineto
          -44 -48 0 -1 -25 hvcurveto
          -28 -1 -16 -8 -38 vvcurveto
          -9 1 -19 2 -8 vhcurveto
          4 45 77 0 65 hhcurveto
          1 -47 1 -50 -53 vvcurveto
          endchar
        </CharString>
        <CharString name="Thorn">
          -22 18 -21 126 79 284 77 103 99 callsubr
          205 101 callsubr
          63 -47 callsubr
          -15 47 -3 51 -1 50 rrcurveto
          31 callgsubr
          -13 -10 0 -1 -11 hvcurveto
          2 33 2 24 9 -83 callsubr
          189 -229 rmoveto
          -28 -31 4 13 -25 hvcurveto
          212 0 26 1 25 vhcurveto
          2 19 21 2 16 73 callsubr
          endchar
        </CharString>
        <CharString name="U">
          50 callsubr
          hstemhm
          78 100 -100 115 270 105 hintmask 11101000
          61 658 34 callgsubr
          vvcurveto
          hintmask 11011000
          -41 callsubr
          76 callsubr
          vhcurveto
          19 callsubr
          51 190 222 8 78 19 -18 callsubr
          -1 -3 -23 -16 callsubr
          -80 -86 -222 -1 -28 -29 vvcurveto
          -39 -37 -70 -36 -60 hhcurveto
          -55 -62 35 98 hvcurveto
          145 15 165 95 vvcurveto
          39 -25 12 -48 -20 -26 -4 -4 -13 vhcurveto
          endchar
        </CharString>
        <CharString name="Uacute">
          50 callsubr
          275 -20 hstemhm
          78 100 -100 115 80 217 -27 105 hintmask 11110010
          463 -90 callgsubr
          hintmask 11101010
          -402 -161 65 callsubr
          -163 91 -39 107 vhcurveto
          hintmask 11110100
          60 81 34 51 53 hvcurveto
          -19 vlineto
          -45 16 -14 48 76 callsubr
          vhcurveto
          hintmask 11110010
          19 callsubr
          51 190 222 8 78 19 -18 callsubr
          -1 -3 -23 -16 callsubr
          -80 -86 -222 -1 -28 -29 vvcurveto
          -39 -37 -70 -36 -60 hhcurveto
          -55 -62 35 98 hvcurveto
          145 15 165 95 vvcurveto
          39 -25 12 -48 -20 -26 -4 -4 -13 vhcurveto
          endchar
        </CharString>
        <CharString name="Ucircumflex">
          104 -10 87 589 58 99 callgsubr
          78 100 285 105 vstem
          467 -80 callgsubr
          -406 -99 rmoveto
          14 -51 3 -52 -54 -41 callsubr
          76 callsubr
          vhcurveto
          19 callsubr
          51 190 222 8 78 19 -18 callsubr
          -1 -3 -23 -16 callsubr
          -80 -86 -222 -1 -28 -29 vvcurveto
          -39 -37 -70 -36 -60 hhcurveto
          -55 -62 35 98 hvcurveto
          145 15 165 95 vvcurveto
          39 -25 12 -48 -20 -26 -4 -4 -13 vhcurveto
          endchar
        </CharString>
        <CharString name="Udieresis">
          50 callsubr
          66 63 callgsubr
          78 100 -10 25 -25 -8 callgsubr
          -40 105 hintmask 11100110
          61 658 rmoveto
          14 -51 3 -52 -54 -41 callsubr
          vhcurveto
          hintmask 11110001
          76 callsubr
          hvcurveto
          19 callsubr
          51 190 222 8 78 19 -18 callsubr
          -1 -3 -23 -16 callsubr
          -80 -86 -222 -1 -28 -29 vvcurveto
          -39 -37 -70 -36 -60 hhcurveto
          -55 -62 35 98 hvcurveto
          145 15 165 95 vvcurveto
          39 -25 12 -48 -20 -26 -4 -4 -13 vhcurveto
          369 54 rmoveto
          -58 callsubr
          -36 callsubr
          hvcurveto
          hintmask 11101010
          8 callsubr
          endchar
        </CharString>
        <CharString name="Ugrave">
          50 callsubr
          269 -20 hstemhm
          78 100 -100 115 -28 219 79 105 hintmask 11110010
          217 -69 callsubr
          -156 -257 65 callsubr
          hintmask 11101010
          -45 callsubr
          vhcurveto
          hintmask 11100110
          76 callsubr
          hvcurveto
          19 callsubr
          51 190 222 8 78 19 -18 callsubr
          -1 -3 -23 -16 callsubr
          -80 -86 -222 -1 -28 -29 vvcurveto
          -39 -37 -70 -36 -60 hhcurveto
          -55 -62 35 98 hvcurveto
          145 15 165 95 vvcurveto
          39 -25 12 -48 -20 -26 -4 -4 -13 vhcurveto
          endchar
        </CharString>
        <CharString name="V">
          39 54 callsubr
          26 -20 hstemhm
          461 109 hintmask 11010000
          457 666 rmoveto
          hintmask 10110000
          47 callgsubr
          -72 -226 -89 -129 vhcurveto
          -41 161 -77 235 -55 114 rrcurveto
          26 -13 -19 11 -23 hhcurveto
          -16 -24 -3 -36 -49 hvcurveto
          75 -74 124 -351 40 -203 rrcurveto
          -3 13 15 0 11 hhcurveto
          36 24 9 46 36 hvcurveto
          95 121 118 38 callgsubr
        </CharString>
        <CharString name="W">
          409 54 callsubr
          26 -20 hstemhm
          428 109 285 109 hintmask 10111000
          818 666 rmoveto
          hintmask 11011000
          45 callsubr
          -34 146 -60 206 -48 123 rrcurveto
          1 10 1 10 9 25 callgsubr
          45 callsubr
          -37 161 -68 230 -51 119 rrcurveto
          26 -11 -21 11 -23 hhcurveto
          hintmask 10111000
          -16 -24 -3 -36 -49 hvcurveto
          71 -74 117 -351 38 -203 58 callsubr
          54 72 61 137 40 130 47 -129 44 -153 21 -109 58 callsubr
          90 121 111 38 callgsubr
        </CharString>
        <CharString name="X">
          66 11 -21 683 -20 hstem
          21 44 rmoveto
          -36 49 -16 56 -2 vhcurveto
          24 84 75 110 67 86 53 -100 73 -106 26 -35 rrcurveto
          -27 19 25 -12 25 hhcurveto
          28 33 20 28 25 hvcurveto
          -58 41 -99 147 -83 124 rrcurveto
          87 83 106 128 56 vvcurveto
          38 -52 14 -54 3 vhcurveto
          -18 -78 -61 -105 -50 -66 -40 77 -67 106 -25 31 rrcurveto
          32 -26 -22 4 -15 hhcurveto
          -22 -16 -3 -46 -51 hvcurveto
          64 -53 84 -131 69 -97 rrcurveto
          -98 -99 -131 -141 -59 vvcurveto
          endchar
        </CharString>
        <CharString name="Y">
          -32 54 callsubr
          25 -20 hstemhm
          205 105 hintmask 10110000
          503 616 -77 callsubr
          hintmask 11010000
          -47 callgsubr
          endchar
        </CharString>
        <CharString name="Yacute">
          -32 54 callsubr
          274 -20 hstem
          205 105 vstem
          399 -90 callgsubr
          104 -203 -77 callsubr
          -47 callgsubr
          endchar
        </CharString>
        <CharString name="Ydieresis">
          -32 54 callsubr
          65 63 callgsubr
          99 145 -39 105 -21 145 hintmask 11110100
          503 616 -77 callsubr
          -47 callgsubr
          -142 96 rmoveto
          -64 callgsubr
          hvcurveto
          hintmask 11101000
          8 callsubr
          -190 hmoveto
          -58 callsubr
          endchar
        </CharString>
        <CharString name="Z">
          25 -6 73 524 76 hstem
          531 648 -79 callsubr
        </CharString>
        <CharString name="Zcaron">
          25 -6 73 524 76 228 -20 hstem
          158 850 -92 callsubr
          373 -202 -79 callsubr
        </CharString>
        <CharString name="a">
          -13 callsubr
          -42 callgsubr
          160 106 hintmask 11011000
          303 143 rmoveto
          -15 0 -16 2 -13 vhcurveto
          -21 -20 -36 -17 -31 hhcurveto
          -102 callgsubr
          hintmask 10111000
          28 callgsubr
          -23 callsubr
        </CharString>
        <CharString name="a_alt">
          6 callgsubr
          42 callsubr
          220 -75 callsubr
          endchar
        </CharString>
        <CharString name="aacute">
          -13 callsubr
          243 -39 callgsubr
          30 217 -87 106 hintmask 11011010
          367 -101 callsubr
          -64 -483 -43 callgsubr
          -99 63 -43 72 vhcurveto
          hintmask 10111010
          27 callsubr
          hvcurveto
          -57 callsubr
          28 callgsubr
          26 callsubr
          14 callsubr
          hintmask 11011100
          12 callgsubr
          endchar
        </CharString>
        <CharString name="aacute_alt">
          6 callgsubr
          243 -39 callgsubr
          60 217 -57 105 hintmask 11111000
          -103 callsubr
          hintmask 11110100
          3 callsubr
          4 callsubr
          128 562 -25 callgsubr
        </CharString>
        <CharString name="acircumflex">
          -61 -10 71 214 137 -81 154 41 callgsubr
          160 106 hintmask 11011110
          372 -99 callsubr
          hintmask 10101110
          -69 -421 58 callgsubr
          hintmask 11011110
          -97 callsubr
          -23 callsubr
        </CharString>
        <CharString name="acircumflex_alt">
          6 callgsubr
          41 callgsubr
          220 105 hintmask 10111100
          -95 callgsubr
          hintmask 11011100
          4 callsubr
          136 500 -33 callsubr
        </CharString>
        <CharString name="acute">
          -313 544 -21 205 -20 hstem
          51 217 vstem
          241 -101 callsubr
          endchar
        </CharString>
        <CharString name="adieresis">
          -13 callsubr
          35 142 -42 callgsubr
          -74 -8 callgsubr
          -101 101 hintmask 11010110
          73 callgsubr
          hintmask 11011010
          -1 callsubr
          hintmask 11010110
          -97 callsubr
          26 callsubr
          hintmask 11011001
          14 callsubr
          12 callgsubr
          28 245 rmoveto
          -64 callgsubr
          hvcurveto
          hintmask 10110101
          8 callsubr
          -36 callsubr
          hvcurveto
          hintmask 11011010
          8 callsubr
          endchar
        </CharString>
        <CharString name="adieresis_alt">
          6 callgsubr
          35 142 -42 callgsubr
          -37 -8 callgsubr
          -78 105 hintmask 11101100
          -104 callgsubr
          hintmask 11110010
          1 callsubr
          3 callsubr
          4 callsubr
          103 456 rmoveto
          -101 callgsubr
          endchar
        </CharString>
        <CharString name="ae">
          214 -10 72 269 70 callsubr
          -42 callgsubr
          160 107 191 109 hintmask 11011100
          218 61 rmoveto
          -38 -33 22 56 54 73 11 85 11 hvcurveto
          4 -39 6 -29 13 -27 rrcurveto
          -47 -42 -40 -12 -28 hhcurveto
          315 351 rmoveto
          42 30 -34 -37 hvcurveto
          hintmask 10111100
          -49 -41 -20 -56 -7 vhcurveto
          -24 callsubr
          -43 -215 rmoveto
          80 callsubr
          -55 -56 -18 -47 -44 hvcurveto
          51 -29 -50 14 -70 hhcurveto
          -50 callsubr
          hvcurveto
          -12 callsubr
          12 callgsubr
          -70 callsubr
          43 callgsubr
          70 64 40 48 47 vhcurveto
          -61 48 75 -27 69 9 callgsubr
          -1 23 25 -1 25 hhcurveto
          endchar
        </CharString>
        <CharString name="agrave">
          -13 callsubr
          237 -39 callgsubr
          -71 219 12 106 hintmask 11011010
          128 -85 callgsubr
          175 -579 -43 callgsubr
          hintmask 10111010
          43 callgsubr
          27 callsubr
          vhcurveto
          -57 callsubr
          28 callgsubr
          26 callsubr
          -73 callsubr
          hintmask 11010110
          -12 callsubr
          12 callgsubr
          endchar
        </CharString>
        <CharString name="agrave_alt">
          6 callgsubr
          237 -39 callgsubr
          -21 219 22 105 hintmask 11101100
          55 callgsubr
          3 callgsubr
          hintmask 11110100
          -105 callgsubr
          1 callsubr
          3 callsubr
          4 callsubr
          -91 658 -5 callsubr
        </CharString>
        <CharString name="ampersand">
          92 -10 72 545 66 hstemhm
          42 106 -69 96 145 97 hintmask 11011000
          320 524 rmoveto
          -57 -41 -36 -51 -34 vhcurveto
          -33 54 -20 48 28 vvcurveto
          45 18 35 58 50 19 -43 -40 vhcurveto
          -126 -239 rmoveto
          53 -73 59 -73 53 -54 rrcurveto
          -16 -24 -28 -7 -27 hhcurveto
          -77 -55 46 75 42 19 32 27 28 hvcurveto
          329 -46 rmoveto
          29 -10 30 -51 vhcurveto
          hintmask 11101000
          -14 -21 -6 -6 -12 hvcurveto
          9 -19 0 -22 -21 vvcurveto
          -21 -3 -18 -4 -17 vhcurveto
          -56 50 -54 62 -42 61 rrcurveto
          64 43 88 58 104 vvcurveto
          65 -53 62 -102 -104 -79 -59 -96 -29 5 -34 19 -32 vhcurveto
          14 -24 16 -26 18 -26 rrcurveto
          -58 -41 -51 -50 -87 vvcurveto
          -119 112 -60 112 52 54 14 29 45 vhcurveto
          -32 44 34 -11 21 hhcurveto
          67 22 28 28 12 -1 7 -1 6 hvcurveto
          hintmask 11011000
          -44 -29 15 25 -39 hvcurveto
          20 35 12 42 51 vvcurveto
          endchar
        </CharString>
        <CharString name="apple">
          277 20 -21 575 -20 119 -20 35 -20 hstemhm
          hintmask 11010000
          713 162 rmoveto
          -7 28 -27 32 -45 5 -42 5 -28 8 -34 10 -1 9 -1 20 -2 16 13 1 11 3 6 7 9 10 4 17 3 25 2 22 3 29 13 31 rrcurveto
          3 16 2 37 34 vvcurveto
          20 -1 20 -2 12 vhcurveto
          72 -16 -47 37 -82 hhcurveto
          -122 -69 -66 -110 -91 32 -66 58 -19 hvcurveto
          -1 -30 -3 -42 -1 -14 -20 -1 -30 -10 -25 -9 -27 -10 -26 -11 -28 -4 -45 -6 -29 -31 -5 -30 -8 -30 rcurveline
          -12 -49 -3 -15 -3 -38 rrcurveto
          -5 4 -2 3 vhcurveto
          149 hlineto
          3 4 3 4 3 -4 3 -3 hvcurveto
          -142 hlineto
          3 32 3 15 11 48 7 29 rcurveline
          6 23 21 25 41 6 21 3 26 10 28 11 rrcurveto
          12 32 31 11 24 hhcurveto
          1 1 0 2 2 hvcurveto
          2 3 5 94 4 vvcurveto
          5 -1 1 -5 2 vhcurveto
          -52 14 -32 64 86 vvcurveto
          hintmask 11100000
          102 66 59 112 75 43 -31 -66 12 vhcurveto
          3 -15 1 -26 -25 vvcurveto
          -28 -1 -27 -3 -10 vhcurveto
          -14 -28 -5 -90 -9 -11 rrcurveto
          -6 -6 -12 -1 -9 -40 -8 13 -10 hhcurveto
          -3 -4 -1 -5 -2 1 -4 2 -1 hvcurveto
          -7 14 21 -6 18 hhcurveto
          2 -16 1 -25 2 -12 1 -4 11 -2 3 -1 34 -11 23 -7 41 -4 41 -4 23 -27 5 -24 5 -22 rcurveline
          14 -61 4 -17 -47 vvcurveto
          -19 hlineto
          -5 -2 -2 -5 -5 3 -1 3 hvcurveto
          26 hlineto
          5 2 3 4 54 -3 16 -9 41 hvcurveto
          -3 15 -4 15 -4 15 rrcurveto
          -206 401 rmoveto
          -26 -22 13 -11 18 28 rlineto
          3 hmoveto
          18 -28 13 11 -26 22 rlineto
          -3 11 rmoveto
          5 31 rlineto
          -17 hlineto
          5 -31 rlineto
          -1 -2 rmoveto
          -28 15 -6 -15 31 -7 rlineto
          14 hmoveto
          32 7 -6 15 -28 -15 rlineto
          endchar
        </CharString>
        <CharString name="approxequal">
          73 76 0 76 43 76 0 76 hstemhm
          hintmask 10010000
          526 171 rmoveto
          hintmask 01100000
          -38 callgsubr
          195 vmoveto
          hintmask 10100000
          -38 callgsubr
          endchar
        </CharString>
        <CharString name="aring">
          -13 callsubr
          35 48 94 48 -42 callgsubr
          -16 57 74 57 -12 106 hintmask 1101110010000000
          262 610 -67 callgsubr
          77 -377 58 callgsubr
          hintmask 1011110010000000
          -97 callsubr
          vvcurveto
          hintmask 1101101100000000
          -23 callsubr
        </CharString>
        <CharString name="aring_alt">
          6 callgsubr
          35 48 94 48 42 callsubr
          24 57 74 57 8 -75 callsubr
          33 546 -67 callgsubr
          endchar
        </CharString>
        <CharString name="asciicircum">
          -51 429 -21 277 -20 hstem
          424 408 rmoveto
          15 12 8 15 16 hvcurveto
          -36 58 -138 148 -49 48 -49 -48 -139 -148 -35 -58 rrcurveto
          -17 17 10 -6 17 hhcurveto
          31 99 98 52 49 hvcurveto
          -38 36 107 -112 37 hhcurveto
          endchar
        </CharString>
        <CharString name="asciitilde">
          18 208 90 -76 -21 46 51 -51 90 7 -20 hstemhm
          hintmask 01101000
          34 269 rmoveto
          hintmask 10001000
          -21 17 -26 16 -21 vhcurveto
          34 34 39 12 33 79 72 -39 74 hhcurveto
          63 62 18 51 hvcurveto
          hintmask 01010000
          20 -16 27 -16 20 vhcurveto
          -33 -34 -25 -13 -34 -83 -51 39 -107 hhcurveto
          -65 -58 -17 -51 hvcurveto
          endchar
        </CharString>
        <CharString name="asterisk">
          -118 413 -21 272 -20 99 -20 hstem
          265 697 rmoveto
          34 -30 12 -32 -15 -17 -4 -5 -17 vhcurveto
          8 -38 7 -45 5 -31 rrcurveto
          24 -23 -36 20 -22 hhcurveto
          -37 -21 -40 -31 -5 hvcurveto
          43 -12 50 -19 36 -13 rrcurveto
          -59 -43 -30 -31 -19 vvcurveto
          -27 40 -25 34 -12 vhcurveto
          20 33 25 47 20 35 rrcurveto
          -57 30 24 -41 35 hhcurveto
          31 27 24 24 13 hvcurveto
          -32 24 -37 28 -40 37 rrcurveto
          40 10 83 24 40 vvcurveto
          19 -22 28 -22 19 vhcurveto
          -18 -18 -39 -29 -31 -22 rrcurveto
          9 36 5 36 8 vvcurveto
          endchar
        </CharString>
        <CharString name="at">
          316 -109 76 87 76 -61 61 239 74 77 70 hstemhm
          76 95 68 97 345 97 hintmask 11011111
          354 54 rmoveto
          50 44 31 61 35 hvcurveto
          -53 14 34 -24 39 hhcurveto
          89 119 115 153 144 -109 109 -180 -260 -153 -218 -192 -152 97 -137 217 111 88 35 53 26 -28 15 -30 10 hvcurveto
          -42 -20 -49 -21 -64 hhcurveto
          hintmask 10111111
          -158 -69 103 116 154 114 180 184 148 64 -81 -127 -118 -55 -62 -38 -20 -12 17 35 45 20 104 17 64 hvcurveto
          35 -51 -60 11 -49 hhcurveto
          -110 -84 -113 -134 -95 51 -47 64 hvcurveto
          hintmask 11011111
          107 146 rmoveto
          -47 -28 -27 -23 -25 hhcurveto
          -29 -16 40 51 90 37 58 50 20 18 -8 -17 18 hvcurveto
          -5 -31 -6 -69 -7 -44 rrcurveto
          endchar
        </CharString>
        <CharString name="atilde">
          -13 callsubr
          46 35 callsubr
          38 109 160 106 hintmask 11010111
          73 callgsubr
          hintmask 11001011
          -21 -20 -36 -17 -31 hhcurveto
          -97 callsubr
          26 callsubr
          -73 callsubr
          hintmask 11010111
          -12 callsubr
          12 callgsubr
          81 342 -96 callgsubr
          hhcurveto
          hintmask 10110111
          68 callsubr
        </CharString>
        <CharString name="atilde_alt">
          6 callgsubr
          46 35 callsubr
          38 109 220 105 hintmask 11101110
          55 callgsubr
          hintmask 11010110
          3 callgsubr
          -34 8 29 -12 28 hhcurveto
          21 22 6 5 13 hvcurveto
          -15 46 -5 79 79 vvcurveto
          hintmask 11101110
          -103 callgsubr
          1 callsubr
          3 callsubr
          4 callsubr
          158 553 -95 callsubr
        </CharString>
        <CharString name="b">
          -17 -28 callsubr
          97 callsubr
          67 101 212 109 vstem
          380 248 rmoveto
          -89 -29 -95 -78 -34 -37 13 35 -35 vhcurveto
          3 49 0 32 36 vvcurveto
          36 0 37 -1 60 vhcurveto
          29 29 43 21 36 hhcurveto
          54 49 -46 -118 hvcurveto
          -67 237 rmoveto
          -53 -44 -13 -39 -48 hvcurveto
          160 6 45 51 vvcurveto
          30 -19 24 -51 -21 -18 -1 -3 -14 vhcurveto
          9 -57 7 -317 -92 vvcurveto
          -90 -2 -81 -5 -42 vhcurveto
          -24 29 61 -46 114 hhcurveto
          153 72 124 137 164 -78 70 -98 hvcurveto
          endchar
        </CharString>
        <CharString name="backslash">
          91 callgsubr
          155 73 vstem
          155 -115 rmoveto
          -2 11 11 -1 11 hhcurveto
          21 19 5 23 7 -13 71 -82 518 hvcurveto
          -14 87 -10 79 -7 65 rrcurveto
          3 -9 -11 2 -11 hhcurveto
          -21 -20 -7 -21 -9 13 -72 81 -517 hvcurveto
          14 -88 12 -78 5 -65 rrcurveto
          endchar
        </CharString>
        <CharString name="bar">
          59 callsubr
          -9 rmoveto
          -57 -7 -125 -20 -22 callgsubr
          582 -25 callsubr
          -84 -40 vvcurveto
          endchar
        </CharString>
        <CharString name="braceleft">
          -106 79 callsubr
          171 98 -98 219 hintmask 11101000
          268 587 rmoveto
          39 2 15 57 42 21 9 33 vhcurveto
          hintmask 11110000
          7 -2 11 -6 12 vhcurveto
          1 -12 -25 1 -10 hhcurveto
          -133 -31 -41 -76 hvcurveto
          -205 vlineto
          -28 -31 -46 -81 vhcurveto
          -65 vlineto
          81 30 -45 -28 hvcurveto
          -206 vlineto
          -76 32 -41 133 10 25 1 1 12 vhcurveto
          6 12 2 11 6 vvcurveto
          34 -21 8 -42 -57 -1 16 39 vhcurveto
          197 vlineto
          38 -32 45 -33 20 vhcurveto
          33 20 31 47 38 vvcurveto
          endchar
        </CharString>
        <CharString name="braceright">
          -125 79 callsubr
          25 220 -99 99 hintmask 11101000
          147 391 rmoveto
          -38 31 -47 33 -20 vhcurveto
          -33 -20 -32 -45 -38 vvcurveto
          -197 vlineto
          -39 -1 -16 -57 -42 -21 -8 -34 -6 2 -11 6 -12 vhcurveto
          -1 12 25 -1 10 hhcurveto
          133 32 41 76 hvcurveto
          206 vlineto
          28 30 45 81 vhcurveto
          65 vlineto
          -81 -31 46 28 hvcurveto
          205 vlineto
          hintmask 11110000
          76 -31 41 -133 -10 -25 -1 -1 -12 vhcurveto
          -6 -12 -2 -11 -7 vvcurveto
          -33 21 -9 42 57 2 -15 -39 vhcurveto
          -196 vlineto
          endchar
        </CharString>
        <CharString name="bracketleft">
          -159 -190 73 764 73 hstemhm
          127 98 -98 219 hintmask 11100000
          hintmask 11010000
          225 648 rmoveto
          -1 22 23 0 16 hhcurveto
          39 21 9 33 7 -2 12 -6 12 hvcurveto
          -211 -910 212 hlineto
          hintmask 11100000
          5 14 2 10 7 vvcurveto
          27 -14 15 -46 -8 -24 0 -1 -29 vhcurveto
          endchar
        </CharString>
        <CharString name="bracketright">
          -185 -190 73 764 73 hstemhm
          25 219 -98 98 hintmask 11010000
          hintmask 11100000
          146 -118 rmoveto
          1 -29 -24 0 -8 hhcurveto
          -46 -14 -15 -27 -7 2 -10 5 -14 hvcurveto
          212 910 -211 hlineto
          hintmask 11010000
          -6 -12 -2 -12 -7 vvcurveto
          -33 21 -9 39 16 23 0 1 22 vhcurveto
          endchar
        </CharString>
        <CharString name="breve">
          -259 534 79 -79 166 hstemhm
          hintmask 10000000
          hintmask 01000000
          140 613 rmoveto
          -48 -19 32 55 -16 hvcurveto
          -50 -4 -7 -14 -20 vvcurveto
          -46 44 -82 96 96 44 82 46 vhcurveto
          hintmask 10000000
          20 -7 14 -50 4 vhcurveto
          -55 -16 -19 -32 -48 hhcurveto
          endchar
        </CharString>
        <CharString name="brokenbar">
          59 callsubr
          565 rmoveto
          -57 -7 -157 -20 -31 callgsubr
          -82 -41 vvcurveto
          -583 vmoveto
          -61 -7 -114 -18 -31 callgsubr
          -77 -48 vvcurveto
          endchar
        </CharString>
        <CharString name="bullet">
          -251 152 238 hstem
          21 246 vstem
          145 152 rmoveto
          66 56 47 71 68 -56 52 -66 -67 -57 -52 -68 -71 57 -47 67 hvcurveto
          endchar
        </CharString>
        <CharString name="c">
          -75 -10 72 348 75 hstem
          38 110 vstem
          283 62 rmoveto
          -56 callsubr
          69 -94 31 -63 -38 callsubr
          vhcurveto
          -35 callgsubr
          endchar
        </CharString>
        <CharString name="caron">
          -241 540 -21 183 -20 hstem
          22 657 -92 callsubr
          endchar
        </CharString>
        <CharString name="ccedilla">
          -75 -244 60 174 72 348 75 hstemhm
          38 110 -6 49 callgsubr
          hintmask 11110100
          283 62 rmoveto
          -56 callsubr
          69 -94 31 -63 -107 -129 -72 -180 -129 72 -72 83 -28 vhcurveto
          -15 -35 -4 -26 -5 vvcurveto
          hintmask 11110010
          -6 callsubr
          hintmask 11101000
          -8 callsubr
          11 4 12 vhcurveto
          -1 9 9 -1 10 -20 callsubr
          endchar
        </CharString>
        <CharString name="cedilla">
          -355 -244 60 216 -20 hstemhm
          25 49 callgsubr
          hintmask 11010000
          90 32 rmoveto
          -26 -48 -7 -40 -6 -6 callsubr
          hintmask 11001000
          -1 callgsubr
          vhcurveto
          hintmask 11100000
          16 callgsubr
          16 13 29 6 18 vhcurveto
          endchar
        </CharString>
        <CharString name="cent">
          5 -21 700 -20 hstemhm
          65 86 callsubr
          173 326 rmoveto
          hintmask 11110000
          95 43 65 58 16 vhcurveto
          -355 vlineto
          -60 25 -41 58 96 vvcurveto
          326 -171 rmoveto
          93 callgsubr
          -26 -18 -40 -1 rrcurveto
          375 vlineto
          hintmask 11101000
          33 -1 37 -21 32 -50 rrcurveto
          48 9 20 22 24 vvcurveto
          58 -108 29 -62 1 vhcurveto
          72 24 callgsubr
          1 -18 3 -37 1 -46 rrcurveto
          -110 -21 -99 -76 -155 vvcurveto
          -163 101 -75 108 -18 vhcurveto
          -61 vlineto
          -21 16 -6 24 vhcurveto
          hintmask 11110000
          82 callsubr
          hintmask 11101000
          -2 16 -2 27 -1 39 rrcurveto
          77 93 33 54 hvcurveto
          endchar
        </CharString>
        <CharString name="centoldstyle">
          -78 -21 668 -20 hstemhm
          50 86 callsubr
          259 64 rmoveto
          hintmask 11110000
          -61 23 -40 55 90 vvcurveto
          90 40 53 61 24 vhcurveto
          225 -9 rmoveto
          57 -98 28 -72 3 vhcurveto
          58 vlineto
          hintmask 11101000
          17 -3 16 -32 -5 -4 0 -3 -16 vhcurveto
          2 -26 2 -36 1 -31 rrcurveto
          hintmask 11110000
          -115 -20 -94 -76 -143 vvcurveto
          -149 96 -74 113 -20 vhcurveto
          hintmask 11101000
          -60 vlineto
          -26 16 -4 24 vhcurveto
          0 12 0 8 2 vhcurveto
          -2 23 -2 35 -1 26 rrcurveto
          67 1 103 28 58 vvcurveto
          93 callgsubr
          -30 -18 -36 -3 rrcurveto
          353 vlineto
          37 -3 34 -23 32 -48 rrcurveto
          48 10 19 22 23 vvcurveto
          endchar
        </CharString>
        <CharString name="ch">
          468 -10 72 348 75 206 52 hstem
          38 110 164 60 166 103 184 105 vstem
          829 -50 callgsubr
          -175 -94 -48 -107 -33 9 -38 18 -42 vhcurveto
          7 -22 -23 3 -20 -51 callsubr
          19 -7 12 -8 14 vhcurveto
          -30 50 -14 43 41 vvcurveto
          71 52 51 109 5 vhcurveto
          4 -48 1 -66 -163 -30 callgsubr
        </CharString>
        <CharString name="circumflex">
          -242 540 -21 183 -20 hstem
          291 -99 callsubr
          endchar
        </CharString>
        <CharString name="colon">
          -301 -10 153 189 153 hstem
          42 145 vstem
          115 332 31 callsubr
          -342 vmoveto
          -74 callgsubr
          endchar
        </CharString>
        <CharString name="comma">
          -296 -154 54 callgsubr
          44 46 callsubr
          103 -29 -94 callgsubr
          endchar
        </CharString>
        <CharString name="copyright">
          319 -34 57 73 73 309 73 66 57 hstem
          130 72 65 115 368 72 vstem
          750 320 rmoveto
          -182 -125 -115 -148 -151 -124 115 182 181 124 116 151 148 125 -116 -181 vhcurveto
          72 hmoveto
          204 -154 150 -191 -195 -152 -150 -204 -202 152 -152 195 191 154 152 202 vhcurveto
          -195 -159 rmoveto
          17 -13 20 -28 17 vhcurveto
          -31 -23 -35 -15 -30 hhcurveto
          -54 -62 39 122 90 42 58 52 30 37 -18 -45 12 hvcurveto
          52 7 21 17 25 vvcurveto
          62 -92 25 -53 -98 -118 -67 -165 -169 121 -54 101 74 64 30 35 vhcurveto
          endchar
        </CharString>
        <CharString name="ct">
          305 72 callsubr
          38 110 207 49 78 189 -105 105 hintmask 11011110
          531 474 rmoveto
          hintmask 11011101
          84 callsubr
          -71 callgsubr
          -91 43 -71 -81 -79 -48 -92 -16 3 -18 6 -18 vhcurveto
          13 -29 -34 6 -27 -51 callsubr
          12 -3 11 -5 10 vhcurveto
          hintmask 10111101
          -13 27 -6 25 21 vvcurveto
          70 53 41 43 26 30 -9 -23 4 vhcurveto
          2 66 callgsubr
          endchar
        </CharString>
        <CharString name="d">
          -10 -28 callsubr
          258 -20 42 callsubr
          208 104 vstem
          266 64 rmoveto
          -65 -54 75 114 94 47 65 77 30 24 -6 -15 30 hvcurveto
          -89 1 -102 1 -92 vhcurveto
          -26 -26 -37 -18 -28 hhcurveto
          -228 174 rmoveto
          -148 95 -100 105 39 47 18 31 37 vhcurveto
          -27 4 18 -15 40 hhcurveto
          24 21 6 4 10 hvcurveto
          -15 40 -4 78 99 216 9 166 83 vvcurveto
          34 -25 20 -44 -10 89 callsubr
          -28 vhcurveto
          9 -77 3 -123 -82 vvcurveto
          19 -34 -38 9 -36 hhcurveto
          -113 -98 -94 -153 hvcurveto
          endchar
        </CharString>
        <CharString name="dagger">
          -72 -89 -21 537 71 176 -20 hstemhm
          38 241 -109 109 -91 91 -91 108 -108 240 hintmask 11110000
          hintmask 11100010
          38 457 rmoveto
          -8 0 -9 5 -26 vhcurveto
          46 6 52 5 47 2 rrcurveto
          -2 -273 -16 -118 -57 vvcurveto
          -39 63 -50 0 vhcurveto
          0 63 49 40 vvcurveto
          hintmask 11101000
          61 -14 121 -3 265 vhcurveto
          28 32 -6 17 hhcurveto
          hintmask 11100010
          50 22 10 46 12 -4 19 -9 19 hvcurveto
          hintmask 11110000
          -59 -19 -37 -7 -40 -2 rrcurveto
          hintmask 11100001
          1 63 10 60 2 44 rrcurveto
          6 -26 -16 3 -16 hhcurveto
          hintmask 11100100
          -15 -17 -3 -6 -27 hvcurveto
          hintmask 11110000
          4 -44 8 -62 1 -60 rrcurveto
          1 -38 -24 10 -34 hhcurveto
          -42 -12 -26 -27 hvcurveto
          endchar
        </CharString>
        <CharString name="daggerdbl">
          -70 -89 -21 164 90 -78 78 276 79 175 -20 hstemhm
          40 239 -104 104 -91 91 -91 104 -104 241 hintmask 1101110000000000
          293 283 rmoveto
          -1 47 -12 47 -1 49 rrcurveto
          -1 31 27 -5 20 hhcurveto
          50 22 10 46 hvcurveto
          hintmask 1101100001000000
          12 -5 19 -9 19 vhcurveto
          -58 -19 -37 -7 -41 -2 1 63 9 47 3 57 rrcurveto
          6 -25 -17 3 -15 hhcurveto
          -15 -19 -3 -6 -26 hvcurveto
          6 -58 6 -48 1 -60 rrcurveto
          1 -48 -13 10 -34 hhcurveto
          hintmask 1101101000000000
          -42 -13 -26 -27 -8 0 -9 5 -26 hvcurveto
          53 8 38 2 55 3 rrcurveto
          hintmask 1101100010000000
          -2 -50 -12 -46 -48 -48 15 -47 -50 vvcurveto
          1 -31 -37 5 -10 hhcurveto
          -50 -22 -10 -46 -12 5 -19 9 -19 hvcurveto
          hintmask 1101101000000000
          58 19 37 7 41 2 rrcurveto
          hintmask 1101100100000000
          -2 -56 -10 -62 -1 -49 rrcurveto
          -6 25 17 -3 16 hhcurveto
          hintmask 1011101000000000
          14 18 3 6 26 hvcurveto
          hintmask 1011110000000000
          -5 65 -7 41 -1 60 rrcurveto
          39 23 -11 34 hhcurveto
          hintmask 1101110000000000
          42 12 26 27 8 0 9 -5 26 hvcurveto
          -47 -6 -43 -4 -55 -3 1 52 10 45 2 49 rrcurveto
          endchar
        </CharString>
        <CharString name="degree">
          -119 395 56 196 56 hstem
          48 72 160 73 vstem
          120 547 rmoveto
          55 28 45 55 51 26 -43 -53 -55 -28 -45 -53 -52 -27 43 53 vhcurveto
          -72 hmoveto
          -87 62 -65 89 91 63 66 91 85 -62 66 -87 -93 -63 -67 -89 vhcurveto
          endchar
        </CharString>
        <CharString name="dieresis">
          -266 520 142 hstem
          -26 -8 callgsubr
          vstem
          236 520 rmoveto
          -101 callgsubr
          endchar
        </CharString>
        <CharString name="divide">
          22 128 69 71 69 127 hstem
          193 122 vstem
          456 260 rmoveto
          12 0 10 -6 17 vhcurveto
          98 callgsubr
          -46 -80 -63 7 -21 27 callgsubr
          -7 0 -7 5 -25 hvcurveto
          5 54 62 5 97 46 71 -8 35 hhcurveto
          31 21 23 26 hvcurveto
          -201 99 rmoveto
          33 27 25 38 36 -27 28 -33 -34 -28 -28 -36 -38 28 -25 34 hvcurveto
          -337 vmoveto
          33 27 26 38 35 -27 29 -33 -34 -28 -29 -35 -38 28 -26 34 hvcurveto
          endchar
        </CharString>
        <CharString name="dollar">
          -57 -21 817 -20 hstemhm
          52 92 91 55 -55 238 -77 92 hintmask 11110100
          235 -51 rmoveto
          -21 16 -6 24 vhcurveto
          hintmask 11101000
          82 callsubr
          hintmask 11110100
          -2 14 -1 24 -1 31 rrcurveto
          104 11 93 57 145 vvcurveto
          127 -104 30 -94 26 vhcurveto
          205 vlineto
          49 -9 48 -33 18 -44 rrcurveto
          48 10 20 24 32 vvcurveto
          64 -105 33 -78 2 vhcurveto
          39 24 callgsubr
          2 -11 1 -26 1 -30 rrcurveto
          -102 -15 -80 -61 -107 vvcurveto
          -142 93 -40 90 -26 vhcurveto
          -208 vlineto
          -59 8 -60 35 -23 46 rrcurveto
          -32 -15 -26 -18 -35 vvcurveto
          -54 96 -44 104 -3 vhcurveto
          161 186 rmoveto
          -67 -48 -31 -58 -7 vhcurveto
          191 vlineto
          59 -16 47 -19 -51 vvcurveto
          -252 321 rmoveto
          59 40 30 51 8 vhcurveto
          -188 vlineto
          -52 17 -39 24 50 vvcurveto
          endchar
        </CharString>
        <CharString name="dollaroldstyle">
          -45 -21 648 -20 92 -20 hstemhm
          66 95 81 55 -55 223 -81 94 hintmask 11111010
          161 425 rmoveto
          55 35 24 46 4 vhcurveto
          -168 vlineto
          -50 16 -31 26 43 vvcurveto
          223 -269 rmoveto
          -58 -40 -37 -47 vhcurveto
          180 vlineto
          49 -14 38 -21 -50 vvcurveto
          -328 -80 rmoveto
          -52 101 -28 85 -4 vhcurveto
          -31 vlineto
          -21 16 -6 24 vhcurveto
          82 callsubr
          -1 12 -2 20 -1 25 rrcurveto
          114 11 66 65 105 vvcurveto
          101 -90 25 -91 25 vhcurveto
          181 vlineto
          54 -9 26 -27 12 -23 rrcurveto
          60 4 16 22 24 vvcurveto
          54 -89 31 -79 vhcurveto
          45 24 callgsubr
          2 -21 1 -19 1 -33 rrcurveto
          -100 -13 -75 -47 -95 vvcurveto
          hintmask 11110100
          -122 91 -26 85 -20 vhcurveto
          hintmask 11111010
          -190 vlineto
          -70 10 -30 31 -17 30 rrcurveto
          -37 -17 -32 -16 -27 vvcurveto
          endchar
        </CharString>
        <CharString name="dotaccent">
          -394 520 142 hstem
          0 145 vstem
          72 -30 callsubr
          endchar
        </CharString>
        <CharString name="dotlessi">
          -290 17 -21 482 -20 hstem
          73 104 vstem
          116 478 rmoveto
          -81 callgsubr
          endchar
        </CharString>
        <CharString name="e">
          52 callgsubr
          hstem
          38 84 callgsubr
          vstem
          223 197 rmoveto
          80 callsubr
          -115 -122 -78 -176 -169 130 -72 -10 callsubr
          hvcurveto
          -58 callgsubr
          0 callsubr
          112 8 55 38 56 hhcurveto
          endchar
        </CharString>
        <CharString name="eacute">
          52 callgsubr
          243 -39 callgsubr
          47 217 -73 95 callgsubr
          384 -101 callsubr
          -161 -429 rmoveto
          80 callsubr
          -115 -122 -78 -176 -169 130 -72 -10 callsubr
          hvcurveto
          -58 callgsubr
          0 callsubr
          hintmask 11111000
          -18 callgsubr
          endchar
        </CharString>
        <CharString name="ecircumflex">
          -54 -10 72 0 135 215 73 41 callgsubr
          191 109 hintmask 01101110
          408 -99 callsubr
          -185 -367 rmoveto
          2 callsubr
          hvcurveto
          hintmask 10101110
          55 callsubr
          -115 -122 -78 -176 -169 130 -72 -10 callsubr
          vhcurveto
          hintmask 01011110
          -58 callgsubr
          0 callsubr
          112 8 55 38 56 hhcurveto
          endchar
        </CharString>
        <CharString name="edieresis">
          52 callgsubr
          35 142 -42 callgsubr
          -37 145 45 147 -109 109 hintmask 11101100
          223 197 rmoveto
          80 callsubr
          -115 -122 -78 -176 -169 130 -72 -10 callsubr
          hvcurveto
          -58 callgsubr
          hintmask 11110010
          -24 callsubr
          106 108 rmoveto
          -101 callgsubr
          endchar
        </CharString>
        <CharString name="egrave">
          52 callgsubr
          237 -39 callgsubr
          -34 219 6 95 callgsubr
          165 -85 callgsubr
          58 -525 rmoveto
          80 callsubr
          -115 -122 -78 -176 -169 130 -72 -10 callsubr
          hvcurveto
          -58 callgsubr
          hintmask 11101100
          -24 callsubr
          endchar
        </CharString>
        <CharString name="eight">
          -11 75 535 75 hstemhm
          47 105 -79 79 -79 102 189 102 -81 81 -81 108 hintmask 11100001
          364 525 rmoveto
          hintmask 11010010
          -60 -25 -40 -57 -27 vhcurveto
          -66 31 -41 36 60 vvcurveto
          44 43 30 51 51 44 -30 -44 vhcurveto
          -95 -461 rmoveto
          -74 -43 56 56 hvcurveto
          hintmask 11100010
          76 30 36 64 39 vhcurveto
          93 -42 46 -34 -75 vvcurveto
          -56 -42 -56 -74 vhcurveto
          1 -75 rmoveto
          152 71 94 94 99 -60 59 -77 40 hvcurveto
          60 28 50 43 79 vvcurveto
          hintmask 11001100
          91 -93 58 -104 -104 -92 -58 -91 -79 46 -48 62 -39 vhcurveto
          -58 -28 -76 -55 -99 vvcurveto
          -94 71 -94 152 vhcurveto
          endchar
        </CharString>
        <CharString name="eightoldstyle">
          -27 -10 70 504 70 hstemhm
          39 101 -76 76 -76 100 182 100 -76 76 -76 103 hintmask 11100001
          hintmask 11010010
          164 493 rmoveto
          43 42 28 49 49 42 -28 -43 -56 -28 -35 -40 -23 vhcurveto
          -56 25 -58 25 64 vvcurveto
          91 -433 rmoveto
          hintmask 11100010
          -73 -42 54 55 73 41 37 53 26 hvcurveto
          73 -31 63 -26 -79 vvcurveto
          -55 -42 -54 -73 vhcurveto
          -216 101 rmoveto
          -86 69 -85 148 148 69 87 90 75 -40 66 -96 44 vhcurveto
          hintmask 11001100
          57 25 52 46 74 vvcurveto
          84 -90 53 -101 -101 -90 -53 -84 -82 51 -46 56 -33 vhcurveto
          -70 -35 -62 -33 -107 vvcurveto
          endchar
        </CharString>
        <CharString name="ellipsis">
          283 -10 153 hstem
          36 145 159 145 158 145 vstem
          413 -10 31 callsubr
          303 hmoveto
          -74 callgsubr
          -607 hmoveto
          -74 callgsubr
          endchar
        </CharString>
        <CharString name="emdash">
          318 228 51 callgsubr
          hintmask 01100000
          827 269 -7 callsubr
          -508 -48 callsubr
          497 10 callsubr
        </CharString>
        <CharString name="endash">
          56 228 51 callgsubr
          hintmask 01100000
          565 269 -7 callsubr
          -246 -48 callsubr
          235 10 callsubr
        </CharString>
        <CharString name="equal">
          121 71 -60 -21 206 71 9 -20 hstemhm
          hintmask 10010000
          476 162 rmoveto
          12 0 9 -6 18 vhcurveto
          98 callgsubr
          -47 44 callgsubr
          hintmask 10100000
          45 callgsubr
          196 vmoveto
          12 0 9 -6 18 vhcurveto
          hintmask 01100000
          98 callgsubr
          -47 hhcurveto
          hintmask 10100000
          44 callgsubr
          45 callgsubr
          endchar
        </CharString>
        <CharString name="eth">
          -10 60 365 70 247 -20 hstem
          38 97 260 98 vstem
          395 219 rmoveto
          -99 -46 -70 -84 -84 -46 88 107 100 46 70 84 82 48 -89 -107 vhcurveto
          -239 352 rmoveto
          -10 -8 -6 -9 -10 vvcurveto
          -17 11 -14 23 -11 vhcurveto
          33 24 24 19 44 31 45 -32 36 -45 22 -63 rrcurveto
          38 -35 -42 11 -46 hhcurveto
          -129 -88 -97 -151 -151 92 -96 135 136 92 96 150 170 -37 122 -119 91 hvcurveto
          16 11 19 12 21 15 rrcurveto
          12 8 5 10 11 vvcurveto
          16 -11 18 -18 12 vhcurveto
          -28 -24 -39 -28 -37 -26 rrcurveto
          28 -56 -74 16 -30 hhcurveto
          -21 -5 -18 -17 -7 1 -6 1 -6 hvcurveto
          42 -6 41 -11 39 -17 rrcurveto
          -34 -23 -25 -16 0 vvcurveto
          endchar
        </CharString>
        <CharString name="exclam">
          -231 -10 142 562 -20 hstemhm
          87 145 -127 94 -94 111 hintmask 11010000
          160 132 rmoveto
          -37 -36 -29 -42 -40 33 -31 38 39 35 31 40 42 -33 29 -39 hvcurveto
          56 507 rmoveto
          43 -28 12 -34 -20 -27 -4 -4 -22 vhcurveto
          hintmask 11001000
          22 -86 -5 -195 3 -135 rrcurveto
          -38 1 25 -12 31 hhcurveto
          hintmask 11100000
          15 19 5 8 18 hvcurveto
          -12 32 -3 29 91 vvcurveto
          102 15 65 2 87 vhcurveto
          endchar
        </CharString>
        <CharString name="exclamdown">
          -231 -198 -21 562 63 callgsubr
          76 145 -129 111 -94 94 hintmask 11001000
          148 21 callgsubr
          -56 -507 rmoveto
          -43 28 -12 34 20 27 4 4 22 vhcurveto
          hintmask 11010000
          -22 86 5 195 -3 135 rrcurveto
          38 -1 -25 12 -31 hhcurveto
          hintmask 11100000
          -15 -19 -5 -8 -18 hvcurveto
          12 -32 3 -29 -91 vvcurveto
          -102 -15 -65 -2 -87 vhcurveto
          endchar
        </CharString>
        <CharString name="f">
          -201 18 -21 404 73 167 75 36 callgsubr
          -103 236 hintmask 11101000
          hintmask 11110000
          188 508 rmoveto
          1 callgsubr
          hintmask 11101000
          -57 callgsubr
          4 callgsubr
          67 callgsubr
          -14 25 callsubr
          hintmask 11100100
          -36 callgsubr
          19 hhcurveto
          hintmask 11101000
          -49 callgsubr
          endchar
        </CharString>
        <CharString name="ff">
          106 18 -21 403 74 167 75 64 callgsubr
          hintmask 11110100
          96 callsubr
          -86 callgsubr
          hintmask 11110010
          198 vlineto
          46 8 85 callsubr
          hintmask 11110100
          32 1 18 8 36 vvcurveto
          10 -1 13 -4 9 vhcurveto
          hintmask 11101100
          -5 -44 -21 0 -63 hhcurveto
          34 vlineto
          1 callgsubr
          -57 callgsubr
          4 callgsubr
          67 callgsubr
          -205 34 hlineto
          1 callgsubr
          -57 callgsubr
          4 callgsubr
          56 callgsubr
          vhcurveto
          hintmask 11110100
          -17 callsubr
          hvcurveto
          50 callgsubr
          hintmask 11101100
          -73 callgsubr
          endchar
        </CharString>
        <CharString name="ffi">
          339 17 -21 22 -21 403 74 25 -21 101 137 -74 74 36 callgsubr
          205 104 204 104 hintmask 1011011011000000
          96 callsubr
          9 callsubr
          hintmask 1011101011000000
          88 callgsubr
          hintmask 1011100111000000
          2 -47 1 -52 -54 11 callgsubr
          hintmask 1011101011000000
          -93 callgsubr
          11 callsubr
          vhcurveto
          -195 33 hlineto
          74 callgsubr
          75 17 26 27 hvcurveto
          hintmask 0111100111000000
          88 callsubr
          -195 -1 vhcurveto
          -205 34 hlineto
          1 callgsubr
          -57 callgsubr
          -62 callsubr
          endchar
        </CharString>
        <CharString name="ffl">
          367 17 -21 22 -21 403 74 167 75 27 -20 64 callgsubr
          96 103 hintmask 1011110101000000
          hintmask 0111110101000000
          96 callsubr
          -49 callgsubr
          34 vlineto
          1 callgsubr
          -57 callgsubr
          4 callgsubr
          hintmask 1011110011000000
          67 callgsubr
          hintmask 1011110101000000
          -205 34 hlineto
          1 callgsubr
          -57 callgsubr
          hintmask 1011101101000000
          -62 callsubr
          580 342 -45 callgsubr
          vhcurveto
          hintmask 1011110101000000
          77 callgsubr
          hvcurveto
          -27 63 0 42 242 vvcurveto
          hintmask 0111101101000000
          23 callsubr
          endchar
        </CharString>
        <CharString name="fi">
          29 17 -21 404 74 25 -21 101 137 -74 74 hstemhm
          4 184 -104 104 204 104 hintmask 11110011
          84 474 rmoveto
          -13 25 callsubr
          hintmask 11110101
          -36 callgsubr
          18 hhcurveto
          9 callsubr
          88 callgsubr
          2 -47 1 -52 -54 -89 callgsubr
          11 callsubr
          vhcurveto
          -195 33 hlineto
          hintmask 11101011
          74 callgsubr
          hintmask 11110011
          75 17 26 27 88 callsubr
          -187 -1 hvcurveto
          endchar
        </CharString>
        <CharString name="five">
          -10 74 301 71 138 88 8 -20 hstemhm
          359 108 hintmask 11101000
          374 574 rmoveto
          49 27 15 39 9 -4 22 -6 11 hvcurveto
          -6 -32 -57 -2 -29 hhcurveto
          -56 -124 0 2 -31 hvcurveto
          -13 -241 0 -5 -10 vvcurveto
          -22 4 -20 6 -6 vhcurveto
          3 23 27 2 29 hhcurveto
          112 60 -73 -78 -73 -50 -77 -100 -53 -32 14 26 -20 hvcurveto
          -31 -6 -16 -18 -25 vvcurveto
          -35 53 -30 108 161 88 108 130 vhcurveto
          hintmask 11011000
          118 -70 90 -150 vhcurveto
          hintmask 11101000
          -22 -23 -2 -4 -25 hvcurveto
          14 150 rlineto
          -2 35 103 -4 45 hhcurveto
          endchar
        </CharString>
        <CharString name="fiveoldstyle">
          -85 -160 69 285 67 129 84 8 -20 hstemhm
          315 100 hintmask 11101000
          325 390 rmoveto
          48 26 14 38 8 -4 21 -6 11 hvcurveto
          -6 -31 -55 -2 -28 hhcurveto
          -55 -120 0 2 -30 hvcurveto
          -13 -228 0 -5 -8 vvcurveto
          -23 4 -17 6 -6 vhcurveto
          4 29 30 1 27 hhcurveto
          118 44 -69 -73 -82 -60 -61 -110 -35 -30 10 17 -16 hvcurveto
          -22 -7 -16 -15 -23 vvcurveto
          -27 40 -24 84 170 95 94 134 vhcurveto
          hintmask 11011000
          125 -76 68 -121 vhcurveto
          hintmask 11101000
          -20 -33 -1 -4 -24 hvcurveto
          13 140 rlineto
          -2 33 96 -4 42 hhcurveto
          endchar
        </CharString>
        <CharString name="fl">
          59 17 -21 22 -21 404 73 167 75 27 -20 36 callgsubr
          -103 236 96 103 hintmask 0111101010000000
          hintmask 0111110010000000
          460 -48 callgsubr
          -272 -235 rmoveto
          1 callgsubr
          -57 callgsubr
          4 callgsubr
          67 callgsubr
          -14 25 callsubr
          hintmask 0111101010000000
          -36 callgsubr
          19 hhcurveto
          hintmask 0111100110000000
          -68 callsubr
          hintmask 1011101010000000
          16 callsubr
          endchar
        </CharString>
        <CharString name="florin">
          -117 69 413 61 179 70 hstemhm
          134 170 -114 95 -95 248 -236 102 hintmask 11100100
          hintmask 11100010
          299 368 rmoveto
          -2 25 22 -1 25 hhcurveto
          39 28 4 38 7 -2 11 -7 14 hvcurveto
          -38 -6 -44 -4 -44 -3 1 20 rcurveline
          79 4 4 80 90 callsubr
          hintmask 11110000
          60 callsubr
          -120 -135 -10 vhcurveto
          -21 hlineto
          -32 -1 -15 -10 -21 vvcurveto
          -5 2 -8 4 -11 vhcurveto
          21 2 20 2 18 1 rrcurveto
          hintmask 11101000
          -18 -279 rlineto
          -89 -6 -8 -49 20 callsubr
          114 138 9 vhcurveto
          endchar
        </CharString>
        <CharString name="florinoldstyle">
          -117 69 371 55 168 70 hstem
          189 95 vstem
          298 325 rmoveto
          -2 21 25 0 26 hhcurveto
          39 28 3 35 6 -2 10 -7 13 hvcurveto
          -38 -5 -44 -4 -44 -3 1 19 rcurveline
          72 4 4 77 90 callsubr
          60 callsubr
          -110 -124 -10 vhcurveto
          -21 hlineto
          -32 -1 -15 -9 -20 vvcurveto
          -4 2 -8 4 -10 vhcurveto
          21 2 20 2 18 1 -18 -256 rcurveline
          -82 -6 -8 -45 20 callsubr
          104 126 9 vhcurveto
          endchar
        </CharString>
        <CharString name="four">
          11 -21 210 84 389 -20 hstemhm
          325 98 -98 204 hintmask 11101000
          329 546 rmoveto
          -1 -79 -1 -16 -170 vvcurveto
          -2 -31 -33 -1 -33 hhcurveto
          -29 -33 1 2 -29 hvcurveto
          59 93 76 105 55 67 rrcurveto
          -5 115 rmoveto
          -61 -54 -169 -228 -55 -95 rrcurveto
          -1 -8 -1 -15 -8 vvcurveto
          -24 7 -20 16 -2 vhcurveto
          -7 56 104 0 107 hhcurveto
          -1 -57 -1 -63 -33 vvcurveto
          36 callsubr
          20 20 3 5 14 vhcurveto
          -21 61 0 64 78 vvcurveto
          hintmask 11110000
          43 1 29 4 15 6 rrcurveto
          15 6 5 18 19 vvcurveto
          17 -4 18 79 callgsubr
          87 vlineto
          173 9 109 18 vvcurveto
          1 -12 -9 1 -17 hhcurveto
          -27 -27 -2 -10 -16 hvcurveto
          endchar
        </CharString>
        <CharString name="fouroldstyle">
          -33 -139 -21 211 79 355 -20 hstemhm
          280 95 -95 201 hintmask 11101000
          284 362 rmoveto
          -1 -64 -1 -22 -149 vvcurveto
          -2 -30 -32 -1 -32 hhcurveto
          -26 -28 1 1 -27 hvcurveto
          55 82 69 91 53 63 rrcurveto
          5 111 rmoveto
          -60 -48 -164 -203 -53 -84 rrcurveto
          -1 -8 -1 -14 -8 vvcurveto
          -26 6 -22 16 -2 vhcurveto
          -7 53 97 0 100 hhcurveto
          -1 -60 -1 -59 -35 vvcurveto
          -39 12 -18 54 20 14 3 5 15 vhcurveto
          19 callsubr
          60 81 vvcurveto
          hintmask 11110000
          42 1 28 3 15 6 rrcurveto
          15 5 5 18 19 vvcurveto
          18 -4 14 79 callgsubr
          80 vlineto
          157 9 101 15 vvcurveto
          1 -11 -4 1 -17 hhcurveto
          -24 -25 -2 -10 -14 hvcurveto
          endchar
        </CharString>
        <CharString name="fraction">
          -179 -86 -21 847 -20 hstem
          14 -107 -84 callgsubr
          endchar
        </CharString>
        <CharString name="g">
          3 -250 85 123 83 76 74 222 73 -73 90 hstemhm
          39 90 -90 108 -81 101 172 109 -109 186 -122 91 hintmask 1111010000100000
          254 117 rmoveto
          hintmask 1110101010000000
          101 93 67 117 41 -14 40 -16 26 hvcurveto
          9 21 21 5 22 hhcurveto
          hintmask 1110110001000000
          11 13 -2 -3 13 hvcurveto
          4 13 2 12 9 vvcurveto
          28 -14 24 -44 -38 -33 -25 -28 -22 vhcurveto
          23 -33 -45 13 -52 hhcurveto
          -119 -86 -80 -105 -78 35 -59 62 -27 hvcurveto
          -47 -40 -23 -51 -22 vvcurveto
          -21 15 -16 21 -12 vhcurveto
          -50 -34 -22 -35 -37 vvcurveto
          hintmask 1111010010000000
          -60 59 -59 142 140 123 69 108 92 -77 22 -76 vhcurveto
          -114 hlineto
          -26 -34 4 16 12 14 28 20 21 hvcurveto
          -3 16 18 -2 19 hhcurveto
          85 176 rmoveto
          -67 -24 -35 -72 -63 -33 54 64 vhcurveto
          hintmask 1111000100100000
          61 23 43 73 60 36 -55 -65 vhcurveto
          -4 -335 rmoveto
          42 26 -9 -35 -41 -50 -38 -115 -83 -26 22 30 26 13 23 19 26 hvcurveto
          -4 24 24 0 28 hhcurveto
          endchar
        </CharString>
        <CharString name="g_alt">
          -9 -253 74 169 -16 callgsubr
          42 callsubr
          217 100 vstem
          264 412 rmoveto
          36 41 -14 -31 30 hvcurveto
          -3 -71 -4 -105 -1 -82 rrcurveto
          -32 -29 -38 -13 -30 hhcurveto
          -65 -54 71 121 92 53 64 64 hvcurveto
          99 -382 rmoveto
          1 -35 0 -22 -27 vvcurveto
          -92 -46 -33 -90 -47 -52 9 41 -36 vhcurveto
          -25 -18 -7 -18 -17 vvcurveto
          -43 79 -28 86 169 69 82 112 218 9 192 6 65 vhcurveto
          47 -62 -85 22 -72 hhcurveto
          -122 -100 -91 -159 -143 97 -102 111 40 46 16 24 31 hvcurveto
          endchar
        </CharString>
        <CharString name="germandbls">
          -2 -10 71 542 71 hstemhm
          74 98 35 92 12 102 -16 102 hintmask 11111000
          172 488 rmoveto
          83 43 32 40 32 24 -22 -42 vhcurveto
          -95 -104 -5 -75 -123 190 -14 -107 vvcurveto
          -32 -21 -27 -24 -24 -29 22 48 -10 vhcurveto
          hintmask 11110100
          -40 -12 -35 -13 -30 vvcurveto
          -50 64 -36 67 88 66 70 72 vhcurveto
          138 -200 24 74 58 114 -8 140 vvcurveto
          76 -73 40 -79 -90 -97 -62 -151 vhcurveto
          hintmask 11111000
          -256 vlineto
          -49 0 -83 -19 -62 vhcurveto
          -9 19 21 -5 14 hhcurveto
          50 14 18 41 hvcurveto
          68 -1 35 40 vvcurveto
          endchar
        </CharString>
        <CharString name="grave">
          -311 544 -21 199 -20 hstem
          -43 219 vstem
          9 -85 callgsubr
          endchar
        </CharString>
        <CharString name="greater">
          39 -21 459 -20 hstem
          110 59 rmoveto
          -23 12 26 -18 27 hhcurveto
          14 13 4 8 9 hvcurveto
          220 223 -220 211 rlineto
          8 -9 -11 5 -16 hhcurveto
          -30 -25 -21 -20 -10 hvcurveto
          211 -183 rlineto
          endchar
        </CharString>
        <CharString name="greaterequal">
          9 78 -61 -21 481 -20 hstemhm
          hintmask 10100000
          100 58 rmoveto
          -27 17 -22 26 16 14 1 1 16 vhcurveto
          1 17 24 2 26 hhcurveto
          51 56 -4 -5 49 hvcurveto
          4 19 0 4 10 vvcurveto
          21 -11 28 -32 -9 -20 -1 -1 -20 vhcurveto
          -1 -23 -30 -1 -13 hhcurveto
          -47 -48 1 7 -58 hvcurveto
          -5 -15 0 -6 -12 vvcurveto
          106 413 rmoveto
          7 -8 -12 8 -11 hhcurveto
          -23 -24 -22 -27 -9 hvcurveto
          194 -136 rlineto
          hintmask 01100000
          -195 -133 rlineto
          -24 9 23 -26 25 hhcurveto
          hintmask 10100000
          10 13 9 6 8 hvcurveto
          67 55 82 61 67 53 rrcurveto
          endchar
        </CharString>
        <CharString name="guillemotleft">
          -18 -46 callsubr
          220 hmoveto
          -66 callsubr
          endchar
        </CharString>
        <CharString name="guillemotright">
          -18 58 76 callgsubr
          254 78 rmoveto
          -65 callgsubr
          -220 hmoveto
          -65 callgsubr
          endchar
        </CharString>
        <CharString name="guilsinglleft">
          -238 -46 callsubr
          endchar
        </CharString>
        <CharString name="guilsinglright">
          -238 58 76 callgsubr
          34 78 rmoveto
          -65 callgsubr
          endchar
        </CharString>
        <CharString name="h">
          -10 77 callsubr
          83 callsubr
          184 105 vstem
          351 -50 callgsubr
          26 callgsubr
          vhcurveto
          6 -59 3 -44 -221 -30 callgsubr
        </CharString>
        <CharString name="hungarumlaut">
          -118 544 -21 204 -20 hstem
          412 668 rmoveto
          -20 callgsubr
          -188 hmoveto
          -20 callgsubr
          endchar
        </CharString>
        <CharString name="hyphen">
          -279 228 51 callgsubr
          25 230 hintmask 01110000
          255 269 rmoveto
          10 0 9 -7 21 vhcurveto
          hintmask 10010000
          -8 -32 -30 -2 -26 hhcurveto
          hintmask 01110000
          -35 -30 4 -18 -9 callgsubr
          hintmask 10010000
          9 42 30 2 23 33 20 -5 25 33 callsubr
        </CharString>
        <CharString name="i">
          17 callsubr
          42 63 callgsubr
          49 145 -121 104 hintmask 11110000
          116 478 rmoveto
          hintmask 11101000
          -81 callgsubr
          5 42 23 callgsubr
        </CharString>
        <CharString name="iacute">
          17 callsubr
          250 -20 hstemhm
          45 217 -189 104 hintmask 11101000
          235 -101 callsubr
          -119 -148 rmoveto
          -44 callsubr
          11 callgsubr
          hintmask 11110000
          -93 callgsubr
          vhcurveto
          endchar
        </CharString>
        <CharString name="icircumflex">
          17 callsubr
          224 -20 hstem
          73 104 vstem
          268 -99 callsubr
          -152 -86 rmoveto
          -81 callgsubr
          endchar
        </CharString>
        <CharString name="idieresis">
          17 callsubr
          42 63 callgsubr
          -39 145 -33 104 -26 145 hintmask 11110100
          116 478 rmoveto
          -81 callgsubr
          107 42 rmoveto
          hintmask 11101000
          -101 callgsubr
          endchar
        </CharString>
        <CharString name="igrave">
          17 callsubr
          244 -20 hstemhm
          -6 219 -140 104 hintmask 11101000
          46 -85 callgsubr
          70 -244 rmoveto
          -44 callsubr
          vvcurveto
          hintmask 11110000
          -89 callgsubr
          vhcurveto
          endchar
        </CharString>
        <CharString name="infinity">
          203 111 69 165 70 hstem
          34 74 526 74 vstem
          634 266 rmoveto
          -50 -36 -36 -50 -35 -45 30 55 -51 vhcurveto
          32 33 50 48 49 hhcurveto
          46 39 -28 -51 hvcurveto
          -440 -86 rmoveto
          -49 -37 37 42 47 33 39 47 62 59 -63 -24 20 hvcurveto
          -36 -37 -46 -42 -52 hhcurveto
          -2 235 rmoveto
          -90 -68 -65 -88 -86 67 -65 87 77 58 49 47 47 hvcurveto
          -66 66 49 -30 62 hhcurveto
          82 79 54 99 87 -63 64 -87 -80 -53 -50 -50 -52 hvcurveto
          53 -50 -55 47 -76 hhcurveto
          endchar
        </CharString>
        <CharString name="integral">
          -209 -174 69 775 70 hstemhm
          -26 248 -115 115 -99 99 hintmask 11010000
          107 401 rmoveto
          -127 16 -140 -98 vvcurveto
          hintmask 11001000
          -62 -6 -79 -28 -11 -11 19 28 -11 vhcurveto
          -35 -3 -47 -20 -34 vvcurveto
          -34 31 -25 48 110 59 94 251 vhcurveto
          100 -8 153 121 vvcurveto
          hintmask 11100000
          62 4 63 22 12 10 -18 -28 11 vhcurveto
          35 2 47 21 33 vvcurveto
          hintmask 11010000
          34 -31 26 -48 -111 -58 -116 -223 vhcurveto
          endchar
        </CharString>
        <CharString name="j">
          -284 -252 74 678 -21 41 63 callgsubr
          59 145 -121 107 hintmask 11101000
          131 -30 callsubr
          -5 -41 rmoveto
          -11 -15 0 -5 -26 hvcurveto
          8 -64 1 -87 -91 vvcurveto
          hintmask 11110000
          -118 3 -97 -81 vvcurveto
          -84 -34 -30 -42 -36 -31 15 30 -26 vhcurveto
          -34 -26 -8 -20 -16 vvcurveto
          -34 59 -23 65 122 69 61 121 vhcurveto
          95 -4 130 36 116 11 56 63 vvcurveto
          43 -36 10 -35 vhcurveto
          endchar
        </CharString>
        <CharString name="j_alt">
          -290 -203 -21 724 -21 41 63 callgsubr
          -14 194 -128 145 -119 102 hintmask 11110000
          124 -30 callsubr
          -86 -744 rmoveto
          23 119 33 174 hvcurveto
          271 vlineto
          hintmask 11100100
          75 7 87 18 vvcurveto
          36 -29 9 -31 -12 -18 0 -5 -29 vhcurveto
          hintmask 11110000
          5 -59 4 -73 -80 vvcurveto
          hintmask 11101000
          -46 1 -62 -141 vvcurveto
          -105 -3 -41 -89 -20 vhcurveto
          -64 1 22 -7 29 hhcurveto
          endchar
        </CharString>
        <CharString name="k">
          -46 11 -21 422 73 83 callsubr
          171 106 vstem
          267 412 rmoveto
          45 22 -32 -35 -42 -33 -44 -62 -14 -10 0 6 -21 hvcurveto
          -3 -8 -4 -12 -12 vvcurveto
          -12 4 -10 13 -5 vhcurveto
          23 -52 40 -76 40 -46 rrcurveto
          -25 22 28 -17 28 hhcurveto
          44 41 14 32 10 -4 12 -7 16 hvcurveto
          -6 -19 -12 0 -8 hhcurveto
          -18 -10 8 20 -21 hvcurveto
          -25 25 -24 34 -23 40 rrcurveto
          93 16 48 73 71 vvcurveto
          68 -45 62 -98 -41 -46 -13 -33 -47 vhcurveto
          1 142 10 78 29 13 callgsubr
          26 callgsubr
          vhcurveto
          6 -59 3 -44 -221 -257 -5 -87 -32 15 callgsubr
          126 6 105 -4 134 rrcurveto
          26 34 38 19 33 hhcurveto
          endchar
        </CharString>
        <CharString name="l">
          -298 17 -21 747 -20 hstem
          60 103 vstem
          103 -48 callgsubr
          endchar
        </CharString>
        <CharString name="less">
          39 -21 459 -20 hstem
          415 436 rmoveto
          20 -9 -26 21 -29 hhcurveto
          -16 -11 -5 -8 -8 hvcurveto
          -221 -211 220 -223 rlineto
          -8 9 12 -4 15 hhcurveto
          26 27 18 23 11 hvcurveto
          -211 194 rlineto
          endchar
        </CharString>
        <CharString name="lessequal">
          14 69 -57 -21 481 -20 hstemhm
          hintmask 10100000
          422 58 rmoveto
          12 0 6 -5 15 vhcurveto
          -7 -58 -48 -1 -47 hhcurveto
          -13 -30 1 1 -23 hvcurveto
          1 -20 -20 1 -9 hhcurveto
          -32 -11 -28 -21 -10 0 -4 4 -19 hvcurveto
          5 49 56 4 51 hhcurveto
          26 24 -2 -1 17 hvcurveto
          -1 16 14 -1 16 hhcurveto
          26 17 22 27 hvcurveto
          -322 243 rmoveto
          212 -167 rlineto
          -6 8 17 -10 10 hhcurveto
          hintmask 01100000
          25 23 26 24 9 hvcurveto
          hintmask 10100000
          -16 12 -37 25 -34 22 -42 28 -44 31 -22 15 97 66 73 53 24 17 rrcurveto
          27 -9 -24 22 -23 hhcurveto
          -11 -12 -8 -7 -8 hvcurveto
          endchar
        </CharString>
        <CharString name="logicalnot">
          71 -21 216 66 hstem
          343 92 vstem
          434 332 rmoveto
          -359 hlineto
          -44 -14 -20 -24 -12 5 -14 7 -17 hvcurveto
          17 48 47 4 14 hhcurveto
          205 -27 hlineto
          -57 0 -64 -16 -54 vhcurveto
          -9 17 19 -5 14 hhcurveto
          49 10 18 40 hvcurveto
          endchar
        </CharString>
        <CharString name="lozenge">
          -29 21 -21 686 -20 hstem
          401 343 rmoveto
          -146 -273 -145 273 145 273 rlineto
          -225 -273 rmoveto
          174 -321 rlineto
          -18 10 20 -4 21 hhcurveto
          21 20 4 14 8 hvcurveto
          176 325 -174 322 rlineto
          16 -9 -21 5 -21 hhcurveto
          -20 -22 -4 -17 -9 hvcurveto
          endchar
        </CharString>
        <CharString name="lslash">
          -294 17 -21 747 -20 hstemhm
          -59 235 -103 103 -103 234 hintmask 11010000
          116 743 17 callgsubr
          hintmask 11100000
          7 -63 2 -47 -263 vvcurveto
          -117 -89 rlineto
          hintmask 11010000
          65 callgsubr
          30 27 27 22 32 27 rrcurveto
          -1 -72 -1 -58 -70 vvcurveto
          -55 13 -26 60 77 callgsubr
          vhcurveto
          hintmask 11001000
          -27 63 0 42 243 vvcurveto
          116 89 rlineto
          hintmask 11100000
          68 callgsubr
          -25 -23 -30 -25 -32 -26 rrcurveto
          3 147 8 71 23 13 callgsubr
          vhcurveto
          endchar
        </CharString>
        <CharString name="m">
          289 75 callsubr
          187 102 vstem
          51 467 rmoveto
          14 -38 5 -86 -95 -97 -5 -57 -56 -41 callgsubr
          31 33 callgsubr
          -146 -8 -64 -56 vvcurveto
          -32 30 -8 36 11 11 0 4 27 vhcurveto
          -5 54 -1 47 54 vvcurveto
          64 -1 73 -1 67 vhcurveto
          30 33 42 22 36 hhcurveto
          43 35 -32 -77 hvcurveto
          -51 -4 -110 -66 vvcurveto
          -65 22 -16 53 21 24 8 5 12 vhcurveto
          53 callgsubr
          55 3 106 15 vvcurveto
          115 -65 37 -73 -64 -56 -20 -44 -48 vhcurveto
          45 -23 -48 19 -49 hhcurveto
          95 callsubr
          hvcurveto
          45 -6 -27 4 -32 hhcurveto
          -11 -17 -2 -6 -20 hvcurveto
          endchar
        </CharString>
        <CharString name="macron">
          -239 557 66 -53 -21 80 -20 22 -20 hstemhm
          hintmask 01010000
          300 595 rmoveto
          7 0 9 -3 20 vhcurveto
          -5 -43 -45 -3 -63 hhcurveto
          hintmask 10000000
          -27 -59 6 -14 hhcurveto
          -32 -14 -17 -27 -9 0 -8 4 -19 hvcurveto
          hintmask 01100000
          7 49 53 1 15 hhcurveto
          hintmask 10000000
          20 hlineto
          43 37 -6 33 hhcurveto
          37 9 21 23 hvcurveto
          endchar
        </CharString>
        <CharString name="minus">
          217 51 callgsubr
          hintmask 01100000
          476 258 -7 callsubr
          -128 -48 callsubr
          117 10 callsubr
        </CharString>
        <CharString name="mu">
          -14 -231 -21 242 74 405 -20 hstemhm
          59 91 -91 106 187 103 hintmask 11110100
          61 134 rmoveto
          -1 -103 -1 -123 -101 24 callsubr
          -15 32 -19 86 77 vvcurveto
          hintmask 11101100
          19 1 17 3 17 vhcurveto
          -12 26 25 -4 14 hhcurveto
          51 57 27 30 33 hvcurveto
          -22 callsubr
          96 4 82 -60 callsubr
          -77 -77 callgsubr
          92 -60 callgsubr
          -51 -52 -53 -3 -98 -24 vvcurveto
          endchar
        </CharString>
        <CharString name="multiply">
          58 -21 433 -20 hstem
          413 470 rmoveto
          -32 -40 -83 -87 -31 -31 -91 100 -19 20 -7 7 rrcurveto
          9 -9 -13 4 -13 hhcurveto
          -33 -21 -27 -19 -12 hvcurveto
          38 -34 74 -70 49 -47 -32 -29 -86 -77 -16 -18 rrcurveto
          -11 -11 -4 -9 -8 vvcurveto
          -27 28 -19 30 -20 vhcurveto
          37 45 61 67 49 48 26 -25 70 -79 23 -23 rrcurveto
          -7 7 13 -4 14 hhcurveto
          32 24 24 21 11 hvcurveto
          -40 32 -100 96 -22 22 31 28 74 71 28 25 rrcurveto
          11 11 4 8 10 vvcurveto
          21 -33 28 -26 14 vhcurveto
          endchar
        </CharString>
        <CharString name="n">
          -7 75 callsubr
          vstem
          -53 callgsubr
          44 35 -32 -77 hvcurveto
          -64 -4 -67 -96 -14 callsubr
          55 3 93 28 51 callsubr
          95 callsubr
          vhcurveto
          endchar
        </CharString>
        <CharString name="nine">
          -10 76 196 75 261 75 hstem
          46 108 222 108 vstem
          262 337 rmoveto
          -61 -47 50 82 66 35 63 69 95 20 -101 -101 3 hvcurveto
          -41 -38 -41 -18 -35 hhcurveto
          4 336 rmoveto
          -140 -80 -113 -107 -119 84 -72 95 50 55 18 51 45 hvcurveto
          -137 -9 -79 -128 -136 hhcurveto
          -14 -14 1 3 -15 hvcurveto
          -2 -11 -3 -13 -12 vvcurveto
          -23 9 -21 35 218 119 202 196 142 -47 143 -171 vhcurveto
          endchar
        </CharString>
        <CharString name="nineoldstyle">
          -43 -160 71 156 69 279 70 hstem
          39 102 216 100 vstem
          249 485 rmoveto
          -140 -70 -119 -111 -97 47 -91 127 24 24 5 13 20 hvcurveto
          9 6 7 10 14 vvcurveto
          10 -3 12 -8 11 vhcurveto
          -8 -16 -15 -4 -17 hhcurveto
          -54 -43 44 93 71 31 71 71 88 26 -93 -106 -142 -76 -163 -160 -12 -14 2 2 -11 hvcurveto
          -5 -14 -2 -15 -13 vvcurveto
          -19 8 -14 35 218 119 210 185 134 -56 116 -152 vhcurveto
          endchar
        </CharString>
        <CharString name="notequal">
          -24 -21 166 71 117 79 99 callgsubr
          476 162 rmoveto
          13 0 11 -5 14 vhcurveto
          -6 -58 -82 -2 -75 hhcurveto
          26 45 17 33 25 45 rrcurveto
          -4 31 55 -2 15 hhcurveto
          29 22 22 27 13 -1 11 -5 15 hvcurveto
          -24 -3 -55 -4 -25 -1 rrcurveto
          56 104 15 18 17 vvcurveto
          17 -16 10 -30 4 vhcurveto
          -19 -47 -38 -61 -34 -63 rrcurveto
          -88 -60 7 -41 27 callgsubr
          -9 1 -10 4 -20 hvcurveto
          5 48 84 5 64 hhcurveto
          -68 -122 rlineto
          -19 -38 4 -24 hhcurveto
          -32 -20 -21 -27 -9 1 -11 4 -20 hvcurveto
          21 2 31 2 33 2 -56 -102 rcurveline
          -5 -9 -6 -12 -8 vvcurveto
          -19 19 -8 27 -4 vhcurveto
          18 44 33 53 38 69 rrcurveto
          103 53 -8 60 hhcurveto
          17 26 23 26 hvcurveto
          endchar
        </CharString>
        <CharString name="ntilde">
          0 77 callsubr
          14 -21 53 35 callsubr
          70 104 187 101 hintmask 11010111
          -53 callgsubr
          hintmask 11001011
          52 callsubr
          -64 -4 -67 -96 -10 callgsubr
          hintmask 10110111
          53 callgsubr
          55 3 93 28 51 callsubr
          95 callsubr
          vhcurveto
          253 188 -96 callsubr
          hintmask 11010111
          -15 callsubr
        </CharString>
        <CharString name="numbersign">
          28 242 -65 65 121 67 -67 232 hstemhm
          111 70 110 70 hintmask 10101100
          229 457 rmoveto
          5 24 16 97 7 vvcurveto
          28 -16 10 -23 -9 -11 -1 -3 -11 vhcurveto
          -2 -36 -9 -83 -4 -43 rrcurveto
          0 -44 1 -20 -59 -19 -17 -29 -7 2 -17 6 -21 vhcurveto
          49 15 40 5 37 2 -16 -117 rcurveline
          -65 hlineto
          -59 -20 -17 -30 hvcurveto
          hintmask 10011100
          -6 1 -17 6 -21 vhcurveto
          48 14 41 6 36 2 rrcurveto
          -7 -45 -11 -74 -17 vvcurveto
          hintmask 10101100
          -28 15 -11 20 12 13 4 7 13 vhcurveto
          -2 21 -1 22 22 vvcurveto
          22 7 57 2 22 vhcurveto
          119 hlineto
          -8 -47 -10 -74 -17 vvcurveto
          -24 13 -15 22 11 12 3 8 15 vhcurveto
          -2 17 -1 23 21 vvcurveto
          22 6 56 2 24 vhcurveto
          -2 22 54 -3 18 hhcurveto
          42 9 23 24 10 -1 16 -1 9 hvcurveto
          hintmask 01101100
          -37 -3 -50 -3 -46 -2 17 117 rcurveline
          -2 26 50 -3 20 hhcurveto
          hintmask 10011100
          41 9 22 29 8 -1 14 -2 9 hvcurveto
          -29 -2 -47 -3 -54 -1 rrcurveto
          5 26 16 88 12 vvcurveto
          28 -18 10 -23 -9 -10 -1 -3 -10 vhcurveto
          -2 -37 -10 -83 -4 -42 rrcurveto
          -145 -187 rmoveto
          19 121 rlineto
          118 hlineto
          -16 -121 rlineto
          endchar
        </CharString>
        <CharString name="o">
          1 -28 callsubr
          42 callsubr
          246 109 vstem
          -53 callsubr
          endchar
        </CharString>
        <CharString name="oacute">
          1 -28 callsubr
          243 -39 callgsubr
          65 217 -36 95 callgsubr
          402 -101 callsubr
          -9 -401 -71 callsubr
          hvcurveto
          hintmask 11111000
          5 callsubr
          vhcurveto
          endchar
        </CharString>
        <CharString name="ocircumflex">
          1 -28 callsubr
          41 callgsubr
          246 109 hintmask 11011100
          415 -99 callsubr
          -22 -339 -89 callsubr
          hvcurveto
          hintmask 10111100
          46 callgsubr
        </CharString>
        <CharString name="odieresis">
          1 -28 callsubr
          35 142 -42 callgsubr
          -39 -8 callgsubr
          -50 109 hintmask 11101100
          -53 callsubr
          101 530 80 callgsubr
          hintmask 11110010
          -93 callsubr
          -63 callsubr
          hvcurveto
          endchar
        </CharString>
        <CharString name="oe">
          300 96 callgsubr
          42 callsubr
          245 84 callgsubr
          vstem
          620 412 7 callsubr
          -351 hmoveto
          73 50 -72 -109 -109 -48 -58 -75 -29 callsubr
          hvcurveto
          235 -213 rmoveto
          0 callgsubr
          80 callsubr
          -66 -68 -26 -64 -46 hvcurveto
          61 -41 -63 29 -76 hhcurveto
          66 callsubr
          76 62 29 60 41 hvcurveto
          -65 48 72 -24 65 9 callgsubr
          endchar
        </CharString>
        <CharString name="ogonek">
          -91 -231 55 191 -20 hstemhm
          167 93 -93 208 hintmask 11010000
          311 15 rmoveto
          hintmask 11100000
          -84 -36 -60 -43 -73 vvcurveto
          -70 58 -24 55 53 42 23 28 10 -2 15 -32 20 vhcurveto
          -32 -20 -20 -9 -12 hhcurveto
          -16 -13 15 31 42 17 44 89 45 hvcurveto
          endchar
        </CharString>
        <CharString name="ograve">
          1 -28 callsubr
          237 -39 callgsubr
          -36 219 63 95 callgsubr
          163 -85 callgsubr
          230 -497 -89 callsubr
          hvcurveto
          hintmask 11101100
          46 callgsubr
        </CharString>
        <CharString name="one">
          0 71 -52 -21 675 -20 hstemhm
          114 223 -96 207 hintmask 10110000
          344 68 rmoveto
          -6 52 -1 43 132 152 8 145 34 vvcurveto
          hintmask 10101000
          37 -26 10 -18 -16 -81 -9 -8 -51 vhcurveto
          -29 -5 -10 -22 -27 vvcurveto
          -8 1 -9 2 -10 vhcurveto
          28 6 66 6 27 3 rrcurveto
          2 -74 1 -94 -84 vvcurveto
          hintmask 01101000
          -127 -2 -86 -54 vvcurveto
          -64 64 callsubr
          31 59 0 27 75 69 -2 26 74 callsubr
          -3 -22 -49 -1 -29 hhcurveto
          endchar
        </CharString>
        <CharString name="onehalf">
          448 -86 -21 108 66 153 64 40 128 -64 64 221 -20 87 69 callsubr
          572 91 hintmask 1111011101000000
          644 324 7 callgsubr
          10 callgsubr
          6 callsubr
          87 callsubr
          vhcurveto
          -400 -43 39 callsubr
          -32 callgsubr
          hintmask 1111011011000000
          8 callgsubr
          -39 callsubr
          hintmask 1110111101000000
          83 callgsubr
          hintmask 1111011101000000
          50 -388 -84 callgsubr
          endchar
        </CharString>
        <CharString name="oneoldstyle">
          -186 0 71 -52 -21 487 -20 hstemhm
          39 194 -94 189 hintmask 10110000
          240 68 rmoveto
          -6 37 -1 41 53 vvcurveto
          36 vlineto
          hintmask 10101000
          102 8 92 19 vvcurveto
          29 -30 8 -20 -15 -46 -9 -9 -53 vhcurveto
          -30 -5 -8 -20 -18 vvcurveto
          -11 3 -11 2 -9 vhcurveto
          28 6 35 4 29 4 rrcurveto
          hintmask 01101000
          2 -46 1 -56 -53 -84 -2 -61 -36 vvcurveto
          -39 64 callsubr
          34 31 0 30 79 43 -2 27 74 callsubr
          -2 -23 -27 -2 -34 hhcurveto
          endchar
        </CharString>
        <CharString name="onequarter">
          406 -86 -21 97 201 -69 69 29 64 389 -20 87 69 callsubr
          489 82 -82 158 hintmask 1011111010000000
          684 20 callgsubr
          -485 94 39 callsubr
          -23 callgsubr
          2 -42 1 -54 -48 vvcurveto
          hintmask 1101111010000000
          -76 -2 -69 -32 vvcurveto
          -41 hlineto
          hintmask 1101111001000000
          -29 callgsubr
          hintmask 1101111010000000
          32 callsubr
          83 callgsubr
          50 -388 -84 callgsubr
          437 548 -68 callgsubr
          hintmask 1101110101000000
          30 callsubr
          endchar
        </CharString>
        <CharString name="onesuperior">
          -157 220 64 -45 -21 455 69 callsubr
          hintmask 10110000
          244 281 39 callsubr
          hintmask 10101000
          -23 callgsubr
          hintmask 01110000
          -39 callsubr
          83 callgsubr
          endchar
        </CharString>
        <CharString name="ordfeminine">
          -231 250 51 -41 -21 127 48 143 86 hstemhm
          34 71 79 75 hintmask 10111100
          286 -49 callsubr
          -181 173 rmoveto
          23 32 8 44 9 vhcurveto
          -61 vlineto
          -13 -14 -15 -5 -15 hhcurveto
          -17 -15 12 27 hvcurveto
          41 190 rmoveto
          -54 -58 -20 -34 -14 16 -15 43 -3 hvcurveto
          hintmask 01111100
          24 4 27 13 14 hhcurveto
          hintmask 10111100
          38 8 -16 -51 hvcurveto
          -33 -38 -2 -6 -24 hvcurveto
          -33 -9 -31 -17 -42 vvcurveto
          -67 50 -18 43 25 26 6 20 23 vhcurveto
          -20 6 11 -2 20 hhcurveto
          17 18 6 2 6 hvcurveto
          -10 29 -1 36 32 14 1 18 40 vvcurveto
          74 -39 22 -75 vhcurveto
          endchar
        </CharString>
        <CharString name="ordmasculine">
          -197 250 51 -41 -21 127 50 177 50 hstemhm
          30 79 125 78 hintmask 10111100
          303 -49 callsubr
          -69 216 rmoveto
          -47 -22 -33 -42 -40 -21 42 54 48 21 33 40 41 23 -43 -54 vhcurveto
          -64 -130 rmoveto
          86 56 54 84 85 -56 54 -86 hvcurveto
          hintmask 01111100
          -84 -56 -54 -85 hvcurveto
          hintmask 10111100
          -84 56 -54 84 vhcurveto
          endchar
        </CharString>
        <CharString name="oslash">
          1 -66 -21 77 -16 callgsubr
          78 -20 42 callsubr
          246 109 vstem
          178 6 rmoveto
          -10 27 31 -6 33 hhcurveto
          140 93 97 151 88 -32 69 -54 42 hvcurveto
          25 45 29 callsubr
          -22 -40 rcurveline
          12 -29 -33 7 -36 hhcurveto
          -12 callgsubr
          -91 34 -71 57 -43 hvcurveto
          -19 -34 22 callgsubr
          -12 281 rmoveto
          96 44 65 78 22 19 -7 -12 17 vhcurveto
          -150 -272 rlineto
          -20 33 -10 46 51 vvcurveto
          246 -26 rmoveto
          -96 -44 -65 -80 -19 -17 5 9 -15 vhcurveto
          148 269 rlineto
          18 -33 9 -43 -46 vvcurveto
          endchar
        </CharString>
        <CharString name="otilde">
          1 -28 callsubr
          46 35 callsubr
          38 109 246 109 hintmask 11101110
          393 225 rmoveto
          hintmask 11010110
          -88 callgsubr
          hvcurveto
          hintmask 11101110
          151 -93 96 -140 66 callsubr
          vhcurveto
          152 627 -95 callsubr
        </CharString>
        <CharString name="p">
          -9 40 callsubr
          hstem
          70 102 211 109 vstem
          281 30 callgsubr
          84 -1 70 -1 123 vhcurveto
          25 30 44 19 35 hhcurveto
          -112 14 rmoveto
          43 -3 -33 9 -26 hhcurveto
          -22 -16 -3 -8 -18 hvcurveto
          17 -48 2 -94 -75 -112 -3 -188 -143 -26 callgsubr
          -52 -51 -22 -37 -46 hvcurveto
          endchar
        </CharString>
        <CharString name="paragraph">
          -22 -105 -21 626 72 3 -20 hstemhm
          38 221 62 92 -92 179 hintmask 11011000
          321 501 rmoveto
          -5 -149 -5 -197 -43 vvcurveto
          -99 -5 -92 -14 -38 vhcurveto
          -7 18 20 -2 19 hhcurveto
          56 8 27 31 hvcurveto
          hintmask 11010100
          80 -4 119 36 vvcurveto
          129 6 133 6 71 vhcurveto
          57 22 13 28 hvcurveto
          hintmask 10111000
          6 -3 15 -4 10 vhcurveto
          -1 -30 -43 0 -26 -40 -71 4 -52 hhcurveto
          -106 -87 -68 -119 -108 81 -70 90 17 33 0 25 86 3 118 6 65 hvcurveto
          -2 17 18 -1 18 hhcurveto
          endchar
        </CharString>
        <CharString name="parenleft">
          -187 -176 -21 928 -20 hstem
          76 104 vstem
          76 269 rmoveto
          -246 136 -220 54 19 15 9 21 15 vhcurveto
          -74 86 -61 168 182 vvcurveto
          156 52 183 83 93 vhcurveto
          21 -15 -15 9 -19 hhcurveto
          -56 -134 -228 -234 hvcurveto
          endchar
        </CharString>
        <CharString name="parenright">
          -198 -182 -21 934 -20 hstem
          160 104 vstem
          264 265 rmoveto
          246 -136 220 -54 -19 -15 -9 -21 -15 vhcurveto
          74 -86 61 -168 -182 vvcurveto
          -156 -52 -189 -83 -93 vhcurveto
          -21 15 15 -9 19 hhcurveto
          56 134 234 234 hvcurveto
          endchar
        </CharString>
        <CharString name="partialdiff">
          -13 -10 71 277 70 191 75 hstem
          42 103 230 100 vstem
          270 338 rmoveto
          27 44 -20 -22 33 hvcurveto
          -112 -9 -41 -123 -96 hhcurveto
          -59 -24 51 60 97 55 69 70 hvcurveto
          -69 261 rmoveto
          104 66 -86 -150 4 hvcurveto
          29 -38 -45 16 -41 hhcurveto
          -116 -93 -93 -129 -100 58 -96 128 179 68 175 159 210 -97 140 -219 -48 -25 -15 -29 -9 3 -18 15 -22 hvcurveto
          12 37 36 6 24 hhcurveto
          endchar
        </CharString>
        <CharString name="percent">
          280 -2 callgsubr
          hintmask 1101111111000000
          622 -10 -67 callsubr
          -294 -466 rcurveline
          -6 -9 -2 -8 -7 vvcurveto
          -25 34 -9 38 -6 vhcurveto
          -39 359 rmoveto
          hintmask 1110111111000000
          -91 callgsubr
          endchar
        </CharString>
        <CharString name="percentoldstyle">
          314 -3 callsubr
          hintmask 1101111111000000
          -24 callgsubr
          hvcurveto
          hintmask 1110111111000000
          40 callgsubr
          -3 -54 callsubr
          hintmask 1101111111000000
          -14 callgsubr
          vhcurveto
          hintmask 1110111111000000
          40 18 -53 -45 hvcurveto
          endchar
        </CharString>
        <CharString name="period">
          -301 -10 142 hstem
          42 145 vstem
          114 -10 23 callgsubr
        </CharString>
        <CharString name="periodcentered">
          -326 185 153 hstem
          34 145 vstem
          107 185 31 callsubr
          endchar
        </CharString>
        <CharString name="perthousand">
          658 -2 callgsubr
          67 95 119 97 hintmask 1101111111110000
          1000 -10 rmoveto
          -91 callgsubr
          -436 -163 -67 callsubr
          rrcurveto
          hintmask 1110111111110000
          -294 -466 rlineto
          -6 -9 -2 -8 -7 vvcurveto
          -25 34 -9 38 -6 vhcurveto
          -39 359 rmoveto
          -91 callgsubr
          endchar
        </CharString>
        <CharString name="perthousandoldstyle">
          670 -3 callsubr
          57 90 118 92 hintmask 1101111111110000
          -24 callgsubr
          40 callgsubr
          357 hmoveto
          48 callsubr
          hvcurveto
          hintmask 1110111111110000
          40 callgsubr
          -360 -54 callsubr
          hintmask 1101111111110000
          -14 callgsubr
          40 18 -53 -45 vhcurveto
          357 hmoveto
          15 callsubr
          vhcurveto
          hintmask 1110111111110000
          40 18 -53 -45 hvcurveto
          endchar
        </CharString>
        <CharString name="pi">
          -9 18 -21 407 65 22 -20 hstemhm
          113 90 104 98 -98 206 hintmask 11111000
          8 423 rmoveto
          -7 4 -14 11 -23 vhcurveto
          32 14 26 6 25 3 rrcurveto
          2 -65 5 -66 -98 vvcurveto
          hintmask 11110100
          -63 0 -55 -20 -44 vhcurveto
          -9 18 18 -5 15 hhcurveto
          46 13 18 41 hvcurveto
          21 -2 112 57 vvcurveto
          158 107 vlineto
          -1 -42 0 -56 -60 -57 -2 -117 -16 vvcurveto
          -41 15 -18 50 15 21 5 9 19 vhcurveto
          -20 44 0 55 33 vvcurveto
          30 vlineto
          98 4 89 2 42 vhcurveto
          34 hlineto
          47 21 11 37 8 -2 17 -9 16 hvcurveto
          -22 -58 -56 0 -30 -150 -83 2 -49 hhcurveto
          -64 -4 -25 -23 hvcurveto
          endchar
        </CharString>
        <CharString name="plus">
          43 -21 197 78 184 -20 hstem
          222 89 vstem
          261 481 rmoveto
          -13 -13 0 -7 -21 hvcurveto
          6 -52 3 -101 -31 vvcurveto
          -56 -32 7 -46 60 callgsubr
          72 4 62 1 rrcurveto
          -60 -7 -43 -50 vvcurveto
          -31 31 -13 27 8 10 0 6 29 vhcurveto
          -6 59 -3 65 66 vvcurveto
          -1 35 65 -6 35 hhcurveto
          31 21 23 26 12 0 10 -6 17 hvcurveto
          -7 -53 -90 -3 -37 hhcurveto
          36 7 73 40 vvcurveto
          26 -26 17 -32 vhcurveto
          endchar
        </CharString>
        <CharString name="plusminus">
          14 71 -60 -21 116 216 -78 78 -78 228 hstemhm
          222 89 hintmask 10001100
          hintmask 10010100
          469 55 rmoveto
          11 0 10 -6 18 vhcurveto
          98 callgsubr
          -46 -76 -63 7 -25 27 callgsubr
          hvcurveto
          hintmask 10100100
          -7 0 -8 5 -24 vhcurveto
          5 54 62 5 97 41 73 -8 38 hhcurveto
          31 21 22 27 hvcurveto
          -207 431 rmoveto
          -14 -13 0 -7 -20 hvcurveto
          hintmask 10001100
          7 -54 1 -77 -19 vvcurveto
          hintmask 01100100
          -58 -21 7 -45 60 callgsubr
          63 4 61 1 rrcurveto
          -61 -6 -6 -28 vvcurveto
          -30 30 -13 27 vhcurveto
          hintmask 10100100
          8 10 0 6 29 hvcurveto
          -5 35 -4 29 67 vvcurveto
          -1 38 51 -6 37 hhcurveto
          31 20 23 26 12 0 10 -5 17 hvcurveto
          -7 -53 -82 -3 -36 hhcurveto
          40 7 37 38 vvcurveto
          26 -26 17 -31 vhcurveto
          endchar
        </CharString>
        <CharString name="product">
          159 18 -21 590 76 2 -20 25 -20 hstemhm
          156 97 180 107 hintmask 10011100
          694 629 rmoveto
          6 0 12 -4 23 vhcurveto
          -4 -64 -94 -3 -84 hhcurveto
          -186 hlineto
          -83 -45 2 -45 hhcurveto
          -50 -22 -8 -38 -12 5 -20 9 -16 hvcurveto
          38 8 30 6 49 2 rrcurveto
          4 -56 4 -63 -87 vvcurveto
          -175 vlineto
          -63 0 -71 -19 -61 vhcurveto
          -9 18 24 -5 16 hhcurveto
          49 11 21 43 hvcurveto
          20 -2 96 57 vvcurveto
          354 vlineto
          1 47 43 0 90 hhcurveto
          -355 vlineto
          hintmask 11001100
          -57 -2 -96 -20 vvcurveto
          -43 12 -21 53 17 27 5 9 19 vhcurveto
          hintmask 10101100
          -19 61 0 71 63 vvcurveto
          175 vlineto
          hintmask 11001100
          84 4 63 4 58 vhcurveto
          24 56 -3 13 hhcurveto
          42 11 22 24 hvcurveto
          endchar
        </CharString>
        <CharString name="q">
          -2 40 callsubr
          42 callsubr
          214 105 vstem
          264 412 rmoveto
          36 41 -14 -31 30 hvcurveto
          -3 -71 -4 -105 -1 -82 rrcurveto
          -32 -29 -38 -13 -30 hhcurveto
          -65 -54 71 121 92 53 64 64 hvcurveto
          -22 -422 rmoveto
          38 45 11 30 38 hvcurveto
          -2 -83 0 -44 -103 vvcurveto
          -28 9 -25 60 22 19 4 5 15 vhcurveto
          -16 39 -4 126 101 vvcurveto
          158 7 173 6 62 -86 callsubr
          endchar
        </CharString>
        <CharString name="question">
          -140 -10 142 482 70 hstemhm
          127 104 -104 138 11 106 hintmask 11101000
          192 -10 rmoveto
          -58 callsubr
          -65 285 rmoveto
          -35 14 -31 47 12 17 2 15 25 vhcurveto
          hintmask 11011000
          -7 21 -4 17 17 vvcurveto
          44 32 30 29 27 vhcurveto
          42 38 48 45 82 vvcurveto
          92 -85 45 -101 -84 -78 -34 -59 -27 21 -17 54 -9 vhcurveto
          48 13 47 28 41 hhcurveto
          38 28 -21 -45 -59 -36 -38 -36 -38 hvcurveto
          -39 -41 -38 -39 -58 vvcurveto
          endchar
        </CharString>
        <CharString name="questiondown">
          -162 -220 70 493 63 callgsubr
          17 106 11 138 -104 104 hintmask 11101000
          206 21 callgsubr
          66 -154 rmoveto
          hintmask 11110000
          35 -14 31 -47 -12 -17 -2 -15 -25 vhcurveto
          7 -21 4 -17 -17 vvcurveto
          -44 -32 -30 -29 -27 vhcurveto
          -42 -38 -48 -45 -82 vvcurveto
          -92 85 -45 101 84 78 34 59 27 -21 17 -54 9 vhcurveto
          -48 -13 -47 -28 -41 hhcurveto
          -38 -28 21 45 59 36 38 36 38 hvcurveto
          39 41 38 39 58 vvcurveto
          endchar
        </CharString>
        <CharString name="quotedbl">
          -144 492 -21 265 -20 hstemhm
          42 121 -107 107 77 121 -107 107 hintmask 11101000
          hintmask 11011000
          240 695 rmoveto
          -33 callgsubr
          hintmask 11100100
          -198 hmoveto
          -33 callgsubr
          endchar
        </CharString>
        <CharString name="quotedblbase">
          -84 -154 54 callgsubr
          43 56 callsubr
          70 56 callsubr
          hintmask 11101000
          hintmask 11010100
          322 -29 -94 callgsubr
          hintmask 11101000
          -220 -43 callsubr
        </CharString>
        <CharString name="quotedblleft">
          -87 485 -21 221 53 hstemhm
          25 91 -91 150 72 91 -91 150 hintmask 11100100
          hintmask 11101000
          116 -42 callsubr
          hintmask 11011000
          222 hmoveto
          35 30 37 44 vhcurveto
          hintmask 11101000
          -62 callgsubr
          endchar
        </CharString>
        <CharString name="quotedblright">
          -44 466 54 callgsubr
          63 56 callsubr
          72 56 callsubr
          hintmask 11101000
          hintmask 11010100
          344 591 -94 callgsubr
          hintmask 11101000
          -222 -43 callsubr
        </CharString>
        <CharString name="quoteleft">
          -333 485 -21 221 53 hstemhm
          17 91 -91 150 hintmask 11010000
          hintmask 11100000
          108 -42 callsubr
          endchar
        </CharString>
        <CharString name="quoteright">
          -266 466 54 callgsubr
          63 46 callsubr
          122 591 -94 callgsubr
          endchar
        </CharString>
        <CharString name="quotesinglbase">
          -304 -154 54 callgsubr
          43 46 callsubr
          102 -29 -94 callgsubr
          endchar
        </CharString>
        <CharString name="quotesingle">
          -278 492 -21 265 -20 hstemhm
          50 121 -107 107 hintmask 11100000
          hintmask 11010000
          50 695 rmoveto
          -55 callsubr
          hintmask 11100000
          41 callsubr
          endchar
        </CharString>
        <CharString name="r">
          -181 17 -21 392 97 hstem
          60 103 vstem
          103 478 rmoveto
          -12 -17 -1 -4 -23 hvcurveto
          8 -66 1 -88 -87 -57 -2 -68 -31 vvcurveto
          -53 13 -27 60 18 22 4 9 19 vhcurveto
          -27 63 0 69 62 vvcurveto
          49 1 38 2 43 vhcurveto
          32 24 36 23 32 hhcurveto
          13 18 -4 -14 16 hvcurveto
          23 29 13 25 19 vvcurveto
          24 -18 18 -40 -42 -45 -40 -33 -26 vhcurveto
          12 vlineto
          37 -19 17 -48 vhcurveto
          endchar
        </CharString>
        <CharString name="radical">
          22 -10 -21 769 -20 hstem
          175 490 rmoveto
          -48 -12 -66 -31 -23 -15 rrcurveto
          -9 -6 -4 -7 -7 vvcurveto
          -11 7 -12 15 -11 vhcurveto
          13 10 27 15 18 9 206 -443 rcurveline
          19 hlineto
          33 19 7 32 6 hvcurveto
          116 588 21 105 7 vvcurveto
          23 -20 7 -27 -7 -7 0 -3 -20 vhcurveto
          -111 -586 rlineto
          endchar
        </CharString>
        <CharString name="registered">
          46 207 50 61 248 57 50 hstem
          85 59 73 73 59 72 62 59 vstem
          483 440 rmoveto
          -112 -77 -71 -92 -93 -77 71 112 112 77 71 93 92 77 -71 -112 vhcurveto
          59 hmoveto
          134 -103 99 -125 -129 -100 -99 -134 -133 100 -100 129 125 103 100 133 vhcurveto
          -232 11 rmoveto
          -3 -13 0 1 -4 hvcurveto
          77 13 vlineto
          24 22 -16 -25 -28 -19 -9 -20 hvcurveto
          115 -95 rmoveto
          -9 -5 0 4 -4 hvcurveto
          -8 9 -29 31 -9 18 rrcurveto
          38 12 22 22 36 vvcurveto
          62 -52 16 -60 -18 -54 -4 -2 -25 vhcurveto
          4 -27 1 -30 -29 vvcurveto
          -67 vlineto
          -17 -2 -24 -18 vvcurveto
          -20 11 -10 36 15 7 2 8 15 vhcurveto
          -9 26 0 21 21 vvcurveto
          23 vlineto
          19 -34 28 -32 18 -19 rrcurveto
          -13 11 15 -5 14 hhcurveto
          18 16 9 15 6 -1 4 -3 6 hvcurveto
          endchar
        </CharString>
        <CharString name="ring">
          -382 520 33 112 33 hstem
          -10 42 92 42 vstem
          79 520 rmoveto
          52 35 35 54 54 -35 35 -52 -53 -36 -35 -54 -54 36 -35 53 hvcurveto
          45 84 rmoveto
          -31 -16 -20 -29 -30 -17 26 34 32 17 20 30 28 17 -26 -35 vhcurveto
          endchar
        </CharString>
        <CharString name="s">
          -102 -10 79 337 79 -70 callgsubr
          endchar
        </CharString>
        <CharString name="scaron">
          -102 -10 79 337 79 217 -20 -70 callgsubr
          -237 316 -92 callsubr
          endchar
        </CharString>
        <CharString name="section">
          -83 -78 71 609 71 hstemhm
          48 92 -70 91 139 94 -72 92 hintmask 11101000
          140 351 rmoveto
          13 1 12 3 9 vhcurveto
          56 -46 122 -5 -89 vvcurveto
          -15 -1 -10 -3 -9 vhcurveto
          -53 39 -125 22 79 vvcurveto
          -92 -18 rmoveto
          -177 252 47 -141 vvcurveto
          -51 -33 -18 -38 -65 -39 27 42 -14 vhcurveto
          -38 -12 -35 -13 -29 vvcurveto
          hintmask 11010100
          -50 83 -36 87 123 63 72 78 29 -6 31 -26 32 vhcurveto
          37 30 15 32 37 175 -253 -39 143 vvcurveto
          43 32 17 33 39 46 -25 -42 16 vhcurveto
          52 13 21 17 23 vvcurveto
          hintmask 11100100
          59 -94 26 -56 -108 -72 -59 -86 -27 9 -43 22 -26 vhcurveto
          -34 -20 -19 -37 -42 vvcurveto
          endchar
        </CharString>
        <CharString name="semicolon">
          -280 -154 53 433 153 hstemhm
          48 145 -90 90 hintmask 11100000
          103 -29 rmoveto
          12 callsubr
          -40 callgsubr
          hintmask 11010000
          -98 callsubr
          18 361 31 callsubr
          endchar
        </CharString>
        <CharString name="seven">
          11 -21 584 88 8 -20 hstemhm
          hintmask 11000000
          59 32 rmoveto
          -27 24 29 -15 24 hhcurveto
          hintmask 10100000
          30 25 22 47 26 hvcurveto
          76 137 165 314 26 37 callgsubr
          -53 -27 0 -232 hhcurveto
          -25 -46 1 7 -44 hvcurveto
          -4 -10 -6 -16 -16 vvcurveto
          -31 17 -23 59 47 139 2 2 72 vhcurveto
          -55 -142 -147 -281 -118 -123 rrcurveto
          endchar
        </CharString>
        <CharString name="sevenoldstyle">
          -112 -139 -21 550 84 8 -20 hstemhm
          hintmask 11000000
          14 -121 rmoveto
          -16 16 32 -23 30 hhcurveto
          hintmask 10100000
          37 23 24 45 23 hvcurveto
          70 135 137 278 24 37 callgsubr
          -55 -33 0 -203 hhcurveto
          -25 -48 1 7 -45 hvcurveto
          -4 -8 -6 -13 -13 vvcurveto
          -33 17 -25 60 47 128 2 2 66 vhcurveto
          -52 -156 -119 -234 -118 -125 rrcurveto
          endchar
        </CharString>
        <CharString name="six">
          -10 75 261 75 196 76 hstem
          54 108 222 108 vstem
          276 326 rmoveto
          61 47 -50 -82 -66 -35 -63 -69 -95 -20 101 101 -3 hvcurveto
          41 38 41 18 35 hhcurveto
          -4 -336 rmoveto
          140 80 113 107 119 -84 72 -95 -50 -55 -18 -51 -45 hvcurveto
          137 9 79 128 136 hhcurveto
          14 14 -1 -3 15 hvcurveto
          2 11 3 13 12 vvcurveto
          23 -9 21 -35 -218 -119 -202 -196 -142 47 -143 171 vhcurveto
          endchar
        </CharString>
        <CharString name="sixoldstyle">
          -43 -10 70 279 69 156 71 hstem
          39 100 216 102 vstem
          247 -10 rmoveto
          140 70 119 111 97 -47 91 -127 -24 -24 -5 -13 -20 hvcurveto
          -9 -6 -7 -10 -14 vvcurveto
          -10 3 -12 8 -11 vhcurveto
          8 16 15 4 17 hhcurveto
          54 43 -44 -93 -71 -31 -71 -71 -88 -26 93 106 142 76 163 160 12 14 -2 -2 11 hvcurveto
          5 14 2 15 13 vvcurveto
          19 -8 14 -35 -218 -119 -210 -185 -134 56 -116 152 vhcurveto
          endchar
        </CharString>
        <CharString name="slash">
          91 callgsubr
          36 73 vstem
          109 -115 rmoveto
          5 65 12 78 14 88 rrcurveto
          81 517 13 72 9 vvcurveto
          21 -20 7 -21 -11 -11 -2 -3 -9 vhcurveto
          -7 -65 -10 -79 -14 -87 rrcurveto
          -82 -518 -13 -71 -7 vvcurveto
          -23 19 -5 21 11 11 1 2 11 vhcurveto
          endchar
        </CharString>
        <CharString name="space">
          -324 endchar
        </CharString>
        <CharString name="st">
          284 72 callsubr
          44 100 158 100 -83 49 -49 83 60 189 -105 105 hintmask 1011101001000000
          hintmask 1101110010000000
          32 callgsubr
          34 -25 11 46 vvcurveto
          70 57 41 48 29 33 -9 -23 4 vhcurveto
          3 66 callgsubr
          84 callsubr
          hintmask 1101100101000000
          -71 callgsubr
          -96 43 -74 -85 -83 -48 -92 -16 3 -17 6 -18 vhcurveto
          hintmask 1101110010000000
          12 -32 -36 6 -23 hhcurveto
          -93 -100 -44 -103 hvcurveto
          48 callgsubr
          hintmask 1101101010000000
          -72 callsubr
          endchar
        </CharString>
        <CharString name="sterling">
          -3 69 262 59 207 80 hstemhm
          89 147 -98 98 -27 111 hintmask 11101000
          432 368 rmoveto
          6 -2 17 -4 9 vhcurveto
          -43 -6 -40 -4 -46 -3 rrcurveto
          -18 48 -43 53 49 vvcurveto
          40 23 17 24 18 23 -13 -27 15 vhcurveto
          48 16 11 21 19 vvcurveto
          45 -53 19 -40 -102 -65 -91 -75 -41 23 -43 18 -40 vhcurveto
          -38 -2 -52 4 -38 vvcurveto
          -5 2 -8 4 -11 vhcurveto
          hintmask 11110000
          4 37 35 0 34 hhcurveto
          5 -18 3 -19 -22 vvcurveto
          -63 -49 -89 -97 -58 vhcurveto
          hintmask 11100100
          -20 1 -13 12 -15 vhcurveto
          -9 49 116 -5 58 hhcurveto
          64 59 4 10 26 hvcurveto
          28 10 9 16 16 vvcurveto
          18 -11 18 -12 13 vhcurveto
          -28 -74 -88 -8 -61 hhcurveto
          -15 -25 0 1 -21 hvcurveto
          107 91 35 73 60 vvcurveto
          13 -1 11 -2 11 vhcurveto
          -1 23 19 0 6 hhcurveto
          39 28 3 40 hvcurveto
          endchar
        </CharString>
        <CharString name="sterlingoldstyle">
          -3 69 207 61 171 78 hstemhm
          133 97 -26 110 hintmask 11101000
          314 273 rmoveto
          45 hlineto
          40 28 4 38 7 -1 10 -7 15 hvcurveto
          -26 -4 -52 -6 -50 -3 rrcurveto
          -19 40 -42 42 43 vvcurveto
          32 24 14 23 20 22 -13 -26 16 vhcurveto
          25 12 33 24 19 vvcurveto
          hintmask 11110000
          43 -53 19 -40 -103 -64 -79 -64 -35 23 -39 21 -35 vhcurveto
          -46 -3 rlineto
          -32 -2 -15 -8 -22 vvcurveto
          -5 2 -7 4 -12 vhcurveto
          4 37 37 1 34 hhcurveto
          4 -13 2 -12 -15 vvcurveto
          -54 -50 -76 -96 -49 vhcurveto
          -20 0 -12 12 -15 vhcurveto
          -9 50 115 -5 59 hhcurveto
          hintmask 11101000
          64 58 4 10 27 hvcurveto
          27 11 10 13 16 vvcurveto
          12 -7 18 -17 21 vhcurveto
          -28 -73 -88 -8 -62 hhcurveto
          -14 -20 0 1 -20 hvcurveto
          105 75 30 57 53 vvcurveto
          endchar
        </CharString>
        <CharString name="summation">
          100 -62 86 560 74 hstem
          596 101 rmoveto
          17 -8 7 -18 -5 -6 0 -4 -8 vhcurveto
          -15 -33 -19 -38 -19 -26 rrcurveto
          -332 hlineto
          119 189 rlineto
          29 47 18 26 21 vvcurveto
          4 -1 6 -2 4 vhcurveto
          -151 263 rlineto
          279 hlineto
          17 -26 9 -21 18 -36 rrcurveto
          -4 8 6 0 5 hhcurveto
          18 8 7 17 18 -15 78 -9 41 hvcurveto
          -452 hlineto
          -23 -15 -16 -21 hvcurveto
          195 -334 -206 -324 rlineto
          0 1 -25 30 vhcurveto
          514 hlineto
          9 40 21 104 19 vvcurveto
          endchar
        </CharString>
        <CharString name="t">
          -167 -10 71 340 73 -73 179 -84 -21 hstemhm
          0 199 -105 105 hintmask 11011000
          49 474 rmoveto
          hintmask 11010100
          84 callsubr
          -9 1 -16 3 -8 vhcurveto
          hintmask 10101000
          27 4 32 -87 callgsubr
          hintmask 11010100
          1 15 2 45 9 vvcurveto
          31 -33 6 -36 -15 -18 -1 -3 -16 vhcurveto
          2 -22 3 -52 1 -27 rrcurveto
          -21 -15 0 -1 -9 hvcurveto
          endchar
        </CharString>
        <CharString name="thorn">
          -19 40 callsubr
          83 callsubr
          210 109 vstem
          271 30 callgsubr
          -1 76 0 94 108 vvcurveto
          24 30 43 19 35 hhcurveto
          -168 331 17 callgsubr
          6 -53 3 -42 -169 vvcurveto
          -189 vlineto
          -75 -1 -60 -1 -94 vhcurveto
          -1 -83 0 -89 -77 -26 callgsubr
          -51 -49 -21 -35 -45 hvcurveto
          2 159 9 76 24 13 callgsubr
          vhcurveto
          endchar
        </CharString>
        <CharString name="three">
          -10 74 256 60 140 153 -75 75 hstemhm
          333 108 -87 108 hintmask 11101000
          327 364 rmoveto
          83 33 31 64 58 vvcurveto
          78 -62 76 -122 -101 -87 -61 -43 -25 20 -24 32 vhcurveto
          53 27 48 25 42 hhcurveto
          hintmask 11011000
          59 36 -47 -50 -58 -53 -63 -134 hvcurveto
          -1 -7 0 -5 -5 vvcurveto
          -42 13 -1 24 114 58 -63 -66 vhcurveto
          hintmask 11100100
          -61 -47 -66 -96 -59 -30 14 26 -20 vhcurveto
          -26 -4 -21 -17 -28 vvcurveto
          -41 67 -24 92 163 85 99 101 71 -21 60 -114 43 vhcurveto
          endchar
        </CharString>
        <CharString name="threeoldstyle">
          -107 -160 72 243 63 124 143 -70 70 hstemhm
          265 98 -81 100 hintmask 11100100
          88 218 rmoveto
          0 -1 -8 -10 vvcurveto
          hintmask 11101000
          -42 14 -3 21 100 60 -47 -74 -70 -56 -52 -101 -31 -32 8 13 -15 vhcurveto
          hintmask 11011000
          -21 -7 -13 -13 -22 vvcurveto
          -27 35 -24 74 165 95 87 117 71 -46 66 -79 23 vhcurveto
          72 28 34 55 51 vvcurveto
          74 -59 73 -115 -97 -82 -61 -43 -19 16 -20 37 vhcurveto
          52 22 47 21 37 hhcurveto
          59 37 -42 -46 -52 -49 -57 -128 hvcurveto
          endchar
        </CharString>
        <CharString name="threequarters">
          424 -86 -21 97 201 -69 69 17 64 158 44 135 64 67 -20 hstemhm
          274 91 381 82 -82 158 hintmask 1011111110000000
          703 20 callgsubr
          2 254 -68 callgsubr
          30 callsubr
          hintmask 1101111110000000
          -618 16 rmoveto
          -25 10 -2 14 vhcurveto
          hintmask 1101111101000000
          61 callgsubr
          hvcurveto
          -18 -9 -13 -15 -16 vvcurveto
          hintmask 1101111110000000
          -55 callgsubr
          183 -564 -84 callgsubr
          endchar
        </CharString>
        <CharString name="threesuperior">
          -115 208 64 158 44 135 64 hstem
          274 91 vstem
          132 457 rmoveto
          -25 10 -2 14 61 callgsubr
          vhcurveto
          -18 -9 -13 -15 -16 vvcurveto
          -55 callgsubr
          endchar
        </CharString>
        <CharString name="tilde">
          -235 544 73 -54 -21 46 71 callgsubr
          hintmask 10010000
          304 630 rmoveto
          hintmask 01100000
          -82 callgsubr
          hvcurveto
          hintmask 10010000
          -10 7 -16 27 -12 vhcurveto
          36 29 10 10 12 68 callsubr
        </CharString>
        <CharString name="trademark">
          350 305 -21 22 -21 306 66 100 callgsubr
          190 89 -89 194 50 84 212 90 hintmask 10101011
          132 653 rmoveto
          -28 -2 -19 -5 -28 vvcurveto
          -4 3 -17 4 -10 vhcurveto
          3 26 39 1 33 hhcurveto
          -261 vlineto
          -30 8 -16 42 12 23 5 5 18 vhcurveto
          -14 43 0 39 35 vvcurveto
          180 60 vlineto
          32 13 16 20 7 -1 13 -3 11 hvcurveto
          -5 -46 -39 0 -41 hhcurveto
          566 -106 rmoveto
          32 1 27 9 37 vhcurveto
          hintmask 01101011
          11 -26 -20 3 -9 hhcurveto
          -30 -20 -14 -20 -11 hvcurveto
          -35 -64 -31 -76 -22 -70 -22 71 -26 70 -39 69 rrcurveto
          20 -11 -18 14 -30 hhcurveto
          -15 -15 -3 -7 -26 hvcurveto
          8 -38 2 -26 -32 -109 -1 -53 -59 vvcurveto
          -30 9 -16 42 17 15 81 callsubr
          93 vlineto
          16 -44 28 -96 21 -45 rrcurveto
          hintmask 10101011
          -17 8 25 -7 16 hhcurveto
          12 13 3 5 12 hvcurveto
          10 36 29 92 23 69 rrcurveto
          -70 -1 22 -112 vvcurveto
          hintmask 10010111
          -30 9 -16 42 13 24 81 callsubr
          endchar
        </CharString>
        <CharString name="two">
          42 callgsubr
          599 76 hstemhm
          360 104 hintmask 10110000
          104 512 rmoveto
          50 33 55 35 53 hhcurveto
          61 54 -46 -80 -101 -74 -89 -246 -220 hvcurveto
          -1 -4 0 -6 -4 vvcurveto
          hintmask 01110000
          -41 30 -6 18 vhcurveto
          -2 63 76 0 79 hhcurveto
          62 73 3 11 31 hvcurveto
          17 7 8 15 19 vvcurveto
          hintmask 10110000
          14 -5 18 -9 19 vhcurveto
          -25 -66 -49 -3 -129 hhcurveto
          -27 -32 0 1 -19 hvcurveto
          190 157 114 105 151 vvcurveto
          123 -101 60 -100 -104 -104 -62 -50 -25 17 -20 32 -4 vhcurveto
          endchar
        </CharString>
        <CharString name="twooldstyle">
          -51 -2 85 331 71 hstem
          310 102 vstem
          412 357 rmoveto
          74 -64 54 -104 -98 -86 -64 -43 -17 12 -18 41 -6 vhcurveto
          44 26 46 33 34 hhcurveto
          53 38 -33 -48 -102 -176 -89 -109 -71 hvcurveto
          -1 -5 0 -6 -4 vvcurveto
          -49 29 -7 17 vhcurveto
          -1 42 53 -1 58 hhcurveto
          59 62 1 2 55 hvcurveto
          47 2 25 14 37 vvcurveto
          9 -5 21 -7 12 vhcurveto
          -28 -7 -52 -5 -26 -1 -45 -3 -108 -4 -46 -1 rrcurveto
          174 96 84 103 83 vvcurveto
          endchar
        </CharString>
        <CharString name="twosuperior">
          -84 222 66 -47 -21 325 128 -64 64 hstemhm
          278 91 hintmask 10101000
          112 545 7 callgsubr
          hintmask 10011000
          10 callgsubr
          hintmask 01101000
          6 callsubr
          vhcurveto
          hintmask 10101000
          87 callsubr
          hvcurveto
          endchar
        </CharString>
        <CharString name="u">
          -10 -10 74 415 -20 hstem
          68 101 187 103 vstem
          364 47 -76 callgsubr
        </CharString>
        <CharString name="uacute">
          85 callgsubr
          249 -20 hstemhm
          68 101 37 217 -67 103 hintmask 11110100
          396 -101 callsubr
          -32 -579 21 callsubr
          hintmask 11111000
          -105 callsubr
          endchar
        </CharString>
        <CharString name="ucircumflex">
          -10 -10 74 415 52 99 callgsubr
          68 101 187 103 vstem
          402 -99 callsubr
          -38 -517 -76 callgsubr
        </CharString>
        <CharString name="udieresis">
          85 callgsubr
          41 63 callgsubr
          68 101 -67 -8 callgsubr
          -81 103 hintmask 11101100
          364 47 21 callsubr
          hintmask 11110010
          -105 callsubr
          473 vmoveto
          -101 callgsubr
          endchar
        </CharString>
        <CharString name="ugrave">
          85 callgsubr
          98 callsubr
          68 101 -64 219 32 103 hintmask 11110100
          157 -85 callgsubr
          207 -675 rmoveto
          -51 callgsubr
          hintmask 11101100
          -94 callsubr
        </CharString>
        <CharString name="underscore">
          -144 57 -44 -21 72 -20 hstemhm
          hintmask 01100000
          535 -110 rmoveto
          hintmask 10000000
          11 0 10 -3 9 vhcurveto
          -6 -51 -86 -1 -50 hhcurveto
          hintmask 01100000
          -142 hlineto
          -74 -73 7 -20 hhcurveto
          -27 -9 -24 -18 hvcurveto
          hintmask 10000000
          -7 0 -8 3 -15 vhcurveto
          4 44 52 4 106 hhcurveto
          hintmask 01100000
          143 hlineto
          52 64 -8 35 hhcurveto
          22 14 19 23 hvcurveto
          endchar
        </CharString>
        <CharString name="v">
          -77 18 -21 484 -20 hstem
          332 101 vstem
          377 485 rmoveto
          -13 -17 -1 -5 -18 hvcurveto
          82 callgsubr
          -104 -51 -165 -39 -63 vhcurveto
          -32 114 -60 172 -26 callsubr
          70 62 callsubr
        </CharString>
        <CharString name="w">
          195 18 -21 488 -20 hstem
          332 101 172 100 vstem
          649 485 rmoveto
          -13 -17 -1 -5 -17 hvcurveto
          82 callgsubr
          -111 -52 -153 -39 -67 vhcurveto
          -29 104 -35 93 -26 69 rrcurveto
          6 25 3 22 17 vvcurveto
          28 -20 12 -36 -13 -17 -1 -5 -18 vhcurveto
          82 callgsubr
          -109 -55 -161 -35 -61 vhcurveto
          -32 114 -60 171 -26 callsubr
          32 40 35 70 28 72 24 -75 21 -83 12 -60 rrcurveto
          -3 12 49 callsubr
          28 hvcurveto
          69 62 callsubr
        </CharString>
        <CharString name="x">
          -83 11 -21 496 -20 hstem
          309 20 rmoveto
          -21 17 15 -9 21 hhcurveto
          24 25 8 33 32 hvcurveto
          -33 23 -75 101 -64 99 rrcurveto
          60 62 71 97 33 vvcurveto
          27 -38 12 -57 1 vhcurveto
          -5 -36 -30 -63 -35 -61 -30 51 -35 57 -18 23 rrcurveto
          21 -16 -15 7 -26 hhcurveto
          -26 -24 -21 -27 -26 hvcurveto
          36 -24 73 -101 47 -69 rrcurveto
          -57 -55 -99 -116 -42 vvcurveto
          -26 36 -14 57 vhcurveto
          8 46 49 80 38 56 41 -69 40 -60 19 -23 rrcurveto
          endchar
        </CharString>
        <CharString name="y">
          -73 -229 -21 735 -20 hstem
          337 103 vstem
          -75 callgsubr
          endchar
        </CharString>
        <CharString name="yacute">
          89 callgsubr
          98 callsubr
          183 217 -63 103 hintmask 10110100
          373 -101 callsubr
          -270 -876 -85 callsubr
          hintmask 11011000
          -52 callgsubr
          endchar
        </CharString>
        <CharString name="ydieresis">
          89 callgsubr
          35 63 callgsubr
          72 -8 callgsubr
          -70 103 hintmask 10111100
          hintmask 10111010
          -75 callgsubr
          231 770 rmoveto
          -97 callgsubr
          hvcurveto
          hintmask 11011100
          -63 callsubr
          vhcurveto
          endchar
        </CharString>
        <CharString name="yen">
          -3 248 -53 53 54 54 316 -20 24 -20 hstemhm
          224 99 100 93 hintmask 10101110
          222 53 rmoveto
          hintmask 01101110
          -35 15 -21 50 17 18 5 9 19 vhcurveto
          -14 46 -4 46 89 vvcurveto
          132 hlineto
          33 10 14 22 0 -1 13 -4 10 hvcurveto
          -5 -55 -56 -1 -59 hhcurveto
          54 132 vlineto
          33 10 15 21 0 0 11 -5 14 hvcurveto
          -6 -52 -36 -1 -45 hhcurveto
          71 96 85 148 30 vvcurveto
          38 -30 8 -32 vhcurveto
          hintmask 10110110
          -7 -9 0 -4 -15 hvcurveto
          -3 -47 -73 -148 -58 -84 -52 95 -55 88 -41 58 rrcurveto
          25 -18 -16 13 -23 hhcurveto
          -34 -23 -23 -25 -16 hvcurveto
          73 -55 44 -91 73 -122 rrcurveto
          -104 hlineto
          -22 -21 -6 -28 -3 1 -12 5 -11 hvcurveto
          5 51 55 1 58 hhcurveto
          -54 -127 vlineto
          hintmask 01101110
          -22 -21 -5 91 callsubr
          50 56 1 57 hhcurveto
          -73 -1 -66 0 vhcurveto
          endchar
        </CharString>
        <CharString name="yenoldstyle">
          -10 205 -54 54 44 53 287 -20 24 -20 hstemhm
          226 100 hintmask 10101100
          326 239 rmoveto
          120 hlineto
          33 9 93 callsubr
          hintmask 10110100
          -35 -3 -39 -2 -38 -1 rrcurveto
          65 89 72 131 25 vvcurveto
          hintmask 01101100
          35 -33 11 -30 -8 -7 0 -4 -15 vhcurveto
          hintmask 10101100
          -3 -43 -68 -138 -54 -80 -45 83 -54 84 -38 57 rrcurveto
          23 -16 -19 14 -20 hhcurveto
          -31 -28 -26 -22 -14 hvcurveto
          68 -51 61 -106 43 -82 rrcurveto
          -90 hlineto
          -23 -20 -6 -28 -3 1 -12 5 -10 hvcurveto
          5 52 38 1 67 hhcurveto
          -44 -120 vlineto
          -23 -20 -6 91 callsubr
          52 38 1 66 hhcurveto
          hintmask 01101100
          -56 -1 -39 0 vhcurveto
          -33 15 -23 50 17 20 5 9 17 vhcurveto
          -13 37 -4 51 -1 49 rrcurveto
          119 hlineto
          33 10 93 callsubr
          -3 -48 -56 -2 -51 hhcurveto
          endchar
        </CharString>
        <CharString name="z">
          -50 -6 76 333 78 hstem
          438 404 -78 callgsubr
        </CharString>
        <CharString name="zcaron">
          -71 -6 76 333 78 221 -20 hstem
          93 657 -92 callsubr
          345 -253 -78 callgsubr
        </CharString>
        <CharString name="zero">
          -10 74 535 74 hstem
          25 108 279 108 vstem
          272 -10 rmoveto
          151 97 134 207 210 -97 132 -151 -151 -96 -132 -210 -207 96 -134 151 hvcurveto
          140 325 rmoveto
          -139 -54 -112 -86 -94 -45 156 140 132 58 107 82 94 45 -154 -130 vhcurveto
          endchar
        </CharString>
        <CharString name="zerooldstyle">
          -6 -10 98 299 98 hstem
          39 84 287 84 vstem
          266 -10 rmoveto
          139 89 95 147 155 -89 98 -139 -139 -88 -98 -155 -147 88 -95 139 hvcurveto
          144 234 rmoveto
          -75 -56 -61 -89 -93 -49 82 76 75 56 66 87 97 47 -89 -74 vhcurveto
          endchar
        </CharString>
      <CharString index="0">
        rmoveto
        -1 -20 -28 0 -24 hhcurveto
        -33 -33 1 1 -32 hvcurveto
        36 90 27 82 25 78 22 -68 26 -92 34 -91 rrcurveto
        -93 -75 rmoveto
        30 40 1 1 49 hvcurveto
        32 -87 13 -42 22 -55 rrcurveto
        -25 15 23 -2 20 hhcurveto
        17 28 10 10 19 hvcurveto
        -34 67 -39 99 -40 104 -47 121 -39 128 -26 81 rrcurveto
        46 -15 -19 7 -32 hhcurveto
        -14 -18 0 -3 -20 hvcurveto
        -81 -277 -160 -326 -1 -37 rrcurveto
        -20 24 -14 65 -7 vhcurveto
        20 73 32 77 28 72 rrcurveto
        -1 41 35 -1 32 hhcurveto
        return
      </CharString>
      <CharString index="1">
        rmoveto
        21 15 6 13 15 vvcurveto
        22 -16 17 -38 20 vhcurveto
        -117 -130 -46 11 -37 vvcurveto
        -17 10 -14 20 -18 vhcurveto
        47 45 63 21 50 37 rrcurveto
        return
      </CharString>
      <CharString index="2">
        -34 8 29 -12 28 hhcurveto
        21 22 6 5 13 hvcurveto
        -15 46 -5 79 79 vvcurveto
        -103 callgsubr
        return
      </CharString>
      <CharString index="3">
        55 callgsubr
        3 callgsubr
        -105 callgsubr
        return
      </CharString>
      <CharString index="4">
        47 5 114 2 44 -86 callsubr
        27 74 rmoveto
        -68 -54 72 120 92 53 64 64 36 41 -14 -31 30 hvcurveto
        return
      </CharString>
      <CharString index="5">
        -66 callgsubr
        27 callsubr
        vhcurveto
        -57 callsubr
        return
      </CharString>
      <CharString index="6">
        -97 callgsubr
        -63 callsubr
        hvcurveto
        return
      </CharString>
      <CharString index="7">
        -40 callgsubr
        -98 callsubr
        return
      </CharString>
      <CharString index="8">
        -100 callsubr
        -61 callsubr
        vhcurveto
        return
      </CharString>
      <CharString index="9">
        -38 -33 22 56 56 69 8 89 11 hvcurveto
        -2 -25 0 -27 -19 vvcurveto
        4 132 rmoveto
        -70 callsubr
        return
      </CharString>
      <CharString index="10">
        37 36 29 42 40 -33 31 -38 -93 callsubr
        return
      </CharString>
      <CharString index="11">
        rmoveto
        -82 callgsubr
        -10 7 -16 27 -12 hvcurveto
        36 29 10 10 12 return
      </CharString>
      <CharString index="12">
        -103 callsubr
        3 callsubr
        return
      </CharString>
      <CharString index="13">
        rmoveto
        12 callsubr
        -100 callgsubr
        return
      </CharString>
      <CharString index="14">
        -54 13 -25 62 19 22 4 7 16 vhcurveto
        -26 61 0 71 63 104 11 78 callgsubr
        42 -34 11 -38 return
      </CharString>
      <CharString index="15">
        36 callsubr
        -34 callsubr
        vhcurveto
        -91 callsubr
        return
      </CharString>
      <CharString index="16">
        95 60 66 104 104 -60 65 -95 -96 -60 -65 -104 -104 60 -66 96 hvcurveto
        58 163 rmoveto
        -56 -23 -43 -36 -41 -19 62 54 54 25 42 36 39 19 -60 -53 vhcurveto
        return
      </CharString>
      <CharString index="17">
        819 -106 callgsubr
        return
      </CharString>
      <CharString index="18">
        11 callgsubr
        -93 callgsubr
        return
      </CharString>
      <CharString index="19">
        -96 -44 -65 -80 -29 callsubr
        79 45 -84 -103 vhcurveto
        -124 -235 rmoveto
        140 93 97 151 return
      </CharString>
      <CharString index="20">
        2 32 2 rrcurveto
        -42 -1 -105 -83 vvcurveto
        -114 49 -68 118 41 55 15 42 13 -9 17 -17 19 vhcurveto
        -19 -18 -24 -16 -22 hhcurveto
        -61 -7 64 73 27 0 82 2 94 hvcurveto
        45 33 0 1 30 hvcurveto
        32 1 18 8 38 vvcurveto
        9 -1 13 -5 9 vhcurveto
        -5 -35 -39 -1 -76 hhcurveto
        return
      </CharString>
      <CharString index="21">
        -135 -2 -100 -114 -83 callgsubr
        return
      </CharString>
      <CharString index="22">
        722 -104 callsubr
        return
      </CharString>
      <CharString index="23">
        rmoveto
        25 61 35 72 39 78 rrcurveto
        294 588 3 -1 16 vvcurveto
        18 -22 14 -41 1 vhcurveto
        -25 -60 -35 -73 -39 -78 rrcurveto
        -296 -591 -2 2 -15 vvcurveto
        -22 29 -10 35 vhcurveto
        return
      </CharString>
      <CharString index="24">
        vvcurveto
        -37 15 -17 58 17 21 4 6 13 vhcurveto
        -19 64 0 83 49 vvcurveto
        return
      </CharString>
      <CharString index="25">
        22 -35 10 0 vhcurveto
        -28 -20 -14 -17 -17 -26 -41 44 -43 hhcurveto
        -55 -53 -43 -38 return
      </CharString>
      <CharString index="26">
        -44 callsubr
        -89 callgsubr
        vhcurveto
        return
      </CharString>
      <CharString index="27">
        757 -106 callsubr
        return
      </CharString>
      <CharString index="28">
        6 18 2 20 16 vvcurveto
        14 -2 11 -7 7 vhcurveto
        15 -19 -87 0 -61 hhcurveto
        -70 -68 -2 -7 -85 hvcurveto
        return
      </CharString>
      <CharString index="29">
        rmoveto
        21 -5 16 -12 14 vhcurveto
        13 -51 -113 13 -74 hhcurveto
        -44 -38 -2 -6 -19 hvcurveto
        -24 -8 -7 -15 -1 -17 rrcurveto
        -21 4 -18 6 -17 vhcurveto
        21 59 63 5 59 hhcurveto
        29 29 0 -2 28 hvcurveto
        -92 -96 -98 -99 -92 -95 rrcurveto
        -16 -17 -8 -19 -16 vvcurveto
        -20 8 -20 8 -12 vhcurveto
        -9 52 70 -4 63 hhcurveto
        48 48 1 6 36 hvcurveto
        31 5 30 7 39 vvcurveto
        20 -5 18 -5 13 vhcurveto
        -27 -82 -127 -6 -55 hhcurveto
        94 96 87 89 97 102 rrcurveto
        13 13 6 18 16 vvcurveto
        endchar
      </CharString>
      <CharString index="30">
        -75 vvcurveto
        -40 0 -46 1 -41 vhcurveto
        -30 -31 -44 -21 -36 hhcurveto
        -43 -34 34 71 hvcurveto
        61 6 return
      </CharString>
      <CharString index="31">
        rmoveto
        -46 6 27 -4 31 hhcurveto
        9 22 1 10 19 hvcurveto
        -94 callsubr
      </CharString>
      <CharString index="32">
        103 -250 -85 callsubr
        -52 callgsubr
        return
      </CharString>
      <CharString index="33">
        40 32 31 45 43 -32 34 -40 -40 -33 -34 -43 -45 33 -31 40 hvcurveto
        return
      </CharString>
      <CharString index="34">
        18 callgsubr
        -36 callgsubr
        19 hhcurveto
        -84 callsubr
        return
      </CharString>
      <CharString index="35">
        -40 callsubr
        -207 123 -134 192 return
      </CharString>
      <CharString index="36">
        -9 1 -16 3 -8 vhcurveto
        27 4 22 -87 callgsubr
        1 30 1 30 13 vvcurveto
        68 return
      </CharString>
      <CharString index="37">
        hstem
        44 100 158 100 vstem
        32 callgsubr
        vvcurveto
        67 -108 18 -48 -93 -100 -44 -103 vhcurveto
        48 callgsubr
        -72 callsubr
        return
      </CharString>
      <CharString index="38">
        -56 callgsubr
        -87 callsubr
        return
      </CharString>
      <CharString index="39">
        rmoveto
        -55 -48 -98 -116 -48 -83 rrcurveto
        -1 -7 0 -11 -7 vvcurveto
        -20 5 -19 14 -1 vhcurveto
        -7 49 40 0 92 hhcurveto
        -1 -54 -1 5 -31 vvcurveto
        -35 10 -17 47 17 11 3 5 13 vhcurveto
        -11 35 -5 29 61 vvcurveto
        35 1 9 1 14 7 rrcurveto
        13 4 5 16 17 vvcurveto
        16 -5 13 -3 6 vhcurveto
        -15 -8 -18 -3 -35 -2 rrcurveto
        return
      </CharString>
      <CharString index="40">
        rmoveto
        -25 -12 -17 -24 -24 -14 23 28 27 14 16 24 23 13 -22 -30 vhcurveto
        -36 -90 rmoveto
        56 37 38 57 58 -37 37 -56 -56 -39 -37 -58 -57 39 -38 56 hvcurveto
        return
      </CharString>
      <CharString index="41">
        -98 callgsubr
        43 callgsubr
        return
      </CharString>
      <CharString index="42">
        -11 9 -12 29 -18 vhcurveto
        65 54 76 97 37 50 -37 49 -76 97 -65 54 rrcurveto
        -30 -19 -8 -11 -11 vvcurveto
        -21 63 -89 41 -49 vhcurveto
        -41 -50 -63 -90 -20 vvcurveto
        return
      </CharString>
      <CharString index="43">
        37 36 29 42 return
      </CharString>
      <CharString index="44">
        -39 -35 -31 -40 return
      </CharString>
      <CharString index="45">
        5 hlineto
        1 5 0 5 5 vvcurveto
        20 -7 18 -24 -79 -61 -92 -84 -72 40 -26 38 40 32 25 32 13 -3 12 -7 13 vhcurveto
        -34 6 -15 23 25 vvcurveto
        return
      </CharString>
      <CharString index="46">
        -25 -23 1 1 -21 hvcurveto
        -7 40 0 49 101 callgsubr
        return
      </CharString>
      <CharString index="47">
        95 vvcurveto
        37 -20 15 -49 -21 -19 -4 -5 -15 vhcurveto
        14 -48 3 return
      </CharString>
      <CharString index="48">
        -37 callgsubr
        0 callgsubr
        return
      </CharString>
      <CharString index="49">
        -59 callgsubr
        43 215 -44 callgsubr
        return
      </CharString>
      <CharString index="50">
        15 12 16 7 18 hhcurveto
        25 28 -13 -20 22 hvcurveto
        return
      </CharString>
      <CharString index="51">
        -1 15 101 -1 50 hhcurveto
        61 91 0 15 19 hvcurveto
        return
      </CharString>
      <CharString index="52">
        -39 67 -23 65 125 57 71 65 46 -26 47 -68 21 vhcurveto
        62 20 24 38 50 vvcurveto
        61 -43 46 -104 -58 -86 -33 -39 -20 11 -10 22 -10 vhcurveto
        36 29 27 12 38 hhcurveto
        58 15 -26 -30 -61 -52 -14 -81 -4 hvcurveto
        -1 -6 0 -6 -5 vvcurveto
        return
      </CharString>
      <CharString index="53">
        -64 -2 -74 -39 vvcurveto
        return
      </CharString>
      <CharString index="54">
        168 429 rmoveto
        45 -6 -27 4 -32 hhcurveto
        -11 -21 -2 -9 -20 hvcurveto
        14 -38 5 -85 -95 -97 -5 -48 -66 -41 callgsubr
        30 33 42 22 35 hhcurveto
        return
      </CharString>
      <CharString index="55">
        -27 -22 -13 -21 -30 hvcurveto
        59 -58 96 -268 38 -126 -59 -97 -66 -71 -34 -23 rrcurveto
        -30 15 27 -23 27 hhcurveto
        return
      </CharString>
      <CharString index="56">
        -46 6 27 -4 31 hhcurveto
        9 22 1 10 19 hvcurveto
        return
      </CharString>
      <CharString index="57">
        304 rmoveto
        -23 -4 -138 -66 -14 callsubr
        98 3 59 19 51 callsubr
        -59 -49 -17 -36 -47 vhcurveto
        1 161 10 77 18 13 callgsubr
        return
      </CharString>
      <CharString index="58">
        -68 callsubr
        16 callsubr
        return
      </CharString>
      <CharString index="59">
        743 -45 callgsubr
        77 callgsubr
        vhcurveto
        -27 63 0 42 242 23 callsubr
        return
      </CharString>
      <CharString index="60">
        36 callsubr
        -34 callsubr
        vhcurveto
        -46 callgsubr
        104 vlineto
        69 84 124 174 51 vvcurveto
        return
      </CharString>
      <CharString index="61">
        19 callsubr
        69 64 vvcurveto
        return
      </CharString>
      <CharString index="62">
        17 callgsubr
        7 -64 2 -46 -275 vvcurveto
        -112 -1 -70 -1 -94 vhcurveto
        -55 13 -26 60 return
      </CharString>
      <CharString index="63">
        rmoveto
        42 30 -34 -37 -49 -41 -20 -56 -7 hvcurveto
        return
      </CharString>
      <CharString index="64">
        rmoveto
        -15 0 -16 2 -13 vhcurveto
        -32 callsubr
        return
      </CharString>
      <CharString index="65">
        hstemhm
        -21 callsubr
        return
      </CharString>
      <CharString index="66">
        vvcurveto
        -32 29 -8 36 19 callgsubr
        -5 57 -1 50 57 vvcurveto
        55 -1 73 -1 67 vhcurveto
        return
      </CharString>
      <CharString index="67">
        -5 hlineto
        -1 -5 0 -5 -5 vvcurveto
        return
      </CharString>
      <CharString index="68">
        -20 -42 callgsubr
        return
      </CharString>
      <CharString index="69">
        14 -19 19 -37 11 vhcurveto
        -30 -19 -24 -36 -43 -69 -61 76 -111 hhcurveto
        -81 -54 -61 -36 -15 20 -19 37 -10 hvcurveto
        29 19 24 36 43 55 79 -76 107 hhcurveto
        81 53 61 37 hvcurveto
        return
      </CharString>
      <CharString index="70">
        -35 callgsubr
        -64 -55 37 100 -14 hvcurveto
        return
      </CharString>
      <CharString index="71">
        -10 1 -15 3 -12 vhcurveto
        2 21 37 4 return
      </CharString>
      <CharString index="72">
        -38 -20 -47 -16 -32 hhcurveto
        return
      </CharString>
      <CharString index="73">
        517 155 rmoveto
        -60 -34 -64 -26 -55 hhcurveto
        -137 -71 129 153 138 78 105 114 50 63 -29 -67 21 hvcurveto
        57 9 22 28 29 vvcurveto
        61 -82 48 -109 return
      </CharString>
      <CharString index="74">
        -55 callsubr
        hintmask 11101000
        41 callsubr
        return
      </CharString>
      <CharString index="75">
        92 6 87 16 vvcurveto
        26 -24 7 -17 -13 -45 -5 -9 -48 vhcurveto
        -29 -5 -9 -23 -16 vvcurveto
        return
      </CharString>
      <CharString index="76">
        -22 callgsubr
        40 -25 callsubr
        return
      </CharString>
      <CharString index="77">
        -257 -5 -89 -30 15 callgsubr
        124 6 103 -4 131 rrcurveto
        32 33 callgsubr
        endchar
      </CharString>
      <CharString index="78">
        -36 -17 -12 -27 -7 2 -9 3 -10 hvcurveto
        1 31 28 0 27 72 39 -2 25 hhcurveto
        return
      </CharString>
      <CharString index="79">
        194 124 134 207 return
      </CharString>
      <CharString index="80">
        rmoveto
        -141 -70 -104 -133 return
      </CharString>
      <CharString index="81">
        24 callsubr
        -19 55 -1 94 111 vvcurveto
        -19 34 42 -9 27 hhcurveto
        148 69 133 142 158 -80 62 -94 return
      </CharString>
      <CharString index="82">
        -106 callgsubr
        endchar
      </CharString>
      <CharString index="83">
        193 204 rmoveto
        91 58 59 92 93 -58 57 -91 -92 34 callsubr
        92 hvcurveto
        467 -214 rmoveto
        48 callsubr
        return
      </CharString>
      <CharString index="84">
        -32 callgsubr
        8 callgsubr
        return
      </CharString>
      <CharString index="85">
        vvcurveto
        -30 22 -8 24 8 22 0 3 16 vhcurveto
        -4 36 -4 37 119 vvcurveto
        return
      </CharString>
      <CharString index="86">
        134 76 100 127 return
      </CharString>
      <CharString index="87">
        20 -19 18 -37 21 vhcurveto
        -102 -116 -60 -1 -40 vvcurveto
        -18 13 -15 17 -14 vhcurveto
        42 39 76 35 39 28 rrcurveto
        23 16 8 14 13 vvcurveto
        return
      </CharString>
      <CharString index="88">
        5 callgsubr
        2 callgsubr
        return
      </CharString>
      <CharString index="89">
        112 8 55 38 56 hhcurveto
        return
      </CharString>
      <CharString index="90">
        rmoveto
        -15 0 -16 2 -13 vhcurveto
        return
      </CharString>
      <CharString index="91">
        74 348 73 return
      </CharString>
      <CharString index="92">
        rmoveto
        2 37 34 1 35 hhcurveto
        79 61 -6 -15 40 44 callsubr
        -90 0 -62 hhcurveto
        return
      </CharString>
      <CharString index="93">
        -40 -20 54 48 46 26 35 35 39 19 -53 -45 hvcurveto
        467 -214 rmoveto
        15 callsubr
        return
      </CharString>
      <CharString index="94">
        34 0 -21 222 72 390 -20 return
      </CharString>
      <CharString index="95">
        -138 -93 -96 -151 return
      </CharString>
      <CharString index="96">
        28 14 0 1 25 hvcurveto
        return
      </CharString>
      <CharString index="97">
        vvcurveto
        -65 22 -16 53 20 24 8 5 12 vhcurveto
        return
      </CharString>
      <CharString index="98">
        hhcurveto
        -39 -13 -24 -22 -7 0 -9 5 -24 hvcurveto
        return
      </CharString>
      <CharString index="99">
        145 45 145 return
      </CharString>
      <CharString index="100">
        rmoveto
        48 10 20 24 32 vvcurveto
        66 -109 33 -79 -125 -108 -63 -124 vhcurveto
        -248 344 77 -139 vvcurveto
        return
      </CharString>
      <CharString index="101">
        hlineto
        34 9 15 21 0 0 7 -5 17 hvcurveto
        -5 -54 -58 -1 return
      </CharString>
      <CharString index="102">
        rmoveto
        -45 56 79 -18 85 hhcurveto
        213 107 153 190 261 -172 79 -204 -58 -82 -8 -4 -21 hvcurveto
        return
      </CharString>
      <CharString index="103">
        177 13 callsubr
        return
      </CharString>
      <CharString index="104">
        171 vlineto
        105 9 100 19 72 callgsubr
        -34 -12 -6 97 callgsubr
        5 -67 2 -88 -88 vvcurveto
        -33 1 return
      </CharString>
      <CharString index="105">
        -12 -21 23 64 212 63 -3 64 212 63 31 -20 hstemhm
        42 95 119 97 113 95 119 97 return
      </CharString>
      <CharString index="106">
        -16 -15 -9 -16 -11 vvcurveto
        -16 14 -16 37 79 54 53 52 return
      </CharString>
      <CharString index="107">
        -1 23 25 -1 25 hhcurveto
        return
      </CharString>
      <CharString index="108">
        52 5 37 16 22 vhcurveto
        return
      </CharString>
      <CharString index="109">
        -15 -32 -91 -7 -84 hhcurveto
        return
      </CharString>
      <CharString index="110">
        36 53 18 34 40 hvcurveto
        return
      </CharString>
      <CharString index="111">
        26 21 11 20 16 vvcurveto
        return
      </CharString>
      <CharString index="112">
        16 -2 20 -6 17 vhcurveto
        return
      </CharString>
      <CharString index="113">
        4 -28 callsubr
        return
      </CharString>
      <CharString index="114">
        rmoveto
        37 19 37 27 29 hhcurveto
        49 32 -26 -40 -68 -70 -95 -156 -87 hvcurveto
        -1 -4 0 -14 -4 vvcurveto
        return
      </CharString>
      <CharString index="115">
        -13 2 -6 4 -10 vhcurveto
        25 9 34 5 29 5 rrcurveto
        return
      </CharString>
      <CharString index="116">
        -20 callsubr
        -64 -55 37 100 -14 hvcurveto
        return
      </CharString>
      <CharString index="117">
        -44 26 -5 17 vhcurveto
        -2 54 12 0 69 hhcurveto
        57 65 3 9 26 hvcurveto
        17 6 6 10 17 vvcurveto
        return
      </CharString>
      <CharString index="118">
        -61 -2 -73 -38 vvcurveto
        return
      </CharString>
      <CharString index="119">
        72 1 -67 -70 hvcurveto
        return
      </CharString>
      <CharString index="120">
        vvcurveto
        44 -34 11 -37 return
      </CharString>
      <CharString index="121">
        21 41 -44 50 hhcurveto
        return
      </CharString>
      <CharString index="122">
        vvcurveto
        -32 30 -8 35 19 callgsubr
        -10 return
      </CharString>
      <CharString index="123">
        28 -19 32 -40 21 vhcurveto
        -7 4 -16 8 7 vvcurveto
        return
      </CharString>
      <CharString index="124">
        rmoveto
        26 callgsubr
        hvcurveto
        return
      </CharString>
      <CharString index="125">
        -22 -4 -20 -6 -31 vvcurveto
        return
      </CharString>
      <CharString index="126">
        11 12 0 4 27 vhcurveto
        return
      </CharString>
      <CharString index="127">
        187 rmoveto
        -21 -37 0 1 -22 hvcurveto
        56 88 36 38 35 35 rrcurveto
        -37 -2 -50 -75 vvcurveto
        return
      </CharString>
      <CharString index="128">
        343 rmoveto
        -58 callsubr
        return
      </CharString>
      <CharString index="129">
        rlineto
        -20 -36 -5 -9 -10 vvcurveto
        -21 26 -8 20 -2 vhcurveto
        5 13 8 16 15 28 rrcurveto
        return
      </CharString>
      <CharString index="130">
        rmoveto
        -58 callsubr
        endchar
      </CharString>
      <CharString index="131">
        vlineto
        14 -7 13 -30 -5 -8 -1 -2 -10 vhcurveto
        return
      </CharString>
      <CharString index="132">
        vvcurveto
        36 -15 13 -43 -18 -18 -2 -5 -19 vhcurveto
        return
      </CharString>
      <CharString index="133">
        -11 -13 0 -5 -28 return
      </CharString>
      <CharString index="134">
        hhcurveto
        -39 -13 -28 -21 return
      </CharString>
      <CharString index="135">
        -16 48 -3 65 58 return
      </CharString>
      <CharString index="136">
        47 callsubr
        -203 127 -139 196 122 84 return
      </CharString>
      <CharString index="137">
        412 rmoveto
        55 47 -43 -118 -89 -31 -98 -80 -33 -39 9 18 -26 hvcurveto
        return
      </CharString>
      <CharString index="138">
        -21 32 44 -11 40 hhcurveto
        99 104 67 152 176 -137 45 -144 return
      </CharString>
      <CharString index="139">
        319 341 rmoveto
        45 10 29 22 27 return
      </CharString>
      <CharString index="140">
        33 42 21 69 callgsubr
        return
      </CharString>
      <CharString index="141">
        rmoveto
        14 -51 3 -52 -54 return
      </CharString>
      <CharString index="142">
        -100 -9 -95 -114 vvcurveto
        return
      </CharString>
      <CharString index="143">
        hstemhm
        4 184 -103 103 return
      </CharString>
      <CharString index="144">
        79 rrcurveto
        hintmask 11000000
        4 12 2 14 12 vvcurveto
        12 -2 13 -6 12 vhcurveto
        -2 return
      </CharString>
      <CharString index="145">
        301 150 25 callgsubr
        endchar
      </CharString>
      <CharString index="146">
        93 -151 rrcurveto
        -22 14 25 -5 28 hhcurveto
        14 15 1 3 15 hvcurveto
        return
      </CharString>
      <CharString index="147">
        -91 34 callsubr
        91 hvcurveto
        return
      </CharString>
      <CharString index="148">
        0 46 171 -39 callgsubr
        return
      </CharString>
      <CharString index="149">
        0 76 -57 -21 return
      </CharString>
      <CharString index="150">
        -99 63 -43 72 return
      </CharString>
      <CharString index="151">
        -65 -63 7 -30 27 callgsubr
        -7 0 -8 5 -24 hvcurveto
        return
      </CharString>
      <CharString index="152">
        5 54 57 5 96 47 49 -8 57 hhcurveto
        31 21 22 27 hvcurveto
        return
      </CharString>
      <CharString index="153">
        59 callgsubr
        endchar
      </CharString>
      <CharString index="154">
        4 -14 0 -18 -17 vvcurveto
        -142 return
      </CharString>
      <CharString index="155">
        -194 258 85 -109 vvcurveto
        return
      </CharString>
      <CharString index="156">
        184 -152 152 -83 83 return
      </CharString>
      <CharString index="157">
        -14 38 callsubr
        return
      </CharString>
      <CharString index="158">
        71 -61 -21 92 -20 hstemhm
        return
      </CharString>
      <CharString index="159">
        -54 96 callgsubr
        return
      </CharString>
      <CharString index="160">
        -18 46 -8 51 51 return
      </CharString>
      <CharString index="161">
        53 221 -20 hstemhm
        return
      </CharString>
      <CharString index="162">
        242 -10 rmoveto
        return
      </CharString>
      <CharString index="163">
        34 -43 17 -51 return
      </CharString>
      <CharString index="164">
        18 -21 669 return
      </CharString>
      <CharString index="165">
        -17 callgsubr
        -1 callsubr
        return
      </CharString>
      <CharString index="166">
        66 callsubr
        hvcurveto
        return
      </CharString>
      <CharString index="167">
        27 callgsubr
        -8 0 -10 4 -20 hvcurveto
        47 4 return
      </CharString>
      <CharString index="168">
        90 28 -36 -50 -44 -41 -28 -55 -36 -35 13 25 -25 return
      </CharString>
      <CharString index="169">
        rmoveto
        2 19 21 2 17 hhcurveto
        160 93 -91 -190 return
      </CharString>
      <CharString index="170">
        142 hstemhm
        return
      </CharString>
      <CharString index="171">
        36 callgsubr
        203 105 -105 238 return
      </CharString>
      <CharString index="172">
        -11 -9 -4 -10 -10 vvcurveto
        -17 15 -17 28 -12 vhcurveto
        return
      </CharString>
      <CharString index="173">
        -25 3 -45 1 -25 rrcurveto
        -21 -5 0 -1 -9 hvcurveto
        return
      </CharString>
      <CharString index="174">
        56 callgsubr
        -17 callsubr
        vhcurveto
        return
      </CharString>
      <CharString index="175">
        11 10 4 10 10 vvcurveto
        18 -14 16 -30 11 vhcurveto
        return
      </CharString>
      <CharString index="176">
        35 hhcurveto
        52 callsubr
        return
      </CharString>
      <CharString index="177">
        hvcurveto
        7 -64 2 return
      </CharString>
      <CharString index="178">
        73 100 callgsubr
        return
      </CharString>
      <CharString index="179">
        vvcurveto
        30 -32 8 return
      </CharString>
      <CharString index="180">
        303 143 -17 callgsubr
        return
      </CharString>
      <CharString index="181">
        111 44 24 53 51 42 -28 -35 15 vhcurveto
        return
      </CharString>
      <CharString index="182">
        -69 -5 -7 -45 hvcurveto
        9 -64 4 -80 -86 vvcurveto
        return
      </CharString>
      <CharString index="183">
        -21 401 -20 hstem
        return
      </CharString>
      <CharString index="184">
        19 22 5 8 18 return
      </CharString>
      <CharString index="185">
        100 19 vvcurveto
        return
      </CharString>
      <CharString index="186">
        -4 11 vhcurveto
        -17 -8 -42 -6 -39 -3 rrcurveto
        return
      </CharString>
      <CharString index="187">
        rmoveto
        -64 callgsubr
        -64 callsubr
        hvcurveto
        return
      </CharString>
      <CharString index="188">
        560 1 rmoveto
        -5 65 -2 81 86 vvcurveto
        return
      </CharString>
      <CharString index="189">
        2 -10 1 -11 -12 vvcurveto
        return
      </CharString>
      <CharString index="190">
        -2 -19 -25 -2 -30 hhcurveto
        return
      </CharString>
      <CharString index="191">
        109 191 109 return
      </CharString>
      <CharString index="192">
        -10 -10 74 436 -21 return
      </CharString>
      <CharString index="193">
        hstem
        90 callgsubr
        return
      </CharString>
      <CharString index="194">
        13 callsubr
        86 callgsubr
        return
      </CharString>
      <CharString index="195">
        197 vlineto
        0 168 -1 33 vhcurveto
        return
      </CharString>
      <CharString index="196">
        -73 -229 -21 751 -21 26 -21 return
      </CharString>
      <CharString index="197">
        42 114 return
      </CharString>
      <CharString index="198">
        -276 -97 -21 860 -20 hstem
        return
      </CharString>
      <CharString index="199">
        -5 139 vhcurveto
        98 -160 98 return
      </CharString>
      <CharString index="200">
        23 -25 21 -43 10 vhcurveto
        -36 -51 return
      </CharString>
      <CharString index="201">
        7 -100 vhcurveto
        -65 135 -152 return
      </CharString>
      <CharString index="202">
        109 hintmask 11110100
        return
      </CharString>
      <CharString index="203">
        -10 72 350 73 return
      </CharString>
      <CharString index="204">
        0 -3 -23 vhcurveto
        return
      </CharString>
      <CharString index="205">
        -8 -65 -89 -1 return
      </CharString>
      <CharString index="206">
        171 -20 hstem
        return
      </CharString>
      <CharString index="207">
        1 -20 hstemhm
        return
      </CharString>
      <CharString index="208">
        150 vvcurveto
        return
      </CharString>
</ttFont>
